<?xml version="1.0" encoding="utf-8"?>
<!-- Generator: Adobe Illustrator 25.2.0, SVG Export Plug-In . SVG Version: 6.00 Build 0)  -->
<svg version="1.1" id="Layer_1" xmlns="http://www.w3.org/2000/svg" xmlns:xlink="http://www.w3.org/1999/xlink" x="0px" y="0px"
	 viewBox="0 0 344.31 101.09" style="enable-background:new 0 0 344.31 101.09;" xml:space="preserve">
<style type="text/css">
	.st0{fill:#6F49AA;}
	.st1{fill:#593A2A;}
	.st2{fill:#BA9072;}
	.st3{fill:#906145;}
	.st4{fill:#9276B5;}
	.st5{fill:#FFFFFF;}
	.st6{fill:#633AA3;}
	.st7{fill:#00FFFF;}
	.st8{fill:#A68BC7;}
</style>
<g>
	<g>
		<g>
			<polygon class="st6" points="106.25,6.7 55.36,22.24 55.36,48.15 106.25,32.6 			"/>
			<polygon class="st6" points="55.36,99.7 106.25,84.16 106.25,58.26 55.36,73.8 			"/>
			<polygon class="st5" points="55.36,48.02 55.36,73.92 106.25,58.38 106.25,32.48 			"/>
		</g>
		<g>
			<g>
				<polygon class="st2" points="4.47,6.7 55.36,22.24 55.36,48.15 4.47,32.6 				"/>
			</g>
			<g>
				<polygon class="st1" points="55.36,99.7 4.47,84.16 4.47,58.26 55.36,73.8 				"/>
			</g>
			<g>
				<polygon class="st3" points="55.36,48.02 55.36,73.92 4.47,58.38 4.47,32.48 				"/>
			</g>
		</g>
	</g>
	<g>
		<path class="st6" d="M132.25,35.25V10.09c0-2.25,1.1-3.35,3.1-3.35h1.05c2.15,0,3.2,1.1,3.2,3.35v22.7h12.1
			c2.25,0,3.4,1.05,3.4,3.1v0.2c0,2.05-1.15,3.2-3.4,3.2h-15.6C133.7,39.3,132.25,37.85,132.25,35.25z"/>
		<path class="st6" d="M172.98,24.75h0.8c0-0.25,0-0.5-0.05-0.7c-0.1-2.85-1.85-4.4-4.95-4.4c-3.35,0-5.15,1.7-6,3.55
			c-0.05,0.1-4.55,0.45-4.55-2.8c0-1.1,0.5-2.25,1.5-3.2c1.65-1.7,4.8-2.85,9.5-2.85c7.75,0,11.5,3.55,11.5,10.1v14.4
			c0,0.35-1.3,0.8-2.65,0.8c-1.7,0-3.05-0.7-3.7-2.35c-0.15-0.45-0.3-1-0.4-1.65c-1.7,2.65-4.8,4.2-8.45,4.2c-5.1,0-8.2-2.8-8.2-7
			C157.32,27.4,162.62,24.9,172.98,24.75z M173.78,28.3h-1.35c-5.55,0.2-8.5,1.25-8.5,4c0,1.85,1.45,3,3.8,3c3.5,0,6-2.15,6.05-5.25
			V28.3z"/>
		<path class="st6" d="M182.16,16.69c-0.1-0.4,1.75-2.1,3.85-2.1c1.7,0,3.1,0.8,4,3.65l4.9,14.35l5.1-14.35
			c0.9-2.85,2.35-3.65,3.85-3.65c2.15,0,3.95,1.7,3.8,2.1l-8.75,21.05c-0.6,1.45-2.35,1.85-3.95,1.85c-1.65,0-3.35-0.35-3.95-1.8
			L182.16,16.69z"/>
		<path class="st6" d="M220.73,14.34c7.25,0,12.15,5.05,12.15,12.2V27c-0.05,1.2-0.4,1.85-1.7,1.85h-16.9l0.15,0.8
			c0.75,3.2,3.4,5.25,7,5.25c3.65,0,5.75-1.6,6.85-3.55c0.05-0.1,3.45,0.2,3.45,3c0,1.35-0.95,2.75-2.7,3.8
			c-1.8,1.1-4.4,1.85-7.8,1.85c-7.95,0-13.15-4.95-13.15-12.7C208.08,19.84,213.38,14.34,220.73,14.34z M220.68,19.19
			c-3.35,0-5.85,2.4-6.3,5.8h12C226.18,21.44,224.03,19.19,220.68,19.19z"/>
		<path class="st6" d="M260.39,24.4v11.75c0,2.55-1.35,3.35-3.15,3.35h-0.75c-1.85,0-3.15-0.75-3.15-3.35V25.5
			c0-3.25-1.65-5.25-4.5-5.25c-2.45,0-4.35,1.3-5.35,3.2v12.7c0,2.55-1.3,3.35-3.1,3.35h-0.75c-1.9,0-3.2-0.75-3.2-3.35v-20.7
			c0-0.25,1.25-0.8,2.65-0.8c1.9,0,3.8,0.95,4.2,4.1c1.75-2.6,4.3-4.4,8.05-4.4C257.69,14.34,260.39,18.84,260.39,24.4z"/>
		<path class="st6" d="M263.79,27.15c0-7.75,4.6-12.8,11.35-12.8c3.5,0,6.3,1.6,7.7,3.7V5.34c0-0.2,1.25-0.8,2.65-0.8
			c2.1,0,4.4,1.1,4.4,5.65v25.95c0,2.55-1.25,3.35-3.1,3.35h-0.7c-1.6,0-2.8-0.55-3.05-2.45c-0.05-0.55-0.1-1.1-0.1-1.7
			c-1.65,2.85-4.35,4.65-7.95,4.65C268.39,40,263.79,34.8,263.79,27.15z M282.89,23.9c-1.05-2.4-3.05-3.9-6.05-3.9
			c-3.8,0-6.35,2.75-6.35,7.15c0,4.25,2.6,7.2,6.25,7.2c3.35,0,6.15-2.35,6.15-5.85V23.9z"/>
		<path class="st6" d="M306.17,14.34c7.25,0,12.15,5.05,12.15,12.2V27c-0.05,1.2-0.4,1.85-1.7,1.85h-16.9l0.15,0.8
			c0.75,3.2,3.4,5.25,7,5.25c3.65,0,5.75-1.6,6.85-3.55c0.05-0.1,3.45,0.2,3.45,3c0,1.35-0.95,2.75-2.7,3.8
			c-1.8,1.1-4.4,1.85-7.8,1.85c-7.95,0-13.15-4.95-13.15-12.7C293.52,19.84,298.82,14.34,306.17,14.34z M306.12,19.19
			c-3.35,0-5.85,2.4-6.3,5.8h12C311.62,21.44,309.47,19.19,306.12,19.19z"/>
		<path class="st6" d="M339.28,18.44c0,2.8-2.15,3.8-2.25,3.7c-0.75-0.65-1.85-1.2-3.2-1.2c-3.4,0-4.9,3-4.9,7.9v7.3
			c0,2.55-1.3,3.35-3.1,3.35h-0.75c-1.9,0-3.2-0.75-3.2-3.35v-20.7c0-0.25,1.2-0.8,2.65-0.8s3.05,0.6,3.85,2.65
			c0.15,0.45,0.25,1.05,0.35,1.7c0.95-2.9,3-4.65,6.05-4.65C337.58,14.34,339.28,15.94,339.28,18.44z"/>
	</g>
	<g>
		<path d="M132.25,79.78V55.63c0-2.6,1.45-4.1,3.85-4.1h11c7.3,0,11.25,2.9,11.25,8.3c0,3.6-2,5.8-5.75,6.85c4.8,1.1,7,4.15,7,8
			c0,6.25-4,9.2-13.1,9.2h-10.4C133.7,83.88,132.25,82.38,132.25,79.78z M145.51,65.33c3.4,0,5.35-1.65,5.35-4.35
			c0-2.75-1.8-4.1-5.35-4.1h-6v8.45H145.51z M145.91,78.53c4.4,0,6.2-1.3,6.2-4.55c0-2.95-1.95-4.35-6.2-4.35h-6.4v8.9H145.91z"/>
		<path d="M175.35,58.93c7.7,0,12.95,5.25,12.95,12.85c0,7.6-5.3,12.8-13.05,12.8s-12.95-5.2-12.95-12.9
			C162.3,64.18,167.6,58.93,175.35,58.93z M175.3,64.43c-3.95,0-6.8,3.05-6.8,7.25c0,4.25,2.85,7.35,6.8,7.35
			c3.9,0,6.75-3.1,6.75-7.25C182.06,67.48,179.25,64.43,175.3,64.43z"/>
		<path d="M203.63,58.93c7.7,0,12.95,5.25,12.95,12.85c0,7.6-5.3,12.8-13.05,12.8s-12.95-5.2-12.95-12.9
			C190.58,64.18,195.88,58.93,203.63,58.93z M203.58,64.43c-3.95,0-6.8,3.05-6.8,7.25c0,4.25,2.85,7.35,6.8,7.35
			c3.9,0,6.75-3.1,6.75-7.25C210.33,67.48,207.53,64.43,203.58,64.43z"/>
		<path d="M220.08,49.93c0-0.2,1.25-0.8,2.7-0.8c2.05,0,4.35,1.1,4.35,5.65v15.05l6.8-8.4c1.15-1.65,2.65-2.25,3.9-2.25
			c2.25,0,3.95,2.05,3.75,2.4l-7.85,9.55l8.9,10.65c0.15,0.4-1.65,2.4-3.9,2.4c-1.35,0-2.75-0.55-3.95-2.25l-7.65-9v7.8
			c0,2.55-1.3,3.35-3.1,3.35h-0.75c-1.85,0-3.2-0.75-3.2-3.35V49.93z"/>
	</g>
</g>
</svg>
