<svg width="20" height="20" viewBox="0 0 20 20" fill="none" xmlns="http://www.w3.org/2000/svg">
<path d="M18.4422 15.9875L11.2953 19.2188C10.8547 19.4266 10.3953 19.4063 9.97342 19.1625L0.951544 14.5813C0.693732 14.4156 0.617169 14.1735 0.632794 14.0047C0.648419 13.836 0.687482 13.6531 1.14061 13.5219L1.80936 13.275L10.8594 18.2078L17.2906 15.5797L18.4422 15.9875V15.9875Z" fill="#01579B"/>
<path d="M11.2093 18.7015C11.0306 18.7854 10.8345 18.8254 10.6372 18.8184C10.4399 18.8113 10.2472 18.7573 10.0749 18.6609L1.26709 14.2234C1.14209 14.1547 1.10459 13.9969 1.17959 13.875C1.37334 13.5547 1.72959 12.5422 1.14209 11.7015L11.089 16.4906L11.2093 18.7015Z" fill="#F5F5F5"/>
<path d="M18.0607 15.6221L11.2092 18.7018C10.9826 18.8002 10.5311 18.9752 10.0107 18.6252C10.4217 18.6549 10.7107 18.4846 10.8592 18.208C11.0045 17.9393 10.9607 17.4987 10.7842 17.2502C10.6764 17.1002 10.3873 16.8612 10.2607 16.7268L17.6717 13.8284C18.3279 13.558 18.9436 13.9627 19.042 14.4549C19.1514 15.0112 18.442 15.4659 18.0607 15.6221V15.6221Z" fill="#94C6D6"/>
<path d="M18.4028 13.5877L11.3293 16.7439C10.884 16.9205 10.3856 16.8971 9.95901 16.6814L0.921511 12.0908C0.834011 12.0471 0.704323 11.9268 0.652761 11.7627C0.568386 11.4893 0.674636 11.1455 0.994948 11.0361L10.7887 16.0283L17.4949 13.158L18.4028 13.5877Z" fill="#01579B"/>
<path d="M18.9361 14.0452L18.1658 13.7655L16.5783 13.8577L11.3314 16.1998C10.8861 16.3764 10.3877 16.353 9.96111 16.1373L0.922042 11.5483C0.68923 11.4295 0.73923 11.0842 0.99548 11.0358L7.50954 8.12172C7.69548 8.08735 7.88611 8.10766 8.05954 8.1811L17.3549 12.6123C17.3549 12.6123 18.8314 13.6233 18.9361 14.0452Z" fill="#0091EA"/>
<path d="M16.4892 13.903C16.4892 13.903 17.4673 13.5202 18.236 13.5546C19.0048 13.5889 19.272 14.128 19.272 14.128C19.1267 13.4671 18.4438 13.1296 18.4438 13.1296L8.2876 8.01551C8.21729 7.98582 7.95791 7.92488 7.55947 8.08894C7.2376 8.22176 6.18604 8.71394 6.18604 8.71394L16.4892 13.903Z" fill="#616161"/>
<path d="M19.3158 14.253C19.2424 13.9608 19.0611 13.6483 18.7268 13.4967C18.2861 13.2983 17.658 13.3498 17.2564 13.5592L16.4893 13.8998V14.4405L17.4596 14.0092C18.4033 13.5889 18.8221 14.2186 18.858 14.367C19.008 14.9717 18.7174 15.3217 17.8596 15.7155L16.4658 16.3436V16.8873L18.0689 16.1733C18.7783 15.8889 19.5877 15.3545 19.3158 14.253V14.253Z" fill="#424242"/>
<path d="M5.15791 14.1111L2.45947 10.3814L2.88291 10.1924L5.91885 14.3643L5.15791 14.1111ZM8.61885 15.8299L8.1376 15.4486L16.4892 13.7439V14.0174L15.3188 14.4611L8.61885 15.8299Z" fill="#01579B"/>
<path d="M2.3125 7.21562L12.8609 5.45312L17.4688 10.5266C17.7016 10.7719 17.575 11.1781 17.2437 11.2453L6.35313 13.4797L2.3125 7.21562Z" fill="#9CCC65"/>
<path d="M17.2436 10.8076L6.42793 12.9982L6.39355 13.5139L17.2436 11.2889C17.5498 11.2248 17.6779 10.8748 17.5107 10.6279C17.4514 10.7154 17.3607 10.7842 17.2436 10.8076ZM17.8264 13.1717C17.9404 13.3529 17.8373 13.592 17.6279 13.6342L7.67168 15.6529C7.07324 15.7764 6.48574 15.3842 6.43262 14.7748C6.3873 14.2592 6.73574 13.792 7.24356 13.6857L16.8186 11.5357L17.8264 13.1717Z" fill="#689F38"/>
<path d="M8.68567 12.5158L4.72004 6.84082L2.45754 7.43926C1.93411 7.95957 2.12942 8.81426 2.12942 8.81426C2.12942 8.81426 5.59348 14.3736 6.14036 15.0846C6.68723 15.7955 7.48567 15.6846 7.48567 15.6846L8.83411 15.4127L8.69348 12.8971L8.68567 12.5158V12.5158Z" fill="#616161"/>
<path d="M8.68604 12.5529L6.78135 12.9467C6.26104 13.0639 6.16729 13.5529 6.16729 13.5529L1.56885 6.96387C1.56885 6.96387 0.914162 7.75605 1.34854 8.42949L6.14072 15.0842C6.66416 15.8295 7.48604 15.6904 7.48604 15.6904L8.83447 15.4186L8.69541 12.9529L8.68604 12.5529V12.5529Z" fill="#424242"/>
<path d="M17.2264 12.9688C17.2748 13.075 17.2123 13.1985 17.0983 13.2219L7.57796 15.175C6.97952 15.2985 6.55608 14.9016 6.57796 14.361C6.60608 13.6781 6.9889 13.3891 7.49515 13.2844L17.0623 11.3297C17.0623 11.3297 16.7373 11.6953 16.9858 12.3797C17.0701 12.6156 17.1608 12.825 17.2264 12.9688Z" fill="#B9E4EA"/>
<path d="M7.06406 13.0781L2.98438 7.30627" stroke="#424242" stroke-width="0.323594" stroke-miterlimit="10"/>
<path d="M7.38418 10.6174L2.1373 7.97363L1.9248 8.39238L7.9873 11.4814L7.38418 10.6174Z" fill="#424242"/>
<path d="M16.9983 10.0049L16.614 9.58301L10.703 12.2955L7.38428 10.6533L7.9499 11.4627L10.1483 12.5861L11.7858 12.3346L16.9983 10.0049Z" fill="#689F38"/>
<path d="M18.4406 8.96074L11.2953 12.192C10.8547 12.3998 10.3953 12.3795 9.97342 12.1357L0.951544 7.55449C0.693732 7.38887 0.617169 7.14668 0.632794 6.97793C0.648419 6.80918 0.687482 6.62637 1.14061 6.49512L1.56404 6.33887L10.8328 10.8873L18.3594 7.77324L18.4406 8.96074V8.96074Z" fill="#C62828"/>
<path d="M11.2078 11.6748C11.0291 11.7586 10.833 11.7987 10.6357 11.7916C10.4384 11.7846 10.2457 11.7306 10.0734 11.6342L1.26563 7.19668C1.14063 7.12793 1.10313 6.97012 1.17813 6.84824C1.37188 6.52793 1.72813 5.51543 1.14063 4.6748L10.8656 9.62168L11.2078 11.6748Z" fill="#F5F5F5"/>
<path d="M18.0593 8.59531L11.2077 11.675C10.9812 11.7734 10.5296 11.9484 10.0093 11.5984C10.4202 11.6281 10.7093 11.4578 10.8577 11.1812C11.003 10.9125 10.9593 10.4719 10.7827 10.2234C10.6749 10.0734 10.3858 9.83437 10.2593 9.7L17.6702 6.80156C18.3265 6.53125 18.9421 6.93594 19.0405 7.42812C19.1499 7.98437 18.4405 8.43906 18.0593 8.59531Z" fill="#94C6D6"/>
<path d="M18.4032 6.56113L11.3297 9.71738C10.8844 9.89395 10.386 9.87051 9.95942 9.65488L0.920354 5.06426C0.826604 5.01738 0.685979 4.89707 0.640666 4.72676C0.573479 4.47363 0.660979 4.14082 0.993791 4.00957L9.2766 2.25488L18.4032 6.56113V6.56113Z" fill="#C62828"/>
<path d="M18.9346 7.01873L18.1643 6.73905L16.5768 6.83123L11.3299 9.17342C10.8846 9.34998 10.3862 9.32655 9.9596 9.11092L0.920537 4.52029C0.687724 4.40154 0.770537 4.08748 0.993974 4.00779L7.5096 1.09529C7.69554 1.06092 7.88616 1.08123 8.0596 1.15467L17.3549 5.58592C17.3549 5.58592 18.8299 6.59529 18.9346 7.01873Z" fill="#F44336"/>
<path d="M16.4891 6.87517C16.4891 6.87517 17.3031 6.58924 18.0719 6.62361C18.8406 6.65799 19.2734 7.10017 19.2734 7.10017C19.1156 6.39392 18.4453 6.10174 18.4453 6.10174L8.28906 0.987674C8.21875 0.957987 7.95938 0.897049 7.56094 1.06111C7.23906 1.19392 6.1875 1.68611 6.1875 1.68611L16.4891 6.87517Z" fill="#616161"/>
<path d="M17.4186 6.54043L7.02637 1.29824L7.37012 1.14355L17.9389 6.44043L17.4186 6.54043Z" fill="#424242"/>
<path d="M19.3139 7.22669C19.2404 6.9345 19.117 6.65169 18.7686 6.50481C18.3232 6.31731 17.917 6.27825 17.2545 6.53294L16.4873 6.87356V7.41419L17.4576 6.98294C17.9498 6.75169 18.6748 6.80169 18.8561 7.34075C19.0545 7.93137 18.7154 8.29544 17.8576 8.68919L16.4639 9.31731V9.86106L18.067 9.147C18.7779 8.86262 19.5873 8.32825 19.3139 7.22669V7.22669Z" fill="#424242"/>
</svg>
