<svg width="20" height="20" viewBox="0 0 20 20" fill="none" xmlns="http://www.w3.org/2000/svg">
<path d="M6.9627 16.5656L6.33301 17.6859C6.33301 17.6859 7.39863 17.4109 8.44863 16.7125C9.49863 16.0141 10.3721 14.9359 12.3533 13.6531C14.5408 12.2375 17.3064 11.9641 18.7346 10.3906C19.858 9.15313 19.8002 7.42188 19.2299 5.99063C18.6033 4.42031 17.683 3.83594 17.683 3.83594L6.9627 16.5656V16.5656Z" fill="#FFB803"/>
<path d="M15.0327 5.08582C15.1499 4.99832 13.4015 3.16238 13.4015 3.16238C13.4015 3.16238 10.5749 1.06551 6.55462 2.78426C2.5343 4.50301 0.14524 9.36863 0.610865 13.2733C1.02493 16.7358 2.60462 17.9202 4.27649 17.8452C6.87024 17.728 8.16712 16.0077 8.16712 16.0077L15.0327 5.08582Z" fill="#FFAA00"/>
<path d="M13.1343 3.32343C13.1343 3.32343 11.4781 1.82187 7.74837 2.84218C4.01868 3.8625 0.785868 8.55312 1.01868 12.6906C1.24524 16.7141 3.02962 16.3328 3.02962 16.3328C3.02962 16.3328 8.09837 8.37968 8.24524 8.2625C8.39056 8.14531 13.1343 3.32343 13.1343 3.32343V3.32343Z" fill="#FFE265"/>
<path d="M4.91093 17.1498C4.91093 17.1498 3.86405 17.5451 3.13124 17.242C2.39843 16.9389 1.9578 16.0779 1.99374 15.5998C2.04999 14.8467 2.64999 14.7654 2.64999 14.7654L3.74999 12.7326L2.39843 9.85292C2.39843 9.85292 2.30937 9.29667 2.49999 9.04511C2.68905 8.79198 2.94218 8.66542 3.2703 8.60292C3.59843 8.54042 5.34218 7.39042 5.34218 7.39042C5.34218 7.39042 4.99999 6.32792 5.56874 5.59511C6.13749 4.8623 6.67968 4.78729 6.67968 4.78729C6.67968 4.78729 7.07187 4.67323 7.56405 4.77479C8.05624 4.87636 8.29687 5.02792 8.29687 5.02792L9.18124 4.44667L10.6344 4.34511C10.6344 4.34511 10.7984 4.04198 10.8234 3.94042C10.8484 3.83886 10.8469 3.43886 11.4922 3.03417C12.1375 2.62948 12.6266 2.74042 12.8062 2.77792C13.1297 2.84511 13.3578 2.99979 13.4547 3.26229C13.5937 3.63729 13.3375 5.03886 13.3375 5.03886L6.4703 15.7389L4.91093 17.1498V17.1498Z" fill="#DA8119"/>
<path d="M4.99066 8.54529L2.97816 9.06091C2.97816 9.06091 2.96098 9.98279 3.55473 10.3656C4.14848 10.7484 4.55629 10.6297 5.46723 10.4969C6.3766 10.3656 7.35316 10.2594 7.55004 9.87654C7.74848 9.49373 7.55004 9.05935 7.24691 8.7156C6.94379 8.37341 6.42504 7.84998 6.42504 7.84998L4.99066 8.54529V8.54529ZM2.52504 13.3203L2.20629 13.1406C2.20629 13.1406 2.14848 13.5172 2.14379 13.7422C2.13441 14.1734 2.40941 14.5797 2.40941 14.5797C2.40941 14.5797 2.32348 15.4672 2.3766 15.6125C2.42973 15.7578 4.97816 16.2344 4.97816 16.2344L5.80941 15.9578L6.60004 13.2406L4.42348 13.0031C4.42348 13.0031 2.5641 13.2547 2.52504 13.3203V13.3203ZM11.1516 4.70154L10.2 5.43591C10.2 5.43591 10.2719 5.84373 10.6985 5.94373C11.1235 6.04373 11.65 5.57185 11.9672 5.30935C12.2844 5.04685 12.936 4.31248 12.8547 4.21404C12.7735 4.11404 11.9485 4.01404 11.9485 4.01404L11.1516 4.70154V4.70154Z" fill="#714C40"/>
<path d="M10.7889 5.40779C11.0623 5.36091 12.2108 4.06716 12.2295 3.98591C12.2483 3.90466 11.2514 3.64216 10.9076 3.81404C10.5639 3.98591 10.0826 4.33904 10.0655 4.69216C10.0467 5.04529 10.0561 5.38123 10.2014 5.43435C10.3451 5.48904 10.5811 5.44373 10.7889 5.40779V5.40779ZM4.16233 9.97498C4.69202 9.99685 5.82639 9.67185 6.34358 9.20623C6.86077 8.7406 6.60764 8.13435 6.53264 7.98279C6.45764 7.83123 5.97796 7.27654 5.47327 7.26404C4.96858 7.25154 3.16546 8.20935 3.00296 8.75154C2.84046 9.29373 3.19202 9.48279 3.40608 9.64685C3.62014 9.81091 3.84671 9.96248 4.16233 9.97498V9.97498ZM6.48264 12.1047C6.48264 12.1047 6.58421 11.8265 6.58421 11.6515C6.58421 11.475 6.40764 11.0844 6.20608 11.1719C6.00452 11.2594 5.38733 12.1937 5.38733 12.1937C5.38733 12.1937 4.68108 11.7015 3.91233 11.7656C3.14358 11.8297 2.60139 12.4469 2.39983 12.7359C2.19827 13.025 2.18264 13.1922 2.19671 13.3859C2.21077 13.5797 2.75296 14.1859 2.97952 14.3375C3.20608 14.489 4.49202 14.514 4.65608 14.4125C4.82014 14.3109 5.56389 13.5797 5.69045 13.3281C5.81702 13.0765 6.48264 12.1047 6.48264 12.1047V12.1047ZM4.04827 15.0937C4.04827 15.0937 3.59514 14.7531 3.37952 14.6906C3.16546 14.6281 2.47171 14.7156 2.40921 14.9172C2.34671 15.1187 2.33421 15.4219 2.35921 15.6234C2.38421 15.825 2.73733 16.4687 2.85139 16.6312C2.96546 16.7953 3.73421 17.1609 3.92327 17.1609C4.11233 17.1609 4.66702 17.1484 4.75608 17.0734C4.84358 16.9984 4.84202 16.5594 4.73108 16.1906C4.60296 15.7734 4.04827 15.0937 4.04827 15.0937V15.0937Z" fill="#AC5832"/>
<path d="M4.09827 6.80156C4.0639 6.91563 3.98421 7.74688 4.16077 7.87344C4.33734 8 5.32015 7.57031 5.34515 7.44531C5.37015 7.31875 5.30765 6.5875 5.18109 6.38594C5.05452 6.18438 4.17327 6.55 4.09827 6.80156V6.80156ZM5.7889 4.45313C5.51077 4.54531 5.28421 5.70156 5.42327 5.82656C5.56234 5.95156 6.63421 6.12969 6.79671 6.00313C6.96077 5.87656 7.01077 5.02031 6.91077 4.90625C6.80921 4.79375 6.09202 4.35156 5.7889 4.45313V4.45313ZM15.4201 3.52031C15.4201 3.52031 15.4951 2.90313 15.1936 2.83906C14.8905 2.77656 14.7264 3.17969 14.7264 3.17969C14.7264 3.17969 14.5498 2.49844 14.2217 2.44844C14.0045 2.41563 13.5155 2.6875 13.428 2.96563C13.3405 3.24375 13.3139 3.53281 13.3139 3.53281C13.3139 3.53281 12.9108 3.43125 13.0358 3.84844C13.1623 4.26406 13.2873 4.69375 13.2873 4.69375C13.2873 4.69375 15.4201 3.49531 15.4201 3.52031ZM7.91859 4.84375C7.97484 5.09219 8.33421 5.5375 8.47327 5.55C8.61234 5.5625 9.54515 4.85625 9.53265 4.65469C9.52015 4.45313 9.15452 3.68438 8.8764 3.62031C8.59827 3.55625 7.85609 4.56563 7.91859 4.84375V4.84375Z" fill="#4E8F34"/>
<path d="M10.0094 3.58108C9.6313 3.47952 9.37973 4.33733 9.45473 4.4889C9.52973 4.64046 10.0219 4.74046 10.236 4.5764C10.45 4.41233 10.3547 3.67171 10.0094 3.58108V3.58108ZM7.31411 11.8655C7.64848 11.9764 8.28442 10.492 8.28442 10.1389C8.28442 9.78577 7.59067 9.42015 7.38911 9.52171C7.18755 9.62327 6.5313 10.5686 6.5313 10.8076C6.53286 11.0467 7.05005 11.778 7.31411 11.8655ZM7.61723 13.3155C7.61723 13.3155 6.88598 11.967 6.77192 11.8405C6.65786 11.7139 6.4563 11.5498 6.19223 11.803C5.92817 12.0561 5.58755 12.9623 5.65005 13.2155C5.71255 13.4686 6.15473 13.8717 6.12973 13.9217C6.10473 13.9717 5.32348 14.1998 5.24692 14.5514C5.17192 14.9045 5.43598 15.8998 5.63755 16.0389C5.83911 16.178 6.3188 16.0514 6.3188 16.0514L7.61723 13.3155V13.3155ZM2.13286 9.87327C1.85473 9.87327 1.9688 10.3264 2.0063 10.5795C2.0438 10.8311 1.9563 11.1592 2.28442 11.1842C2.61255 11.2092 3.3438 10.9951 3.3438 10.9951C3.3438 10.9951 3.3188 10.717 3.15473 10.378C2.99067 10.0373 2.95317 9.83577 2.77661 9.86077C2.60005 9.88577 2.13286 9.87327 2.13286 9.87327V9.87327Z" fill="#4E8F34"/>
<path d="M4.07492 11.7656C4.17648 12.1188 3.12961 12.85 2.80149 12.7235C2.26867 12.5188 1.98273 11.8156 2.08273 11.4C2.1843 10.9844 3.21711 10.7438 3.39367 10.7438C3.57023 10.7438 3.98586 11.4563 4.07492 11.7656Z" fill="#FCECC8"/>
<path d="M3.84712 11.0467C3.88462 11.5764 4.23462 12.1998 4.57837 12.2186C4.80493 12.2311 5.20024 11.9264 5.51118 11.7139C5.82681 11.4998 6.06587 11.2732 6.19243 11.1217C6.31899 10.9701 6.00337 10.542 5.81431 10.3154C5.62524 10.0889 5.40962 9.95606 5.24712 9.99981C4.96899 10.0748 4.81899 10.1764 4.46587 10.4029C4.25337 10.5389 3.82837 10.767 3.84712 11.0467V11.0467ZM3.58306 13.3029C3.59556 13.6342 3.82212 13.6686 4.08774 13.7951C4.35337 13.9217 4.61743 13.9967 4.78149 13.8326C4.94556 13.6686 5.07212 12.7857 4.99556 12.5467C4.92056 12.3076 4.36587 12.1936 4.13774 12.2686C3.96587 12.3264 3.57056 12.9498 3.58306 13.3029V13.3029ZM5.49868 6.65919C5.59556 6.93419 6.19243 7.26387 6.41899 7.17637C6.64556 7.08887 6.77212 6.0545 6.70962 5.81544C6.64712 5.57637 5.70181 5.67637 5.60024 5.82794C5.49868 5.97794 5.42368 6.44512 5.49868 6.65919ZM6.82368 6.68419C6.77368 6.93106 7.18931 7.26387 7.29087 7.31387C7.39243 7.36387 7.59399 7.36387 7.59399 7.36387C7.59399 7.36387 7.39243 7.7795 7.30337 8.03262C7.21431 8.28575 7.01274 8.90294 7.20181 8.99044C7.39087 9.07794 8.37368 9.217 8.53774 8.97794C8.70181 8.73887 8.95337 7.6045 8.81587 7.42794C8.67681 7.25137 7.83306 7.23887 7.83306 7.23887C7.83306 7.23887 8.09712 7.09981 8.16118 6.96075C8.22524 6.82169 7.85806 6.31856 7.60649 6.2795C7.35181 6.24356 6.87368 6.43262 6.82368 6.68419V6.68419ZM7.23931 5.77637C7.27212 5.992 7.60493 6.2045 7.90806 6.1545C8.21118 6.1045 8.29868 5.33575 8.22368 5.25919C8.14868 5.18262 7.74399 5.05762 7.60649 5.13262C7.46587 5.20918 7.21431 5.61231 7.23931 5.77637ZM8.78931 5.68887C8.68618 6.04825 9.02056 6.6795 9.36899 6.73575C9.68462 6.78575 10.5034 6.23106 10.6174 6.0045C10.7315 5.77794 10.0752 5.08419 9.88618 5.05919C9.69712 5.03419 9.36899 5.27325 9.24399 5.36231C9.11743 5.44825 8.83931 5.51231 8.78931 5.68887V5.68887ZM12.0799 3.217C11.9127 3.32012 11.8299 4.217 11.9659 4.45294C12.1049 4.692 12.8737 4.6045 13.1377 4.23887C13.2768 4.04669 13.2393 3.23106 13.1127 3.1795C12.9877 3.1295 12.244 3.117 12.0799 3.217V3.217ZM6.09712 16.2639C6.09712 16.2639 5.95493 15.8951 5.67993 15.8092C5.40493 15.7232 4.85493 16.1029 4.85493 16.1029C4.85493 16.1029 4.76899 15.2311 4.58931 15.0514C4.40962 14.8717 3.93618 14.9561 3.82212 15.0139C3.70806 15.0701 3.34868 15.2982 3.32993 15.4311C3.31118 15.5639 3.33931 16.5389 3.57681 16.6248C3.81431 16.7107 3.99399 16.7576 4.17368 16.7295C4.35337 16.7014 4.62837 16.5873 4.62837 16.5873C4.62837 16.5873 4.54243 16.967 4.67524 17.0982C4.80806 17.2311 5.27212 17.0889 5.30024 17.0701C5.32993 17.0498 6.09712 16.2639 6.09712 16.2639Z" fill="#FCECC8"/>
<path d="M5.64375 17.6639L4.52344 17.2608C4.52344 17.2608 5.03594 17.2092 5.53594 16.6717C6.29062 15.8592 7.04375 14.0639 7.56094 12.7061C8.07812 11.3483 8.59531 9.90451 9.30625 8.48264C10.0172 7.06076 11.4641 5.23889 12.9703 4.12951C14.8234 2.76545 16.7687 3.45607 16.7687 3.45607L16.2672 7.83732L7.58281 16.6951L5.64375 17.6639V17.6639Z" fill="#FFAA00"/>
<path d="M17.6311 9.14043C18.9123 7.67168 18.9889 5.73731 18.4232 4.62637C17.8201 3.44043 16.1389 3.18262 15.0826 3.48418C14.0311 3.78418 12.0232 4.75606 10.4701 7.55762C8.91699 10.3592 7.41543 15.1248 6.63574 16.2857C6.0998 17.0842 5.5248 17.4873 5.0373 17.6811C4.45293 17.9123 3.87012 17.8357 3.87012 17.8357C3.87012 17.8357 5.60137 18.1404 6.82949 17.4717C8.05762 16.8029 8.89824 15.7748 9.86855 14.6264C10.2639 14.1592 11.4889 12.8607 12.8217 12.0186C14.1529 11.1748 16.4467 10.4982 17.6311 9.14043V9.14043Z" fill="#FFE265"/>
<path d="M9.0768 13.0109C9.40961 13.0265 9.5018 12.7468 9.53618 12.5172C9.57055 12.2875 9.5018 11.989 9.2268 11.9547C9.00961 11.9281 8.82524 12.0812 8.76743 12.425C8.71586 12.7312 8.83618 12.9984 9.0768 13.0109V13.0109ZM9.02055 14.239C8.83461 14.139 8.59555 14.2843 8.50336 14.4797C8.41118 14.675 8.41118 14.939 8.58305 15.0312C8.75493 15.1234 8.96899 15.0515 9.10024 14.7906C9.2143 14.5609 9.19243 14.3312 9.02055 14.239ZM9.82368 13.8593C9.52524 13.675 9.6518 13.3203 9.82368 13.0562C9.99555 12.7922 10.2831 12.5859 10.5127 12.7343C10.7424 12.8843 10.6502 13.2515 10.5018 13.5031C10.3815 13.7078 10.1034 14.0328 9.82368 13.8593Z" fill="#FFB700"/>
</svg>
