<svg width="20" height="20" viewBox="0 0 20 20" fill="none" xmlns="http://www.w3.org/2000/svg">
<path d="M2.77351 2.89841C2.77351 2.89841 2.27663 1.78122 1.95163 1.87497C1.62663 1.96872 1.90476 3.44216 1.90476 3.44216L2.77351 2.89841Z" fill="#FEAF5F"/>
<path d="M15.8827 8.79375C15.8827 8.79375 16.4718 8.59219 16.8905 9.16562C17.3093 9.73906 17.1405 10.4047 17.7014 11.1766C18.0546 11.6609 18.4936 11.5297 18.9499 11.3984C19.4171 11.2656 19.7718 11.2516 19.7874 11.5531C19.7921 11.6437 19.6733 12.2125 19.1671 12.7328C18.6093 13.3062 17.8561 13.7094 16.7327 13.2687C15.7046 12.8656 15.4171 11.5234 15.4171 11.5234L15.8827 8.79375ZM9.13426 6.97812C9.13426 6.97812 10.353 6.25156 10.1108 5.53594C9.85457 4.77812 8.91707 5.42812 8.71395 5.17969C8.49051 4.90469 9.62957 4.21719 8.97801 3.50469C8.32645 2.79219 7.6327 3.80156 7.3952 3.52031C7.16238 3.24375 7.93738 2.65156 7.44207 2.04687C6.94676 1.44219 6.1077 2.01562 5.85926 2.20156C5.67645 2.33906 5.33113 2.58906 4.89676 2.68281C4.46238 2.77656 3.76395 2.5125 3.15926 2.5125C2.55457 2.5125 1.65457 2.91562 1.46863 3.70625C1.2827 4.49687 1.17332 4.87031 1.03426 4.93125C0.895196 4.99219 0.506134 4.93125 0.492071 5.21094C0.478009 5.49062 0.863946 5.56719 1.39207 5.53594C1.9202 5.50469 2.66395 5.13281 2.97488 4.74531C3.28582 4.35781 3.54832 3.76875 3.54832 3.76875L9.13426 6.97812Z" fill="#865B52"/>
<path d="M4.7749 10.9968C4.7749 10.9968 3.95302 11.5093 3.53427 11.6328C3.11552 11.7562 2.55771 11.5859 2.16865 11.9734C1.78115 12.3609 1.99834 12.7187 1.84365 13.1062C1.68896 13.4937 1.08584 14.0796 1.14521 14.6578C1.22334 15.4171 1.88271 15.7828 1.88271 15.7828C1.88271 15.7828 2.51084 15.1859 2.49521 14.6265C2.47959 14.0671 2.47959 13.8046 2.55771 13.5406C2.63584 13.2765 2.94521 12.8109 3.17802 12.7343C3.41084 12.6562 4.24833 12.6875 4.62021 12.6718C4.99208 12.6562 5.69052 12.5937 5.69052 12.5937L4.7749 10.9968V10.9968Z" fill="url(#paint0_linear_4359_2558)"/>
<path d="M13.6015 9.30627L9.78589 12.625L9.58745 13.3578C9.58745 13.3578 10.2046 13.2531 10.4062 13.1906C10.6078 13.1281 10.8953 13.0594 10.8953 13.0594C10.8953 13.0594 10.9937 13.1891 11.0578 13.5094C11.1359 13.8969 11.1203 14.1453 11.089 14.1922C11.0031 14.3203 10.4062 14.5641 10.1734 14.5797C9.94058 14.5953 9.35152 14.4969 9.07183 14.936C8.85464 15.2766 8.9687 15.4281 8.94839 15.5094C8.91714 15.6328 8.66089 15.7031 8.75464 15.936C8.84839 16.1688 10.0187 16.0375 10.0187 16.0375C10.0187 16.0375 10.0921 15.7219 10.1578 15.7125C10.3203 15.6891 10.5921 15.6188 10.7625 15.4016C10.9328 15.1844 12.2515 15.0906 12.3906 14.8125C12.5921 14.4094 12.3593 13.8813 12.3437 13.386C12.3281 12.8906 12.3281 12.4625 12.3671 12.3781C12.8171 12.1141 13.414 11.5563 13.414 11.5563L14.4843 9.67971L13.6015 9.30627V9.30627Z" fill="url(#paint1_linear_4359_2558)"/>
<path d="M4.52651 7.49065L4.95776 8.32034L7.0562 6.65315L5.1312 4.99377L4.2937 6.40471L4.52651 7.49065Z" fill="#B3875D"/>
<path d="M4.8532 8.1109C4.90007 8.2734 4.96101 8.48278 4.99226 8.66871C5.02351 8.85465 5.03914 9.13434 5.03914 9.13434C5.03914 9.13434 4.42664 9.49059 4.3407 10.0656C4.26101 10.6047 4.35945 11.489 4.60789 11.939C4.85632 12.389 5.24851 12.7422 5.65476 12.8812C6.09539 13.0328 6.62976 13.3265 7.65632 13.4172C8.37039 13.4797 9.36257 13.6187 10.5876 12.9984C11.8126 12.3781 12.8094 10.8734 12.9798 10.5625C13.1501 10.2515 13.4923 9.75621 13.6626 9.89528C13.8329 10.0343 13.3516 10.3609 13.2282 10.9968C13.1048 11.6328 13.2688 12.3984 14.1751 12.6718C15.1376 12.9625 16.3813 12.4859 16.6141 10.6703C16.8469 8.85465 15.7876 7.58746 14.811 7.08746C14.0516 6.6984 13.211 6.66559 12.7048 6.80778C12.4298 6.8859 12.1891 7.10309 11.9485 7.17965C11.7516 7.24371 10.8938 7.27028 10.436 7.24215C9.90007 7.20934 10.0204 7.00778 9.5407 6.69684C9.05945 6.3859 8.91257 6.47653 8.72976 6.29528C8.49382 6.06246 7.56101 4.6984 6.2782 3.84371C5.16101 3.0984 4.53289 3.04528 4.53289 3.04528C4.53289 3.04528 4.63757 2.74215 4.56414 2.26246C4.51726 1.95934 4.2532 1.4484 4.08289 1.43278C3.92039 1.41715 3.62351 1.85778 3.54695 2.27028C3.4532 2.77496 3.59382 3.10778 3.59382 3.10778C3.59382 3.10778 3.55945 4.13121 2.97664 4.82965C2.39382 5.52809 4.83757 5.17809 5.17507 5.32965C5.51257 5.48121 5.7782 6.20153 5.73289 6.83121C5.6782 7.64528 4.8407 8.07028 4.8532 8.1109V8.1109Z" fill="#FEAF5F"/>
<path d="M6.50472 12.8234C6.50472 12.8234 6.38909 13.1375 6.32972 13.1844C6.2719 13.2312 5.88753 13.6609 5.71253 13.8359C5.53753 14.0109 5.31722 14.2515 5.22347 14.3328C5.12972 14.414 4.73753 14.6281 4.75784 15.0344C4.78909 15.6594 5.09847 15.7203 5.16565 16.0469C5.22034 16.3172 5.27503 16.6953 5.45628 16.989C5.66565 17.3265 5.96097 17.5047 6.42659 17.5047C6.89222 17.5047 7.16722 16.5703 7.16722 16.5703C7.16722 16.5703 6.7594 15.989 6.57347 16.0234C6.38753 16.0578 6.35628 16.2406 6.24847 16.175C6.1219 16.0984 6.08128 15.8187 6.0469 15.6672C6.01253 15.5156 5.91878 15.3344 5.97659 15.264C6.0344 15.1937 6.62659 14.8828 6.9344 14.675C7.45003 14.3265 8.79534 13.2781 8.79534 13.2781C8.79534 13.2781 9.72815 10.864 7.87659 11.1609C6.2844 11.4156 6.50472 12.8234 6.50472 12.8234V12.8234Z" fill="url(#paint2_linear_4359_2558)"/>
<path d="M14.9828 9.27501C14.5265 9.19845 13.2687 9.86876 13.1375 11.5938C13.0672 12.5172 12.939 13.2656 12.8812 13.5094C12.8234 13.7531 12.7187 14.0797 12.6609 14.1266C12.6031 14.1734 12.2703 14.3953 12.0062 14.7813C11.7343 15.1766 11.8125 15.5922 11.7312 15.7078C11.65 15.8234 11.339 16.0844 11.0765 16.3484C10.8984 16.5266 10.3015 16.5 10.0687 16.7672C9.83591 17.0344 9.87029 17.325 9.87029 17.325C9.87029 17.325 9.42029 17.4406 9.29216 17.7438C9.16404 18.0469 9.46248 18.4297 9.71873 18.4656C9.97498 18.5016 10.5265 18.5922 10.5797 18.5359C10.75 18.35 10.6265 17.9547 10.6265 17.9547C10.6265 17.9547 10.8828 17.9547 11.1156 17.6406C11.3484 17.3266 11.6625 17.1281 11.9297 16.9078C12.1968 16.6875 13.1937 15.9641 13.3844 15.6156C13.6359 15.1547 13.5468 14.7203 13.7218 14.4406C13.8968 14.1609 14.2375 13.8625 14.8781 13.3391C15.3906 12.9203 15.9859 12.5516 16.4062 11.5156C17.0062 10.0266 15.2625 9.32189 14.9828 9.27501V9.27501Z" fill="url(#paint3_linear_4359_2558)"/>
<path d="M5.30626 5.21401C5.12032 5.28432 4.99219 5.27182 5.00313 5.42338C5.01407 5.57494 5.46876 5.94682 5.35157 6.65619C5.23438 7.36557 4.78126 7.74995 4.36251 7.88901C3.94376 8.02807 3.49376 8.00932 3.49376 8.00932L2.89688 8.69213C2.89688 8.69213 2.93594 9.25776 2.55626 9.51401C2.27501 9.70307 2.10626 9.64526 2.10626 9.64526C2.10626 9.64526 1.85626 9.85932 1.57032 9.76869C1.19844 9.65307 0.546882 9.18745 0.615632 8.17807C0.679694 7.24995 1.36876 6.67651 1.52344 6.32495C1.59532 6.15932 1.56251 5.5187 1.56251 5.5187C1.56251 5.5187 2.46251 5.30151 2.91251 4.7812C3.23282 4.41088 3.50938 3.86557 3.52501 3.64057C3.54063 3.41557 6.17032 4.4312 6.17032 4.4312L5.30626 5.21401V5.21401Z" fill="url(#paint4_radial_4359_2558)"/>
<path d="M3.57657 5.50627C3.69219 5.72033 3.60157 5.97502 3.41563 6.07658C3.2625 6.16096 2.93907 6.06721 2.85625 5.85783C2.75938 5.61096 2.81563 5.40939 3.00313 5.30783C3.19063 5.20783 3.46094 5.29221 3.57657 5.50627Z" fill="#2F2927"/>
<path d="M1.09064 8.36715C0.962513 8.48902 0.975013 8.73121 1.11408 8.97184C1.25314 9.21246 1.4172 9.32809 1.57189 9.22809C1.72658 9.12809 1.65783 8.83277 1.55626 8.59996C1.4547 8.36715 1.22345 8.24371 1.09064 8.36715V8.36715ZM2.25314 8.64684C2.25314 8.59996 2.02033 8.1984 2.28751 8.05309C2.46408 7.95777 2.65939 8.09996 2.6422 8.34371C2.62501 8.57809 2.52033 8.66402 2.52033 8.66402C2.52033 8.66402 2.54376 8.7859 2.45626 9.22809C2.39064 9.56402 2.26408 9.60621 2.18283 9.67027C2.12189 9.71871 1.81564 9.82184 1.86251 9.74527C1.90939 9.67027 2.1422 9.38434 2.19376 9.1234C2.23283 8.92965 2.25314 8.64684 2.25314 8.64684V8.64684Z" fill="#523226"/>
<path d="M2.49062 14.661C2.49062 14.661 2.30781 15.0047 2.2 15.1922C2.04844 15.4547 1.78125 15.6969 1.78125 15.6969C1.78125 15.6969 2.07813 16.1219 2.44375 16.2735C2.81094 16.4251 2.95 15.7797 2.90312 15.2376C2.87969 14.9641 2.82188 14.7954 2.71094 14.7079C2.64375 14.6547 2.49062 14.661 2.49062 14.661V14.661ZM6.45781 16.0766C6.57344 16.2782 6.69531 16.561 6.67812 16.836C6.65469 17.2376 6.39375 17.5047 6.39375 17.5047C6.39375 17.5047 6.70937 17.6001 7.1875 17.5797C7.5125 17.5657 7.70937 17.4922 7.76094 17.4001C7.81406 17.3063 7.70781 16.8126 7.45781 16.4172C7.20781 16.0219 6.99844 15.9844 6.87656 15.9454C6.69844 15.8907 6.45781 16.0766 6.45781 16.0766ZM9.43125 15.936C9.08281 15.9251 8.73281 15.8204 8.73281 15.8204C8.73281 15.8204 8.65781 16.0469 8.63437 16.3844C8.61094 16.7094 8.59375 16.9829 8.72812 17.0297C8.8625 17.0766 9.23437 17.0001 9.6125 16.7454C9.80937 16.6126 9.99062 16.3266 10.025 16.2516C10.0594 16.1766 10.0594 15.9266 10.0594 15.9266C10.0594 15.9266 9.71094 15.9454 9.43125 15.936V15.936ZM9.39531 17.5985C9.30781 17.6391 9.1625 17.9063 9.04687 18.0876C8.93125 18.2672 8.79219 18.5266 8.80312 18.611C8.82031 18.7501 9.0125 18.8376 9.56562 18.8266C10.1187 18.8157 10.4609 18.6407 10.5016 18.6172C10.5422 18.5938 10.6062 18.4891 10.6062 18.4891C10.6062 18.4891 10.4031 18.2157 10.0359 17.9422C9.66875 17.6688 9.39531 17.5985 9.39531 17.5985V17.5985Z" fill="#6B4733"/>
<path d="M6.21729 13.0906C6.21729 13.0906 6.02354 12.9078 5.91104 12.7297C5.74854 12.4734 5.69073 12.2984 5.64386 11.9031C5.61104 11.6281 5.79542 11.1141 5.41729 11.0734C5.13292 11.0422 4.98604 11.2094 5.01573 11.7172C5.03917 12.1344 5.28292 12.625 5.32979 12.6828C5.37667 12.7406 5.47198 12.8344 5.71886 12.95C5.96573 13.0656 6.21729 13.0906 6.21729 13.0906V13.0906Z" fill="#B3875D"/>
<defs>
<linearGradient id="paint0_linear_4359_2558" x1="3.72802" y1="11.0596" x2="3.11177" y2="15.9896" gradientUnits="userSpaceOnUse">
<stop offset="0.306" stop-color="#B3875D"/>
<stop offset="0.567" stop-color="#A87C5B"/>
<stop offset="0.926" stop-color="#916656"/>
</linearGradient>
<linearGradient id="paint1_linear_4359_2558" x1="11.9373" y1="9.15424" x2="11.291" y2="16.2641" gradientUnits="userSpaceOnUse">
<stop offset="0.476" stop-color="#B3875D"/>
<stop offset="0.735" stop-color="#A4785A"/>
<stop offset="0.985" stop-color="#916656"/>
</linearGradient>
<linearGradient id="paint2_linear_4359_2558" x1="6.453" y1="17.5175" x2="7.18722" y2="11.0142" gradientUnits="userSpaceOnUse">
<stop stop-color="#865B52"/>
<stop offset="0.545" stop-color="#FEAF5F"/>
</linearGradient>
<linearGradient id="paint3_linear_4359_2558" x1="9.69638" y1="18.5024" x2="15.1073" y2="10.7749" gradientUnits="userSpaceOnUse">
<stop stop-color="#865B52"/>
<stop offset="0.136" stop-color="#9F6C55"/>
<stop offset="0.421" stop-color="#DD985B"/>
<stop offset="0.56" stop-color="#FEAF5F"/>
</linearGradient>
<radialGradient id="paint4_radial_4359_2558" cx="0" cy="0" r="1" gradientUnits="userSpaceOnUse" gradientTransform="translate(-0.0182746 11.0274) scale(8.07203)">
<stop offset="0.226" stop-color="#865B52"/>
<stop offset="0.285" stop-color="#895D52"/>
<stop offset="0.336" stop-color="#946554"/>
<stop offset="0.385" stop-color="#A67255"/>
<stop offset="0.432" stop-color="#C08358"/>
<stop offset="0.477" stop-color="#E09A5C"/>
<stop offset="0.512" stop-color="#FEAF5F"/>
</radialGradient>
</defs>
</svg>
