<svg width="20" height="20" viewBox="0 0 20 20" fill="none" xmlns="http://www.w3.org/2000/svg">
<path d="M8.73135 5.06404C8.73135 5.06404 2.71885 6.73591 2.2501 7.38122C1.78135 8.02654 0.973535 9.22185 0.900097 11.7812C0.840722 13.8343 1.98603 19.114 7.61572 19.289C13.3642 19.4687 15.5048 15.6812 16.5313 13.3359C17.4563 11.2203 17.4407 8.7906 18.0267 7.67497C18.6126 6.55935 19.1407 5.59216 19.1126 4.33122C19.0845 3.07029 18.6142 1.98435 17.7923 1.45622C16.9704 0.928099 16.2673 1.0156 15.9157 0.928099C15.5642 0.840599 8.73135 5.06404 8.73135 5.06404Z" fill="#757E40"/>
<path d="M9.78598 2.95294C7.29223 3.97951 3.97817 4.94669 2.39535 7.17638C0.965667 9.18888 0.489104 11.692 2.42504 14.6248C4.19223 17.3029 8.90317 18.4451 12.4266 15.9154C15.6532 13.5983 15.9454 10.1967 16.9141 7.93732C17.8829 5.67794 19.9204 2.70919 17.4719 1.24982C14.861 -0.303307 11.7563 2.14201 9.78598 2.95294V2.95294Z" fill="#AFB42A"/>
<path d="M16.9141 1.89668C15.7282 1.21231 14.2157 1.51543 12.5438 2.33731C10.8719 3.15918 9.58131 3.77481 8.99537 3.97949C8.40787 4.18418 3.41725 6.01231 2.45475 8.43731C1.66256 10.4311 1.86881 13.042 3.95006 14.9482C6.03131 16.8545 11.2829 16.7373 13.3063 13.8623C15.3297 10.9873 15.4172 8.67168 15.8579 7.64512C16.2985 6.61856 17.2579 5.11543 17.5297 4.30137C17.8516 3.33418 17.6766 2.33731 16.9141 1.89668Z" fill="#FFF69D"/>
<path d="M11.1642 7.4689C10.2251 6.35484 6.64701 6.7064 5.41576 8.46577C4.18451 10.2251 4.69701 11.6548 5.29857 12.4251C6.03138 13.3642 8.0267 14.2142 9.84388 12.9533C11.6611 11.6923 12.1939 8.69077 11.1642 7.4689V7.4689Z" fill="#855C52"/>
<path d="M7.39346 9.472C6.93096 10.1501 7.16221 11.2439 6.3669 11.2954C5.57158 11.347 5.10908 10.0704 5.67315 9.00169C6.28252 7.84856 7.72627 7.3345 8.13721 7.88137C8.54971 8.42981 7.83252 8.82825 7.39346 9.472V9.472Z" fill="#D67659"/>
</svg>
