<svg width="20" height="20" viewBox="0 0 20 20" fill="none" xmlns="http://www.w3.org/2000/svg">
<path d="M11.2576 8.0813L9.63574 9.16724C9.63574 9.16724 10.9248 10.6657 11.2967 12.7297C11.5373 14.061 11.7264 15.2485 11.5686 16.3766C11.5045 16.8375 11.0592 17.7672 10.9311 18.0797C10.8029 18.3922 10.6186 19.1282 11.1889 19.275C11.7592 19.4219 13.617 19.4782 13.8936 19.4407C14.1701 19.4032 14.4967 19.2032 14.3482 18.536C14.2561 18.1219 14.0998 16.8266 14.0076 15.9438C13.9154 15.061 13.8592 13.361 13.0904 11.2735C12.342 9.24224 11.2576 8.0813 11.2576 8.0813V8.0813Z" fill="#DC8124"/>
<path d="M12.7502 17.0407C13.5877 17.0891 14.1189 16.9282 14.1189 16.9282L14.233 17.7766C14.233 17.7766 13.7205 17.9219 12.7564 17.861C11.9143 17.8079 11.1533 17.5782 11.1533 17.5782L11.4674 16.7766C11.4658 16.775 11.9064 16.9922 12.7502 17.0407V17.0407ZM11.5939 14.7391C11.5939 14.7391 11.6096 14.975 11.6174 15.1235C11.6252 15.2735 11.6283 15.5047 11.6283 15.5047C11.6283 15.5047 12.2611 15.5782 12.7611 15.5579C13.5799 15.525 13.9486 15.3297 13.9486 15.3297C13.9486 15.3297 13.9346 15.1469 13.9111 14.9313C13.8893 14.7141 13.8627 14.536 13.8627 14.536C13.8627 14.536 13.4611 14.7344 12.6174 14.7891C12.0158 14.8282 11.5939 14.7391 11.5939 14.7391V14.7391ZM11.2705 12.5891C11.2705 12.5891 11.6549 12.6672 12.3705 12.5125C13.0658 12.361 13.3643 12.0969 13.3643 12.0969C13.3643 12.0969 13.4299 12.3 13.4689 12.4563C13.5049 12.6016 13.5611 12.8141 13.5611 12.8141C13.5611 12.8141 13.2799 13.0907 12.5174 13.2407C11.7689 13.3891 11.3971 13.2875 11.3971 13.2875C11.3971 13.2875 11.3611 13.0875 11.3361 12.9391C11.3064 12.7704 11.2705 12.5891 11.2705 12.5891V12.5891Z" fill="#C0711F"/>
<path d="M10.8748 11.2688C10.8748 11.2688 11.2295 11.2922 11.9186 11.0329C12.5201 10.8063 12.7779 10.5032 12.7779 10.5032L11.9311 8.6438L9.90137 9.3813L10.8748 11.2688Z" fill="#A2672B"/>
<path d="M10.8391 8.98435C10.8391 8.98435 12.4078 9.48591 13.1 9.71716C13.7922 9.94841 14.3438 10.064 14.3438 10.064C14.3438 10.064 14.5609 9.63279 14.6375 9.26091C14.6891 9.01404 14.6781 8.62654 14.7844 8.63435C14.9594 8.64685 15.0859 8.94373 15.0938 9.34685C15.1 9.69373 15.0094 10.2094 15.0094 10.2094L15.7422 10.4094C15.7422 10.4094 15.9313 10.1375 16.0375 9.70466C16.1484 9.25154 16.0922 9.07966 16.2031 9.04841C16.3266 9.01404 16.5594 9.17498 16.5156 9.8906C16.4891 10.3265 16.4156 10.575 16.4375 10.5922C16.4734 10.6203 16.8266 10.7515 17.1469 10.8422C17.4672 10.9312 17.7953 10.989 17.7953 10.989C17.7953 10.989 18.375 8.37654 16.7563 7.32185C14.7313 6.00154 12.1281 7.18123 12.1281 7.18123L14.0359 5.67498C14.0359 5.67498 13.8984 5.33435 13.7313 5.07498C13.5406 4.7781 13.2859 4.58904 13.3344 4.52185C13.4 4.4281 13.7938 4.4281 14.1297 4.7406C14.4125 5.00466 14.6266 5.2781 14.6359 5.28591L15.1969 4.88123C15.1969 4.88123 15.1422 4.51404 14.9938 4.28123C14.85 4.05466 14.6313 3.84373 14.6859 3.81248C14.8016 3.74685 15.1609 3.86091 15.3875 4.08123C15.5828 4.27185 15.7406 4.56716 15.7406 4.56716L16.8813 3.78591C16.8813 3.78591 16.0484 2.4656 14.2922 2.52966C12.5359 2.59373 11.5875 3.72185 11.2922 4.05466C10.9969 4.38748 10.6641 5.10623 10.6641 5.10623L10.6969 3.11404C10.6969 3.11404 10.4234 3.05154 10.1609 3.02029C9.76563 2.97341 9.49063 3.05466 9.48438 3.0156C9.46407 2.87654 9.71095 2.67341 10.1 2.5906C10.4813 2.51091 10.7891 2.55779 10.7891 2.55779L11.1109 0.695289C11.1109 0.695289 10.3938 0.637477 9.59376 1.01716C9.07657 1.26248 8.47657 1.68748 8.07813 2.37654C7.19532 3.89998 8.04688 5.5406 8.04688 5.5406C8.04688 5.5406 6.80001 4.24373 4.72657 4.73279C2.45313 5.26873 1.8797 7.76404 2.00782 7.76404C2.3547 7.76404 3.62032 7.82341 3.68438 7.77185C3.7172 7.74685 3.8047 7.39529 4.01251 7.0781C4.21876 6.76091 4.49532 6.49373 4.72188 6.49373C4.83907 6.49373 4.68126 6.72966 4.5422 7.07029C4.40157 7.41716 4.32345 7.8031 4.32345 7.8031H5.45157C5.45157 7.8031 5.68907 6.66091 6.08595 6.57966C6.25626 6.54529 6.14063 6.91248 6.09845 7.19373C6.0547 7.48435 6.0297 7.80466 6.0297 7.80466L7.45782 7.84998C7.45782 7.84998 5.62188 7.96091 4.34845 9.12341C3.03126 10.3234 2.89376 11.9922 3.00938 12.825C3.12501 13.6578 3.24063 14.0422 3.3172 14.0812C3.39376 14.1203 4.45782 12.9406 4.49688 12.85C4.53595 12.7609 4.3297 12.375 4.3297 11.8625C4.3297 11.35 4.44532 11.0937 4.54688 11.0812C4.65001 11.0687 4.62345 11.4406 4.70001 11.7609C4.78126 12.0969 4.9047 12.3765 4.95626 12.4015C5.00782 12.4265 5.63282 11.6344 5.63282 11.6344C5.63282 11.6344 5.52657 11.3344 5.4922 11.0422C5.45782 10.75 5.48751 10.4344 5.57188 10.3765C5.66407 10.3125 5.7422 10.6469 5.85157 10.9328C5.93907 11.1609 5.98126 11.239 6.03126 11.3L7.16251 10.2234C7.16251 10.2234 6.25001 11.6812 6.36876 13.1328C6.50001 14.7562 7.62501 15.364 7.68907 15.35C7.75313 15.3375 8.50938 13.6062 8.50938 13.6062C8.50938 13.6062 8.2422 13.3609 8.04376 12.9906C7.79376 12.5234 7.80001 12.1656 7.89376 12.1062C8.02501 12.0234 8.21407 12.5422 8.40626 12.7734C8.59845 13.0047 8.71407 13.1328 8.75313 13.1328C8.7922 13.1328 9.35001 11.914 9.35001 11.914C9.35001 11.914 9.18751 11.8187 9.06563 11.6297C8.96251 11.4703 8.87032 11.1953 8.95782 11.0297C9.05157 10.9422 9.14688 11.1687 9.2922 11.2875C9.43751 11.4062 9.54845 11.4656 9.54845 11.4656C9.54845 11.4656 10.1375 10.4531 10.3688 9.9781C10.6016 9.49841 10.8391 8.98435 10.8391 8.98435V8.98435Z" fill="#728137"/>
<path d="M11.2093 9.66252C11.2812 9.61565 11.4265 8.64221 11.4953 8.15627C11.5578 7.71877 11.7109 7.06408 11.3781 7.00002C11.1499 6.95627 11.0546 7.27971 10.9796 7.62658C10.914 7.93596 10.8171 8.35627 10.8171 8.35627C10.8171 8.35627 10.5218 7.78908 10.3234 7.44377C10.1796 7.19377 9.87026 6.66721 9.62338 6.82502C9.34057 7.00627 9.64682 7.58596 9.82026 7.90627C9.9937 8.22658 10.189 8.60002 10.189 8.60002C10.189 8.60002 9.66713 8.4219 9.36245 8.32815C9.02807 8.22502 8.58276 8.1344 8.52026 8.31408C8.41088 8.62658 8.82338 8.78283 9.62338 9.1094C10.4187 9.43283 11.0874 9.74221 11.2093 9.66252V9.66252ZM8.14526 3.6219C8.10932 4.2594 8.22182 5.18752 8.67495 5.0844C9.06713 4.9969 8.61245 4.39533 8.61713 3.6344C8.62338 2.56721 9.31401 2.31252 9.09682 2.08283C8.92026 1.89533 8.20307 2.58596 8.14526 3.6219V3.6219ZM5.5062 5.34533C5.93588 5.24846 6.2062 5.26252 6.21557 5.1594C6.22651 5.02658 6.09526 4.93283 5.53901 4.96096C5.02807 4.98596 4.51245 5.12033 4.01245 5.4594C3.73059 5.65042 3.47388 5.87615 3.24838 6.13127C2.77026 6.68127 2.69838 7.14533 2.98432 7.20314C3.27963 7.26252 3.41713 6.92971 3.64057 6.57502C4.17807 5.71721 4.99526 5.46096 5.5062 5.34533ZM3.66713 13.2031C3.91088 13.1938 3.90307 12.961 3.90932 12.3594C3.91401 11.9672 3.89682 11.4578 4.06245 10.9547C4.28588 10.2781 4.6312 9.84846 5.02651 9.48596C5.46088 9.08752 5.9187 8.84846 6.17651 8.73283C6.6687 8.5094 6.43901 8.31096 6.11245 8.45158C5.78745 8.59221 4.6812 8.99377 3.95932 10.0938C3.48901 10.8094 3.37182 11.375 3.35151 12.1297C3.33745 12.6985 3.50151 13.2094 3.66713 13.2031V13.2031ZM7.39838 10.8906C7.19995 10.8906 6.83588 11.8297 6.86245 12.775C6.88745 13.7203 7.19838 14.325 7.47495 14.436C7.69838 14.525 7.85776 14.2891 7.77495 13.925C7.72026 13.6875 7.42338 13.3047 7.36557 12.686C7.30776 12.0656 7.41713 11.3891 7.44838 11.2235C7.4812 11.0563 7.5312 10.8906 7.39838 10.8906V10.8906Z" fill="#BDCF47"/>
</svg>
