<svg width="20" height="20" viewBox="0 0 20 20" fill="none" xmlns="http://www.w3.org/2000/svg">
<path d="M9.9375 19.5002C6.06094 19.5002 1.875 17.0689 1.875 11.733C1.875 6.39707 6.06094 3.96582 9.9375 3.96582C12.0906 3.96582 14.0781 4.67363 15.5516 5.96582C17.1484 7.38457 17.9969 9.38457 17.9969 11.733C17.9969 14.0814 17.1484 16.0689 15.5516 17.4861C14.0781 18.7783 12.0766 19.5002 9.9375 19.5002Z" fill="url(#paint0_radial_4359_2694)"/>
<path d="M16.5921 7.1156C17.3546 8.38123 17.7453 9.83748 17.7187 11.3156C17.7187 13.6594 16.8703 15.6515 15.2734 17.0687C13.8 18.3609 11.8 19.0828 9.65933 19.0828C7.14995 19.0828 4.51401 18.0625 2.96558 15.8953C4.46089 18.35 7.27183 19.5 9.93745 19.5C12.0765 19.5 14.0781 18.7781 15.5515 17.4859C17.1484 16.0672 17.9968 14.0812 17.9968 11.7328C17.9968 9.96247 17.514 8.38904 16.5921 7.1156V7.1156Z" fill="#EB8F00"/>
<path d="M5.35156 5.22955C2.17187 3.96861 0 2.11705 0 3.56236C0 6.44048 0.754688 8.74986 1.96875 10.517C2.29844 8.02642 3.62344 6.28423 5.35156 5.22955ZM17.9234 10.6717C19.2 8.89361 20 6.52486 20 3.56236C20 2.04673 17.7859 3.9733 14.5563 5.25142C14.9047 5.46861 15.2344 5.71236 15.5438 5.98267C16.8906 7.17798 17.7016 8.78892 17.9234 10.6717Z" fill="#4A251A"/>
<path d="M14.7187 3.00012C14.0156 1.4845 12.7969 0.0157486 11.6719 0.0313736C10.4531 0.0469986 10.6719 0.562624 10 0.562624C9.29687 0.562624 9.5625 0.0313736 8.42188 0.0313736C7.28125 0.0313736 6.01563 1.45325 5.26562 3.00012C6.81563 3.37512 8.40625 3.55325 10 3.53137C12.1406 3.53137 13.6875 3.28137 14.7187 3.00012Z" fill="#826156"/>
<path d="M15.0718 3.90625C14.9718 3.59687 14.8546 3.29531 14.7187 3C13.6875 3.28125 12.1406 3.53125 9.99995 3.53125C8.4062 3.55312 6.81558 3.375 5.26558 3C5.12651 3.29687 5.0062 3.60312 4.90308 3.91406C6.58901 4.19375 8.29214 4.34687 9.99995 4.375C11.7 4.34687 13.3953 4.19062 15.0718 3.90625V3.90625Z" fill="#A1887F"/>
<path d="M15.0719 3.90625C13.3955 4.19039 11.7 4.34709 10 4.375C8.29219 4.34687 6.58906 4.19375 4.90312 3.91406C2.43437 3.53125 0.46875 3.04688 0.46875 3.04688C0.46875 3.04688 3.17187 8.40625 10 8.40625C16.8281 8.40625 19.3906 3.04688 19.3906 3.04688C19.3906 3.04688 17.4891 3.52812 15.0719 3.90625Z" fill="#7A5549"/>
<path d="M12.8594 8.96875C13.4063 8.96875 13.9062 9.60938 13.9062 10.6719C13.9062 11.7344 13.4063 12.375 12.8594 12.375C12.3125 12.375 11.8125 11.7344 11.8125 10.6719C11.8125 9.60938 12.3125 8.96875 12.8594 8.96875ZM7.14063 8.96875C6.59375 8.96875 6.09375 9.60938 6.09375 10.6719C6.09375 11.7344 6.59375 12.375 7.14063 12.375C7.6875 12.375 8.1875 11.7344 8.1875 10.6719C8.1875 9.60938 7.6875 8.96875 7.14063 8.96875Z" fill="#422B0D"/>
<path d="M7.04843 9.57952C7.00094 9.55762 6.94959 9.5453 6.89733 9.54327C6.84507 9.54124 6.79292 9.54953 6.74387 9.56767C6.69482 9.58581 6.64982 9.61344 6.61146 9.64899C6.5731 9.68454 6.54213 9.7273 6.52031 9.77484C6.45 9.92796 6.48281 10.1076 6.60156 10.2248C6.68665 10.2636 6.78268 10.2713 6.87286 10.2465C6.96303 10.2217 7.04161 10.1659 7.09486 10.0891C7.14811 10.0122 7.17263 9.91901 7.16414 9.82586C7.15566 9.73272 7.1147 9.64553 7.04843 9.57952V9.57952ZM12.8125 9.57952C12.765 9.55762 12.7137 9.5453 12.6614 9.54327C12.6091 9.54124 12.557 9.54953 12.5079 9.56767C12.4589 9.58581 12.4139 9.61344 12.3755 9.64899C12.3372 9.68454 12.3062 9.7273 12.2844 9.77484C12.2141 9.92796 12.2469 10.1076 12.3656 10.2248C12.4507 10.2636 12.5467 10.2713 12.6369 10.2465C12.7271 10.2217 12.8057 10.1659 12.8589 10.0891C12.9122 10.0122 12.9367 9.91901 12.9282 9.82586C12.9197 9.73272 12.8788 9.64553 12.8125 9.57952Z" fill="#896024"/>
<path d="M14.9327 13.8719C14.844 13.7139 14.7016 13.5928 14.5313 13.5309C14.361 13.469 14.1741 13.4702 14.0046 13.5344C12.6707 13.9232 11.2877 14.1174 9.89832 14.111C8.50769 14.1173 7.12488 13.9235 5.79051 13.5344C5.44051 13.4032 5.04676 13.5454 4.86394 13.8719C4.68738 14.2001 4.81551 14.5782 4.96394 14.9048C5.79988 16.7376 7.63894 17.8329 9.88738 17.8407H9.90769C12.1577 17.8329 13.9968 16.7376 14.8311 14.9048C14.9796 14.5782 15.1093 14.2001 14.9327 13.8719V13.8719Z" fill="#422B0D"/>
<path d="M11.9782 17.3201C11.9297 17.2764 11.8813 17.2358 11.8313 17.1936C11.3 16.728 10.6141 16.4764 9.90786 16.4905C9.17817 16.4748 8.46724 16.7155 7.89692 17.1701C7.84692 17.2092 7.79536 17.2483 7.74067 17.292C7.68599 17.3358 7.66724 17.3795 7.63599 17.4217C8.35136 17.7015 9.11317 17.8436 9.8813 17.8405H9.90161C10.6375 17.842 11.3672 17.7123 12.0563 17.4561C12.0329 17.4092 12.0063 17.3639 11.9782 17.3201Z" fill="#ED7770"/>
<path d="M14.0047 13.5344C12.6708 13.9232 11.2878 14.1174 9.89844 14.1109C8.50781 14.1172 7.125 13.9234 5.79063 13.5344C5.44063 13.4031 5.04687 13.5453 4.86406 13.8719C4.8375 13.9219 4.81875 13.9734 4.80469 14.0281C4.84844 14.05 4.89688 14.0719 4.96094 14.0953C6.52344 14.8781 8.25156 15.2766 10 15.2563C11.6781 15.275 13.3375 14.9094 14.8531 14.1891C14.9141 14.1641 14.9641 14.1391 15.0094 14.1156C14.9989 14.0304 14.973 13.9478 14.9328 13.8719C14.8442 13.7138 14.7017 13.5928 14.5314 13.5309C14.3611 13.4689 14.1742 13.4702 14.0047 13.5344Z" fill="white"/>
<path d="M14.9376 13.8734C14.8472 13.7146 14.7032 13.5931 14.5314 13.531C14.3595 13.4688 14.1711 13.47 14.0001 13.5344C12.6662 13.9231 11.2832 14.1173 9.89383 14.1109C8.50446 14.1173 7.12145 13.9231 5.78758 13.5344C5.43758 13.4031 5.04383 13.5453 4.86101 13.8719C4.68445 14.2 4.81258 14.5781 4.96101 14.9047C5.0282 15.0515 5.1032 15.1953 5.18289 15.3344C5.18289 15.3344 4.90633 14.3203 5.14695 14.0265C5.2282 13.9031 5.36258 13.825 5.51101 13.8156C5.57195 13.8156 5.63289 13.8265 5.6907 13.8453C7.05008 14.2406 8.45945 14.4406 9.87508 14.4359H9.92039C11.3345 14.4406 12.7423 14.2406 14.1001 13.8453C14.1579 13.8265 14.2188 13.8156 14.2798 13.8156C14.4282 13.8234 14.5641 13.9015 14.6454 14.0265C14.8845 14.3203 14.6095 15.3359 14.6095 15.3359C14.6891 15.1969 14.7657 15.0531 14.8376 14.9062C14.986 14.5797 15.1141 14.2015 14.9376 13.8734V13.8734Z" fill="#EB8F00"/>
<defs>
<radialGradient id="paint0_radial_4359_2694" cx="0" cy="0" r="1" gradientUnits="userSpaceOnUse" gradientTransform="translate(9.93594 11.733) scale(7.91547)">
<stop offset="0.5" stop-color="#FDE030"/>
<stop offset="0.92" stop-color="#F7C02B"/>
<stop offset="1" stop-color="#F4A223"/>
</radialGradient>
</defs>
</svg>
