<svg width="20" height="20" viewBox="0 0 20 20" fill="none" xmlns="http://www.w3.org/2000/svg">
<path d="M4.21248 6.16403C4.0953 5.27653 3.89686 3.71246 4.02811 2.85153C4.15936 1.99059 4.50311 1.19684 5.2203 0.882777C5.84061 0.612465 6.61405 0.898402 7.06092 1.56715C7.31561 1.9484 7.46092 2.41871 7.58436 2.88434C7.7953 3.68434 7.99686 4.77809 8.09842 5.60153" stroke="#00796B" stroke-width="0.46875" stroke-miterlimit="10"/>
<path d="M4.79853 18.225L1.02197 16.6516L1.89854 12.786L1.71104 3.97661L11.2673 2.85474V3.68911L13.5407 3.97661L4.79853 18.225Z" fill="#26A69A"/>
<path d="M14.3516 16.7875L4.79688 18.2344L3.98438 13.175V5.42188L13.5406 3.97656V11.7281L14.3516 16.7875Z" fill="#61DE9F"/>
<path d="M3.98438 5.42188V4.55L1.71094 3.97656L11.2859 2.91406L11.5922 3.59219L13.5406 3.97656L3.98438 5.42188Z" fill="#263238"/>
<path d="M1.02197 16.6516C1.0876 16.6516 3.28447 14.9094 3.28447 14.9094L4.79697 18.2344L4.47197 12.9328L3.97979 5.42188L3.34072 13.5391L1.02197 16.6516V16.6516Z" fill="#00796B"/>
<path d="M11.2577 3.01409L11.489 3.54846L11.5187 3.61877L11.5921 3.63752L12.7562 3.93596L4.14053 5.24065V4.42815L4.02178 4.39846L2.57178 4.03284L11.2577 3.01409V3.01409ZM11.3562 2.84534L1.7124 3.97659L3.98584 4.55002V5.42346L13.5405 3.97659L11.6327 3.48596L11.3562 2.84534V2.84534Z" fill="#26A69A"/>
<path d="M6.86736 6.00782C6.75017 5.12189 5.52986 1.71876 7.8658 1.28439C9.63142 0.956262 10.4111 4.7172 10.5142 5.5422" stroke="#61DE9F" stroke-width="0.46875" stroke-miterlimit="10"/>
<path d="M7.15791 6.25474C7.02197 5.79692 6.87979 4.87192 6.87354 4.8313L7.33604 4.76099C7.3376 4.77036 7.50322 5.71411 7.68447 6.1563L7.15791 6.25474V6.25474ZM10.8017 5.70005C10.6657 5.24224 10.5235 4.31724 10.5173 4.27661L10.9798 4.2063C10.9813 4.21567 11.1735 5.17505 11.3345 5.60317L10.8017 5.70005ZM7.31885 17.8532L8.63135 15.5797L8.00478 9.5188L13.2501 8.49849L10.4376 17.3875L7.31885 17.8532Z" fill="#26A69A"/>
<path d="M11.4171 8.91409C11.4171 8.91409 10.8265 5.77815 12.7937 5.98596C13.864 6.09846 13.8202 8.58753 13.8202 8.58753" stroke="#D7578A" stroke-width="0.46875" stroke-miterlimit="10"/>
<path d="M11.6345 19.3734L8.73291 18.1594L9.40791 15.1875L9.26416 8.4156L16.6079 7.5531V8.19529L18.3548 8.4156L11.6345 19.3734Z" fill="#D7578A"/>
<path d="M18.9779 18.2625L11.6342 19.375L11.0107 15.486V9.52815L18.3545 8.41565V14.375L18.9779 18.2625Z" fill="#FF9F9F"/>
<path d="M11.011 9.5281L10.4235 9.0781L9.26416 8.4156L16.6079 7.5531L17.2751 7.97341L18.3548 8.4156L11.011 9.5281Z" fill="#263238"/>
<path d="M16.5798 7.71404L17.8376 8.33435L11.0438 9.36248L9.71728 8.51873L16.5798 7.71404V7.71404ZM16.6079 7.5531L9.26416 8.4156L11.011 9.5281L18.3548 8.4156L16.6079 7.5531V7.5531Z" fill="#D7578A"/>
<path d="M13.4936 10.1266C13.3889 9.77656 13.2811 9.06563 13.2764 9.03594L13.6889 8.98281C13.6904 8.99063 13.7951 9.70625 13.892 10.0359L13.4936 10.1266V10.1266ZM16.2889 9.69688C16.1842 9.34688 16.0764 8.63594 16.0717 8.60625L16.4795 8.55469C16.4811 8.5625 16.5654 9.3 16.6623 9.62969L16.2889 9.69688Z" fill="#D7578A"/>
<path d="M13.2626 10.1421C13.1719 9.46088 12.2438 6.58901 13.9938 6.34682C15.361 6.15776 15.9501 8.98588 16.0297 9.6187" stroke="#FF9F9F" stroke-width="0.46875" stroke-miterlimit="10"/>
<path d="M8.73291 18.1594L10.2157 16.9031L11.6345 19.375L11.0142 15.5094L11.0204 9.54685L10.8454 9.47498L10.2923 15.5359L8.73291 18.1594Z" fill="#AB2C5E"/>
</svg>
