<svg width="20" height="20" viewBox="0 0 20 20" fill="none" xmlns="http://www.w3.org/2000/svg">
<path d="M11.8094 10.0799C11.8094 10.0799 12.9828 10.4908 13.1578 9.8752C13.3344 9.25957 13.0703 7.29395 13.1281 6.61895C13.1859 5.94395 13.1875 4.77051 14.6828 4.77051C16.1781 4.77051 16.3547 5.97363 16.3844 6.97051C16.414 7.96738 16.6422 10.2314 15.4578 11.7033C14.7797 12.5471 13.5109 13.0111 12.5125 13.1299C11.5156 13.2471 10.489 14.6502 10.489 14.6502L8.11248 15.6236C8.11248 15.6236 6.45623 15.6002 5.0328 14.3924C3.49998 13.0924 3.6453 10.6877 3.49998 9.2502C3.35467 7.8127 2.89217 5.76895 5.12186 5.59395C7.35155 5.41582 6.8828 8.64238 6.76561 9.3752C6.64842 10.108 6.58905 12.1314 7.29373 12.4549C7.99686 12.7768 9.61092 12.0736 9.61092 12.0736L11.8094 10.0799Z" fill="#8BC029"/>
<path d="M14.3766 5.54858C14.2203 5.39233 14.0094 6.13452 14.025 6.5892C14.0391 7.04389 14.2297 9.84546 13.7313 10.2986C13.2328 10.7533 12.925 10.8111 12.1188 10.8111C11.3125 10.8111 8.46719 13.5986 8.14375 13.5986C7.82032 13.5986 7.13125 13.5845 6.69219 13.1298C6.25157 12.6751 6.00313 11.9861 5.98907 10.8283C5.975 9.67046 5.92969 7.85171 5.91563 7.55796C5.90157 7.26421 5.82813 6.56108 5.57813 6.51733C5.32813 6.47358 5.51875 7.01577 5.51875 7.32358C5.51875 7.63139 5.55625 10.6798 5.5625 11.033C5.57656 11.7517 5.87032 12.9986 6.38438 13.3939C6.89688 13.7892 7.51407 13.9955 8.07032 13.9517C8.62813 13.908 11.7359 11.1955 12.1031 11.1798C12.4703 11.1658 13.4688 11.2611 14.0531 10.5205C14.6547 9.75796 14.4641 7.70483 14.4484 7.13296C14.4344 6.55952 14.4344 5.60639 14.3766 5.54858V5.54858Z" fill="#59951B"/>
<path d="M4.90318 6.64846C4.91412 6.39846 4.43443 6.97034 4.41881 7.83596C4.40631 8.54065 4.53599 11.2063 4.65318 11.8688C4.78443 12.6172 5.15474 13.5657 5.90006 14.2157C6.47193 14.7141 7.29381 14.875 7.95318 14.875C8.61256 14.875 9.82974 14.4641 10.5344 13.8047C11.2391 13.1453 11.7376 12.2938 12.1626 12.3094C12.5876 12.3235 13.9376 12.2797 14.6563 11.4297C15.3751 10.5797 15.6829 8.9219 15.6235 7.54377C15.5688 6.26565 15.5188 5.50159 15.2563 5.55003C15.0954 5.57971 15.2266 6.42971 15.2563 7.10471C15.286 7.77971 15.2563 9.27503 14.9922 10.0516C14.7282 10.8282 14.1704 11.7235 13.0563 11.9C11.9422 12.0766 11.7079 11.9141 11.7079 11.9141C11.7079 11.9141 10.7985 13.2032 10.0938 13.7016C9.38912 14.2 8.27506 14.4782 7.95318 14.4938C7.63131 14.5078 6.66256 14.2891 6.19381 13.9078C5.71099 13.5157 5.16568 12.8235 5.03599 11.9578C4.91568 11.1578 4.80162 8.9594 4.77193 8.11565C4.75006 7.51409 4.88912 6.97034 4.90318 6.64846V6.64846Z" fill="#59951B"/>
<path d="M10.0937 1.20784C8.70309 1.12346 7.36559 2.49846 7.45465 4.69846C7.54371 6.89846 7.7484 7.1469 7.76247 9.50784C7.77653 11.8688 7.95309 15.0063 7.98278 15.975C8.01247 16.9438 7.96872 18.3953 8.90622 18.9813C9.84528 19.5672 11.2812 19.275 11.7515 18.6594C12.2203 18.0438 12.1765 17.0172 12.1625 15.7563C12.1484 14.4953 12.1328 12.3391 12.089 11.5922C12.0453 10.8453 12.4406 5.37502 12.4703 4.61252C12.4984 3.88909 12.5281 1.35471 10.0937 1.20784V1.20784Z" fill="#8BC029"/>
<path d="M9.36099 1.85315C9.13287 1.85315 8.46568 2.79221 8.42193 3.74534C8.37818 4.69846 8.33443 6.82502 8.39224 8.04221C8.45006 9.2594 8.58599 12.6594 8.62662 13.761L8.75787 17.325C8.77193 17.7063 8.92506 18.9156 9.25631 18.7922C9.37349 18.7485 9.22662 16.9594 9.15318 15.2438C9.08287 13.6031 8.91881 9.68596 8.88912 8.3219C8.85943 6.95784 8.75787 4.62659 8.87506 3.86409C8.99224 3.10159 9.12506 2.66096 9.24224 2.42659C9.36099 2.19065 9.58131 1.85315 9.36099 1.85315V1.85315ZM11.2094 18.7313C11.4719 18.636 11.6204 18.1594 11.6204 17.3828C11.6204 16.6063 11.5907 13.5547 11.5907 12.1031C11.5907 10.6516 11.7219 7.68909 11.7219 6.53127C11.7219 5.37346 11.7219 3.74534 11.5907 3.12971C11.4735 2.58596 11.1219 1.92659 10.8422 1.91252C10.5641 1.89846 11.1501 2.60159 11.1938 3.45159C11.261 4.7469 11.2376 6.45784 11.2079 9.12659C11.1782 11.7953 11.2672 13.8922 11.2516 15.1985C11.2376 16.5031 11.2751 17.1047 11.2516 17.9266C11.2376 18.4391 11.0469 18.7906 11.2094 18.7313V18.7313ZM10.0797 1.92659C9.85943 1.91565 9.71256 3.29065 9.74224 4.11096C9.77193 4.93284 9.85943 8.72971 9.88912 9.40471C9.91881 10.0797 9.99224 14.9766 9.99224 16.0485C9.99224 17.1188 10.036 18.1016 10.0516 18.4094C10.0657 18.7172 10.0376 18.9219 10.2719 18.9375C10.5063 18.9516 10.4626 18.6297 10.4626 18.3797C10.4626 18.1297 10.4485 16.8688 10.4485 16.0328C10.4485 15.1969 10.3751 10.6656 10.361 9.33127C10.3469 7.9969 10.3469 5.19534 10.3469 4.06721C10.3469 2.93909 10.3579 1.94065 10.0797 1.92659V1.92659Z" fill="#59951B"/>
<path d="M10.0797 0.884156C10.0797 0.884156 10.4016 0.532594 10.5047 0.590406C10.6079 0.648219 10.3141 1.35291 10.1376 1.39666C9.961 1.44041 9.57975 0.795093 9.68287 0.737281C9.786 0.679468 10.0797 0.884156 10.0797 0.884156V0.884156ZM11.6641 2.13103C11.7907 2.32166 12.5141 2.11697 12.4563 1.97009C12.3751 1.76541 12.0313 1.83884 12.0313 1.83884C12.0313 1.83884 12.0751 1.37009 11.8704 1.37009C11.7219 1.36853 11.5751 1.99978 11.6641 2.13103ZM8.21725 1.22166C8.09225 1.25759 8.18756 1.63259 8.18756 1.63259C8.18756 1.63259 7.80631 1.55916 7.79225 1.70603C7.77818 1.85291 8.35006 2.17478 8.52506 1.98416C8.70162 1.79353 8.39693 1.16853 8.21725 1.22166V1.22166Z" fill="#FFBF1B"/>
<path d="M7.14683 3.66406C7.05933 3.81875 7.41089 4.11094 7.41089 4.11094C7.41089 4.11094 6.98589 4.40469 7.07339 4.52187C7.16089 4.63906 7.90933 4.39062 7.91714 4.14844C7.92339 3.90625 7.22808 3.52187 7.14683 3.66406V3.66406ZM10.9296 3.65C10.8484 3.62344 10.3578 4.2875 10.5265 4.47812C10.6953 4.66875 11.414 4.33125 11.4062 4.22812C11.3984 4.125 10.9656 4.09687 10.9656 4.09687C10.9656 4.09687 10.9968 3.67187 10.9296 3.65ZM8.13746 7.1625C8.16246 7.37344 7.38902 7.77812 7.2937 7.625C7.19839 7.47187 7.60152 7.14062 7.60152 7.14062C7.60152 7.14062 7.31089 6.75781 7.36714 6.65625C7.44214 6.525 8.10933 6.92031 8.13746 7.1625ZM12.1906 6.62656C12.0859 6.57812 11.5156 7.02969 11.5671 7.32969C11.6187 7.62969 12.4468 7.46875 12.4468 7.37344C12.4468 7.27812 12.0296 7.10937 12.0296 7.10937C12.0296 7.10937 12.2859 6.67031 12.1906 6.62656V6.62656ZM8.78902 8.87031C8.73745 8.91562 9.06089 9.325 9.06089 9.325C9.06089 9.325 8.66558 9.64062 8.70933 9.75C8.75308 9.85937 9.55933 9.75 9.57495 9.38281C9.58745 9.04375 8.9062 8.76719 8.78902 8.87031ZM7.4312 10.7719C7.40152 10.8422 7.73902 11.2125 7.73902 11.2125C7.73902 11.2125 7.34995 11.6594 7.43902 11.7547C7.52652 11.85 8.26714 11.5641 8.29683 11.2703C8.32652 10.9766 7.49683 10.6109 7.4312 10.7719ZM11.414 10.6437C11.45 11.0328 12.1765 11.0844 12.2359 10.9594C12.2812 10.8641 11.8843 10.6078 11.8843 10.6078C11.8843 10.6078 12.189 10.2016 12.1343 10.1391C12.0375 10.0281 11.3875 10.3594 11.414 10.6437ZM7.98121 13.1922C7.91246 13.2797 8.26714 13.6391 8.26714 13.6391C8.26714 13.6391 7.76245 13.8828 7.81245 14.0203C7.84839 14.1234 8.66714 14.0969 8.7437 13.7781C8.86089 13.2875 8.03277 13.1266 7.98121 13.1922ZM10.289 15.5687C10.2937 15.8562 11.1171 16.0156 11.1765 15.9141C11.2359 15.8109 10.7515 15.4594 10.7515 15.4594C10.7515 15.4594 11.089 15.0266 11.0375 14.9312C10.9859 14.8359 10.2812 15.1734 10.289 15.5687ZM11.825 13.9812C11.8546 14.3109 12.7078 14.45 12.7265 14.2969C12.7406 14.1797 12.3234 13.9234 12.3234 13.9234C12.3234 13.9234 12.6093 13.6234 12.5437 13.5125C12.4781 13.4031 11.8046 13.7469 11.825 13.9812ZM8.7312 17.0094C8.76089 17.325 8.13745 17.6406 8.08589 17.5594C8.01558 17.45 8.32808 16.9953 8.32808 16.9953C8.32808 16.9953 7.99058 16.5625 8.03433 16.4891C8.10308 16.3719 8.70152 16.6937 8.7312 17.0094V17.0094Z" fill="#FFE068"/>
<path d="M12.4953 16.1438C12.5312 16.2563 12.2531 16.6422 12.2531 16.6422C12.2531 16.6422 12.7297 16.9875 12.6562 17.0969C12.5828 17.2063 11.8938 17.1047 11.8203 16.7516C11.7469 16.4016 12.45 16.0047 12.4953 16.1438ZM14.8984 4.68752C14.8984 4.68752 14.6109 4.32814 14.4812 4.41095C14.4062 4.45939 14.5937 5.07658 14.9109 5.08283C15.2281 5.08908 15.4141 4.39845 15.2844 4.36877C15.1797 4.34533 14.8984 4.68752 14.8984 4.68752ZM16.4641 5.52502C16.4641 5.52502 16.5141 5.15627 16.4578 5.09377C16.4016 5.03127 15.9531 5.60002 16.1016 5.8547C16.2516 6.11095 16.95 5.71095 16.9 5.6297C16.85 5.55002 16.4641 5.52502 16.4641 5.52502V5.52502ZM13.1719 5.50002C13.1719 5.50002 12.7437 5.63283 12.7437 5.74689C12.7437 5.85939 13.4172 6.00627 13.5875 5.72033C13.7578 5.43439 13.1656 5.00783 13.0984 5.06877C13.0297 5.12658 13.1719 5.50002 13.1719 5.50002V5.50002ZM15.9312 10.5422C15.8719 10.7938 16.4078 11.3047 16.525 11.2235C16.5891 11.1797 16.3562 10.6516 16.3562 10.6516C16.3562 10.6516 16.7812 10.4828 16.7734 10.4094C16.7656 10.336 15.9969 10.2625 15.9312 10.5422Z" fill="#FFBF1B"/>
<path d="M16.2827 8.38612C16.278 8.60487 17.089 8.73768 17.1327 8.65018C17.1765 8.56268 16.7952 8.23924 16.7952 8.23924C16.7952 8.23924 17.089 7.86581 16.9999 7.79862C16.9108 7.73143 16.2905 8.04862 16.2827 8.38612V8.38612ZM3.77179 8.62518C3.78741 8.82987 3.18585 9.16112 3.11241 9.06581C3.03897 8.97049 3.3171 8.63299 3.3171 8.63299C3.3171 8.63299 2.95772 8.39862 3.04522 8.28143C3.13272 8.16268 3.74835 8.34706 3.77179 8.62518ZM3.94991 9.69862C3.9046 9.76893 4.20616 10.0799 4.20616 10.0799C4.20616 10.0799 3.91241 10.4752 3.99366 10.5564C4.07491 10.6377 4.60304 10.4002 4.58741 10.0439C4.57335 9.70643 4.01554 9.59549 3.94991 9.69862Z" fill="#FFE068"/>
<path d="M5.22505 5.33453C5.22505 5.33453 4.9313 4.9939 4.8438 5.0064C4.7188 5.02515 4.82974 5.71734 5.19537 5.71734C5.56255 5.71734 5.6938 5.04234 5.61255 5.0064C5.53443 4.97046 5.22505 5.33453 5.22505 5.33453V5.33453ZM6.37662 6.31109C6.57505 6.55328 7.22662 6.13453 7.19849 6.05484C7.1688 5.97359 6.72974 5.98921 6.72974 5.98921C6.72974 5.98921 6.78912 5.60015 6.6563 5.5564C6.52349 5.51109 6.21099 6.10796 6.37662 6.31109V6.31109ZM3.9063 6.4064C3.78912 6.64078 3.19537 6.51578 3.16568 6.39859C3.13599 6.2814 3.52505 6.17828 3.52505 6.17828C3.52505 6.17828 3.40787 5.81109 3.47349 5.76734C3.53912 5.72515 4.08599 6.04546 3.9063 6.4064ZM4.16412 12.0267C4.26412 12.2689 3.79693 12.7377 3.70943 12.6502C3.65787 12.5986 3.76099 12.1658 3.76099 12.1658C3.76099 12.1658 3.36724 12.0048 3.38755 11.9392C3.40943 11.8658 4.04693 11.7408 4.16412 12.0267V12.0267Z" fill="#FFBF1B"/>
</svg>
