<svg width="20" height="20" viewBox="0 0 20 20" fill="none" xmlns="http://www.w3.org/2000/svg">
<path d="M2.17322 14.0422C2.17322 14.0422 2.02322 15.0235 2.37166 15.8891C2.66228 16.6141 3.41541 17.5688 4.85603 18.2969C6.29666 19.025 7.95134 19.2813 10.3935 19.3313C12.8357 19.3829 15.3451 18.8125 16.5498 17.7547C17.756 16.6954 18.1779 15.8047 18.1435 14.8375C18.1092 13.8704 17.5951 13.5032 17.5951 13.5032L2.17322 14.0422V14.0422Z" fill="#FCB745"/>
<path d="M2.8721 13.0563L2.1596 13.7688C2.1596 13.7688 1.96585 14.7219 3.04085 15.7531C3.85491 16.5328 5.29554 17.8875 10.0799 17.9235C14.558 17.9578 15.9658 16.9735 16.8299 16.2781C17.6955 15.5828 18.0205 14.375 17.9346 14.036C17.8502 13.6969 17.5846 13.5016 17.5846 13.5016L2.8721 13.0563V13.0563Z" fill="#E78B20"/>
<path d="M3.17642 14.0734C3.17642 14.0734 2.97486 14.4156 3.04048 14.6328C3.09204 14.8031 3.19361 15.4984 5.21079 16.3797C6.27798 16.8469 8.09361 17.2281 10.4514 17.1594C13.2483 17.0781 15.4889 16.5156 16.5733 15.4969C17.6842 14.4547 17.4717 13.8344 17.4717 13.8344L3.17642 14.0734V14.0734Z" fill="#FFD290"/>
<path d="M2.59991 11.6985C2.59991 11.6985 1.93116 12.3797 1.82022 12.6829C1.71553 12.9688 1.72959 13.3844 1.91397 13.7204C2.16241 14.1704 2.47178 14.2172 2.85459 14.4469C3.26866 14.6938 3.92334 15.4641 5.53428 15.8032C7.14522 16.1422 9.26553 16.2954 10.4015 16.2954C11.5374 16.2954 13.0468 16.2782 14.4546 15.8032C15.8624 15.3282 17.4733 14.3954 17.8468 13.5641C18.2202 12.7329 17.864 12.2407 17.864 12.2407L17.0499 11.6985H2.59991V11.6985Z" fill="#6D544D"/>
<path d="M2.2095 10.8344C2.2095 10.8344 1.69075 10.811 1.56575 11.5969C1.47512 12.1688 1.88762 12.5297 1.88762 12.5297C1.88762 12.5297 1.66887 12.8438 1.922 13.2422C2.1595 13.6157 2.41418 13.7001 2.93918 13.7844C3.31731 13.8454 3.51574 13.7329 4.00793 14.0047C4.62512 14.3454 4.88918 14.9547 5.73762 15.1407C6.58606 15.3266 7.53606 15.1579 7.56887 15.0219C7.60168 14.886 6.38137 14.3782 4.17668 13.1391C3.43293 12.7219 2.75168 12.1547 2.56574 11.8672C2.37981 11.5797 2.2095 10.8344 2.2095 10.8344V10.8344ZM12.8782 14.9719C12.8782 15.1922 13.6079 15.0907 13.947 14.9047C14.2861 14.7188 14.8282 14.2438 15.3204 14.0391C15.8126 13.836 15.9986 14.0219 16.7111 13.6829C17.4236 13.3438 17.8142 12.5469 17.8142 12.5469C17.8142 12.5469 18.1611 12.1188 18.1892 11.8188C18.2329 11.361 18.1876 11.1391 17.8657 11.0376C17.5439 10.936 16.8423 11.9907 16.7407 12.1094C16.6392 12.2282 15.1361 13.3266 14.5423 13.7501C13.9486 14.1735 12.8782 14.8532 12.8782 14.9719V14.9719Z" fill="#9B7169"/>
<path d="M2.87177 10.2578C2.87177 10.2578 2.02334 10.3594 1.90459 10.7156C1.78584 11.0719 2.15928 11.5969 3.14209 12.2594C3.94834 12.8016 6.71084 14.1062 7.80615 14.7859C9.06084 15.5656 10.1233 16.6547 10.2999 16.6687C10.5202 16.6859 12.0499 15.0609 14.1671 13.6328C16.1796 12.2734 17.5593 11.9375 18.0515 10.9359C18.3155 10.3984 17.678 10.0875 17.678 10.0875L9.50303 6.98438L2.87177 10.2578Z" fill="#FFE869"/>
<path d="M10.4017 15.7531C10.6548 15.725 11.9782 14.4469 13.5392 13.4641C15.1001 12.4812 17.4063 11.4281 17.7454 10.8359C18.0845 10.2438 17.2704 9.85156 17.2704 9.85156L7.77197 8.25781L2.20947 10.4453C2.20947 10.4453 1.90479 10.5469 2.10791 10.8016C2.31104 11.0562 2.63291 11.4797 3.34541 11.9203C4.21104 12.4563 6.43291 13.3453 7.83916 14.1078C9.24853 14.8703 10.097 15.7859 10.4017 15.7531Z" fill="#FFBE01"/>
<path d="M2.9751 10.6985L3.27041 11.4891C3.27041 11.4891 5.39541 13.6313 9.62197 13.7157C13.8282 13.8 16.186 11.7985 16.186 11.7985L16.7235 10.4485L2.9751 10.6985V10.6985Z" fill="#F4482B"/>
<path d="M8.51562 12.0047L8.18281 12.5375C8.18281 12.5375 8.89375 12.9641 9.09844 13.0375C9.39219 13.1422 9.68125 13.1047 10.1141 12.9703C10.5469 12.8375 12.3438 12.1219 12.3438 12.1219C12.3438 12.1219 13.8297 12.1438 14.7625 12.1609C15.5891 12.1766 16.4172 11.8797 16.85 11.3797C17.2828 10.8797 17.9547 9.80781 17.9547 9.80781C17.9547 9.80781 18.3047 9.725 18.5375 9.45781C18.7703 9.19063 18.7875 8.95781 18.7875 8.95781C18.7875 8.95781 18.7203 8.50781 18.4719 8.39219C18.2219 8.275 7.0875 7.59375 7.0875 7.59375L2.62656 7.92656L1.875 9.475L4.35469 11.5891L7.85 11.7891L8.51562 12.0047V12.0047Z" fill="#A6B732"/>
<path d="M2.10791 8.11096C1.85635 7.9969 1.59229 8.01096 1.4751 8.34377C1.35791 8.67659 1.39385 8.82346 1.39385 8.82346C1.39385 8.82346 1.05166 8.89534 1.00948 9.32502C0.959477 9.84065 1.5251 10.0235 1.5251 10.0235C1.5251 10.0235 1.55166 10.2235 1.7751 10.4235C2.02979 10.6516 2.28448 10.6281 2.28448 10.6281C2.28448 10.6281 2.95635 11.2891 3.40635 11.5547C3.85635 11.8203 4.50479 12.0047 5.15479 11.9875C5.80479 11.9703 6.02041 11.6719 6.50323 11.8375C6.98604 12.0031 8.26573 12.6766 8.78135 12.6875C9.59698 12.7047 11.361 11.4391 11.761 11.4563C12.161 11.4735 13.9751 11.7563 14.9407 11.7563C15.9064 11.7563 16.2564 11.4735 16.472 11.1906C16.6876 10.9078 17.0548 10.1922 16.9376 10.175C16.8204 10.1578 16.0548 10.7906 15.5064 10.7406C14.9564 10.6906 14.4751 10.375 13.7923 10.375C13.1095 10.375 9.78135 10.8078 9.56416 10.9078C9.34698 11.0078 8.41573 11.7235 8.23291 11.6906C8.0501 11.6578 7.41729 11.125 7.20167 11.0078C6.98604 10.8906 4.71573 10.8156 4.38916 10.875C4.15479 10.9172 3.82354 10.975 3.82354 10.975C3.82354 10.975 3.85635 10.4594 3.57354 10.1594C3.29073 9.8594 2.35792 9.34377 2.35792 9.34377C2.35792 9.34377 2.47354 8.27659 2.10791 8.11096V8.11096ZM16.8704 9.0094C16.8704 9.0094 17.886 9.0094 18.1689 8.99221C18.4517 8.97502 18.7845 8.9594 18.7845 8.9594C18.7845 8.9594 18.6876 8.49846 18.5407 8.25315C18.2407 7.75002 17.5189 7.61096 17.5189 7.61096L16.8704 9.0094V9.0094Z" fill="#C2DD1F"/>
<path d="M1.8751 7.49534L1.76416 7.98596C1.76416 7.98596 3.3001 10.7063 10.2032 10.8094C14.2438 10.8703 16.5657 9.64377 17.5907 8.64065C18.2048 8.03909 18.2251 7.45471 18.2251 7.45471L1.8751 7.49534Z" fill="#DE8010"/>
<path d="M1.52497 6.14216C1.43747 7.50153 1.76872 7.98903 1.76872 7.98903C1.76872 7.98903 4.0531 10.0578 9.88747 10.1531C15.8672 10.25 17.8109 8.26716 18.1515 7.68903C18.3687 7.32185 18.5422 6.60153 18.4047 5.55153C18.1765 3.81716 16.1797 0.526533 9.85935 0.551533C3.53903 0.576533 1.6531 4.16872 1.52497 6.14216Z" fill="url(#paint0_radial_4359_2636)"/>
<path d="M7.52983 2.24379C7.57826 2.50942 6.37983 3.39379 6.20639 2.54536C6.04389 1.74692 7.48451 1.99848 7.52983 2.24379ZM7.95795 3.90786C8.02045 4.07192 9.24858 4.30786 9.11733 3.61567C8.97983 2.89536 7.82983 3.57036 7.95795 3.90786ZM9.03451 2.00786C9.06576 2.24379 10.497 2.51879 10.4673 1.85317C10.4314 1.03129 8.99858 1.73442 9.03451 2.00786V2.00786ZM6.67358 4.45473C6.68139 4.50786 6.32983 4.78442 5.97045 4.89223C5.65483 4.98754 5.33139 4.94692 5.29545 4.55473C5.26108 4.17661 5.52983 4.03911 5.8517 4.07192C6.22201 4.10786 6.65795 4.35317 6.67358 4.45473ZM9.64701 5.55942C9.58764 5.31098 8.24233 4.96567 8.33295 5.75161C8.42514 6.53442 9.71108 5.82348 9.64701 5.55942V5.55942ZM10.9064 3.77036C10.8408 3.69379 10.533 3.70786 10.158 3.80629C9.88764 3.87817 9.68764 4.18286 9.87514 4.47192C10.0939 4.80942 10.4611 4.66723 10.6955 4.38129C10.8861 4.15004 10.9798 3.85629 10.9064 3.77036V3.77036ZM12.347 1.94379C12.3048 1.89848 11.997 1.86723 11.7455 1.98911C11.4923 2.11098 11.2736 2.40161 11.508 2.67348C11.7455 2.94692 12.0986 2.78911 12.2658 2.50004C12.3986 2.26723 12.4111 2.01254 12.347 1.94379ZM13.3126 4.32192C13.272 4.06723 12.1408 3.61411 12.1486 4.30786C12.1564 5.01879 13.3486 4.55161 13.3126 4.32192ZM14.8767 3.06567C14.8392 2.87036 13.4001 2.71254 13.6455 3.43911C13.9001 4.19692 14.922 3.30317 14.8767 3.06567ZM12.8955 5.62192C12.9048 5.40317 11.8095 4.90161 11.7283 5.55786C11.647 6.21411 12.883 5.90629 12.8955 5.62192Z" fill="#FDEAC8"/>
<defs>
<radialGradient id="paint0_radial_4359_2636" cx="0" cy="0" r="1" gradientUnits="userSpaceOnUse" gradientTransform="translate(9.91632 2.42543) rotate(89.3583) scale(6.88131 11.9905)">
<stop offset="0.517" stop-color="#DF8016"/>
<stop offset="0.643" stop-color="#E58C21"/>
<stop offset="1" stop-color="#F5AC3C"/>
</radialGradient>
</defs>
</svg>
