<svg width="20" height="20" viewBox="0 0 20 20" fill="none" xmlns="http://www.w3.org/2000/svg">
<path d="M12.0781 10.1502L13.5844 9.93457C13.5844 9.93457 13.8234 13.0502 14.0047 13.4174C14.1859 13.7846 16.1594 16.0439 16.1594 16.0439L15.7437 16.9439L13.0656 14.408C12.7783 14.136 12.5916 13.7747 12.5359 13.383L12.0781 10.1502Z" fill="url(#paint0_linear_4359_2834)"/>
<path d="M7.8498 10.1502L6.34355 9.93457C6.34355 9.93457 6.10449 13.0502 5.92324 13.4174C5.74199 13.7861 3.76855 16.0439 3.76855 16.0439L4.18418 16.9439L6.86074 14.408C7.14824 14.1361 7.33418 13.7752 7.39043 13.383L7.8498 10.1502Z" fill="url(#paint1_linear_4359_2834)"/>
<path d="M13.8408 10.8625L13.7111 9.38748C13.6939 9.18591 13.333 7.54529 10.0361 7.54529C6.73926 7.54529 6.31113 9.15154 6.29082 9.38591L6.16113 10.8609L7.58926 10.9875V15.339H12.4611V10.9844L13.8408 10.8625Z" fill="url(#paint2_linear_4359_2834)"/>
<path d="M13.6468 17.4498C12.6062 17.6295 11.7046 17.903 10.6906 18.2045C10.2343 18.3405 9.75462 18.4811 9.22806 18.6217C8.20306 18.8952 6.99993 19.1686 5.44681 19.3967C4.52649 19.5327 3.56087 19.3967 3.07181 19.0952C2.70774 18.8702 2.38743 18.4248 2.51399 18.0467C2.65306 17.628 3.06868 17.1623 3.65462 16.8827C3.89681 16.767 4.15931 16.6577 4.42962 16.5577C5.10306 16.3061 5.81868 16.1014 6.35462 15.9608C6.86556 15.828 7.21556 15.7545 7.21556 15.7545C7.85618 15.6139 8.44681 15.6108 8.91556 15.8123C9.73118 16.1608 13.9327 17.4014 13.6468 17.4498V17.4498Z" fill="url(#paint3_linear_4359_2834)"/>
<path d="M5.34541 16.2732L4.58447 17.0123L3.92354 17.4654C3.90791 17.4779 3.8876 17.4842 3.86729 17.4826L3.7001 17.467C3.60479 17.5186 3.5001 17.5467 3.39385 17.5467C3.34541 17.5467 3.29385 17.5404 3.24541 17.5311C3.13447 17.5061 3.03447 17.4529 2.95166 17.3764C3.13291 17.1982 3.35635 17.0389 3.6126 16.9139C4.12666 16.6639 4.73447 16.4404 5.30166 16.2607L5.34541 16.2732V16.2732Z" fill="url(#paint4_linear_4359_2834)"/>
<path d="M16.9141 19.0953C16.4251 19.3968 15.4626 19.5203 14.5391 19.3968C12.7782 19.1625 10.6094 18.4468 9.05474 17.689C8.17193 17.2593 7.4063 16.7453 6.96412 16.4906C6.65318 16.3109 6.4063 16.2109 6.01568 16.2531C5.86255 16.2703 5.81255 16.2812 5.70474 16.2765C5.48599 16.2672 5.67974 15.9187 5.67974 15.9187C5.78599 15.6718 6.14068 15.389 6.48912 15.514C6.83755 15.639 7.2563 15.8906 7.2563 15.8906C8.05162 16.1375 8.08755 15.6437 8.55318 15.8078C8.78599 15.889 8.83912 16.1672 8.84537 16.3234C8.85318 16.4922 9.10943 16.6484 9.27818 16.6718L10.3704 16.8015L10.5204 16.8187L10.911 16.8656L12.0985 16.0218L12.2626 15.9047L12.6922 15.6C12.6922 15.6 12.8094 15.639 13.0063 15.7078C13.0672 15.7281 13.136 15.7531 13.2126 15.7797C13.5344 15.8922 13.9751 16.0484 14.4469 16.2234C14.5001 16.2437 14.5547 16.264 14.6094 16.2843C15.2204 16.514 15.8672 16.7703 16.3641 17C16.9532 17.2718 17.3329 17.6281 17.4735 18.0468C17.5985 18.425 17.2782 18.8703 16.9141 19.0953V19.0953Z" fill="url(#paint5_linear_4359_2834)"/>
<path d="M12.4799 15.4109L12.4564 14.875C12.4564 14.875 11.8143 15.1688 10.0658 15.1688C8.31738 15.1688 7.58613 14.875 7.58613 14.875V15.4109L6.43457 16.0984L10.0158 17.7313L13.7955 16.0844L12.4799 15.4109Z" fill="#7C7C7C"/>
<path d="M10.6906 18.2047C10.2344 18.3406 9.75469 18.4812 9.22813 18.6219C9.01719 18.5281 8.81406 18.4328 8.61719 18.3375C7.84844 17.9609 7.14375 17.5313 6.63125 17.2172L6.59219 17.1953C6.39531 17.0734 6.225 16.9687 6.08281 16.8859C5.79687 16.7203 5.68281 16.6922 5.53281 16.6922C5.49375 16.6922 5.45469 16.6953 5.4125 16.7016L5.30156 16.7125C5.22187 16.7219 5.12969 16.7344 5.01406 16.7344C4.98437 16.7344 4.95625 16.7328 4.92344 16.7313C4.7375 16.7234 4.56719 16.6641 4.42969 16.5578C5.10312 16.3062 5.81875 16.1016 6.35469 15.9609C6.42031 15.9922 6.48594 16.0297 6.55469 16.0687C6.69844 16.1531 6.87656 16.2609 7.07656 16.3844C7.58438 16.6953 8.27812 17.1219 9.03125 17.4891C9.52656 17.7312 10.0719 17.9672 10.65 18.1891L10.6906 18.2047Z" fill="url(#paint6_linear_4359_2834)"/>
<path d="M5.05469 17.6547C5.06719 17.4953 5.16563 17.3547 5.28281 17.2562C5.4 17.1531 5.5375 17.0828 5.68281 17.0297C5.75313 17.0047 5.83906 16.9844 5.90938 16.9766L6.12656 16.9469C6.27188 16.9297 6.41719 16.9109 6.5625 16.8969C6.85313 16.8656 7.14531 16.8484 7.4375 16.8391C7.72969 16.8297 8.02188 16.8297 8.31719 16.85C8.36094 16.8531 8.39375 16.8906 8.39063 16.9344C8.3875 16.9766 8.35313 17.0094 8.31094 17.0078H8.30781C8.02187 17.0031 7.73125 17.0125 7.44375 17.0234C7.15469 17.0359 6.86719 17.0578 6.57969 17.0797C6.43594 17.0922 6.29219 17.1062 6.14844 17.1219L5.93281 17.1484C5.85781 17.1562 5.80156 17.1656 5.73281 17.1844C5.60313 17.2219 5.475 17.2812 5.3625 17.3562C5.25 17.4328 5.15469 17.5328 5.1125 17.6625V17.6641C5.10781 17.6797 5.09063 17.6875 5.075 17.6828C5.0625 17.6797 5.05469 17.6672 5.05469 17.6547V17.6547Z" fill="#4A2F27"/>
<path d="M16.9141 19.0953C16.4251 19.3968 15.4626 19.5203 14.5391 19.3968C13.2469 19.225 11.736 18.7937 10.4079 18.2765C9.92662 18.089 9.4688 17.8906 9.05474 17.689C8.17193 17.2593 7.4063 16.7453 6.96412 16.4906C6.65318 16.3109 6.4063 16.2109 6.01568 16.2531C5.86255 16.2703 5.81255 16.2812 5.70474 16.2765C5.48599 16.2672 5.67974 15.9187 5.67974 15.9187C5.78599 15.6718 6.14068 15.389 6.48912 15.514C6.83755 15.639 7.2563 15.8906 7.2563 15.8906C8.05162 16.1375 8.08755 15.6437 8.55318 15.8078C8.78599 15.889 8.83912 16.1672 8.84537 16.3234C8.85318 16.4922 9.10943 16.6484 9.27818 16.6718C9.27818 16.6718 9.72349 16.7515 10.2079 16.8156H10.2094L10.2891 16.825C10.3235 16.8297 10.3579 16.8343 10.3922 16.8375C10.5079 16.8515 10.6219 16.8625 10.7297 16.8718L10.7594 16.875H10.7672C10.7688 16.8765 10.7704 16.8765 10.7719 16.875H10.7735C10.8907 16.8843 11.0001 16.889 11.0938 16.889C11.2422 16.889 11.386 16.8843 11.5266 16.875C12.011 16.8453 12.4579 16.7718 12.8907 16.7093C13.0126 16.6906 13.1329 16.6734 13.2532 16.6578H13.2547C13.6844 16.6031 14.1063 16.5734 14.5469 16.6234C15.3782 16.7187 16.3985 17.0015 17.3891 17.8578C17.4219 17.9187 17.4516 17.9828 17.4735 18.0468C17.5985 18.425 17.2782 18.8703 16.9141 19.0953V19.0953Z" fill="url(#paint7_linear_4359_2834)"/>
<path d="M14.8799 16.9467C14.6033 16.8467 13.8018 16.7389 13.3393 16.6842C13.3393 16.6842 13.7111 16.4576 14.3033 16.5264C14.6721 16.5701 14.3158 15.9248 14.3158 15.9248C14.3158 15.9248 13.4018 16.4232 13.0908 16.6029C13.0768 16.6107 13.0455 16.6279 13.0049 16.6482L12.9861 16.6576C12.9564 16.6732 12.9236 16.6904 12.8908 16.7092C12.8018 16.7545 12.708 16.8029 12.6611 16.8295C12.7658 16.8326 12.8689 16.8373 12.9736 16.842C14.0049 16.8936 15.0064 17.0311 15.4752 17.4295C15.4893 17.4404 15.5127 17.4357 15.508 17.4201C15.4611 17.2764 15.2705 17.0889 14.8799 16.9467Z" fill="#4A2F27"/>
<path d="M14.3483 16.3889C14.2421 16.3936 14.1921 16.3826 14.0374 16.3639C13.6483 16.3233 13.4015 16.4233 13.0905 16.603C13.0765 16.6108 13.0452 16.628 13.0046 16.6483L12.9858 16.6576C12.9562 16.6733 12.9233 16.6905 12.8905 16.7092C12.8015 16.7545 12.7077 16.803 12.6608 16.8295C12.6515 16.8342 12.6421 16.8389 12.6374 16.842C12.6374 16.842 12.0624 16.8405 11.8218 16.8623C11.7733 16.867 11.728 16.8701 11.6874 16.8733C11.4796 16.8889 11.3515 16.8889 11.0937 16.8889C10.9999 16.8889 10.8905 16.8842 10.7733 16.8748H10.7593L10.7296 16.8717C10.6218 16.8623 10.5077 16.8514 10.3921 16.8373L10.4015 16.8358H10.403L10.7249 16.7905L10.7765 16.7826C10.8843 16.7686 11.0265 16.6998 11.1187 16.6076C11.1202 16.6061 11.1218 16.6045 11.1218 16.603C11.1343 16.592 11.1437 16.5811 11.153 16.5686C11.1843 16.528 11.2046 16.4826 11.2077 16.4342C11.2077 16.4264 11.2093 16.4186 11.2108 16.4108C11.2218 16.2514 11.2796 15.9951 11.5015 15.9186C11.9671 15.7561 12.0015 16.2483 12.7968 16.003C12.7968 16.003 13.2155 15.7514 13.564 15.6264C13.9124 15.5014 14.2687 15.7826 14.3733 16.0295C14.3733 16.0295 14.3999 16.0764 14.4218 16.1342C14.4593 16.2373 14.489 16.3826 14.3483 16.3889V16.3889Z" fill="url(#paint8_linear_4359_2834)"/>
<path d="M18.1874 15.65C18.1874 15.625 18.1749 15.6 18.153 15.586C18.1312 15.5719 18.1062 15.5672 18.0812 15.5766C18.0718 15.5797 17.8702 15.6516 17.778 15.8469C17.7733 15.8563 17.7702 15.8672 17.7702 15.8782L17.7562 16.2578C17.7374 16.2844 17.7093 16.3219 17.678 16.3656L17.6249 15.8906L17.6374 15.25C17.6374 15.2281 17.6296 15.2063 17.614 15.1907C17.5983 15.175 17.5749 15.1672 17.5546 15.1688C17.5499 15.1688 17.4921 15.1735 17.4218 15.1969H17.4046C17.3999 15.1969 17.3952 15.1985 17.389 15.1985C17.378 15.1985 17.3687 15.2 17.3577 15.2016C17.3468 15.2032 17.3343 15.2047 17.3233 15.2078C17.314 15.2094 17.3062 15.2125 17.2968 15.2141C17.2858 15.2172 17.2765 15.2203 17.2655 15.225C17.2577 15.2282 17.2499 15.2313 17.2421 15.236C17.2327 15.2407 17.2249 15.2453 17.2155 15.2516C17.2077 15.2563 17.2015 15.261 17.1937 15.2656C17.1858 15.2719 17.178 15.2781 17.1718 15.2844C17.1655 15.2906 17.1577 15.2969 17.1515 15.3032L17.1327 15.3219C17.1265 15.3297 17.1187 15.3375 17.1124 15.3453C17.1077 15.3516 17.103 15.3578 17.0983 15.3625C17.0905 15.3719 17.0827 15.3828 17.0765 15.3922C17.0733 15.3953 17.0718 15.4 17.0687 15.4032C16.9733 15.5422 16.9015 15.7094 16.7577 15.7641C16.7327 15.7735 16.7062 15.7813 16.678 15.7875C16.4171 15.8422 16.0765 15.7407 15.8796 15.9672L15.8812 15.9703C15.8749 15.9766 15.8671 15.9828 15.8608 15.9906C15.8077 16.0547 15.5968 15.9344 15.5968 15.9344L15.2015 16.211L15.1562 16.1688L15.0187 16.0391L14.8374 16.0828L15.6046 16.8157L16.2702 17.2641C16.2858 17.2766 16.3062 17.2828 16.3265 17.2797L16.4921 17.2625C16.6316 17.338 16.7939 17.3597 16.9483 17.3235C17.078 17.2938 17.1937 17.2235 17.2796 17.1219L17.2999 17.0985L17.3327 17.111C17.3405 17.1141 17.3483 17.1157 17.3562 17.1172C17.5108 17.1282 17.6921 17.0453 17.7999 16.9141L18.1765 16.4407C18.1874 16.4266 18.1937 16.4078 18.1937 16.3907L18.1874 15.65V15.65Z" fill="url(#paint9_linear_4359_2834)"/>
<path d="M17.6374 15.1967V15.2248L17.6343 15.3279C17.5499 15.3248 17.4515 15.3404 17.3858 15.3842C17.3155 15.4264 17.2874 15.4951 17.2874 15.5951L17.2687 16.2045L17.2577 16.5107C17.264 16.5654 17.2312 16.6311 17.1968 16.6639L17.1015 16.7826L16.7202 17.2607L17.0687 16.7592L17.1577 16.6326C17.1905 16.5904 17.203 16.5592 17.1983 16.5092L17.189 16.2029L17.1687 15.5904C17.1655 15.542 17.1687 15.4732 17.1905 15.4154C17.2108 15.3592 17.2968 15.1826 17.5952 15.1592C17.6171 15.1607 17.6343 15.1732 17.6374 15.1967V15.1967ZM18.1905 15.5873V15.5982L18.189 15.7014C18.1327 15.6998 18.0655 15.7139 18.0124 15.742C17.9593 15.7701 17.9187 15.8139 17.8968 15.8701C17.8874 15.8982 17.8812 15.9311 17.878 15.9639L17.8671 16.0779C17.8562 16.1545 17.8468 16.2264 17.8202 16.3092L17.8187 16.3154L17.814 16.3217L17.7218 16.4311L17.3671 16.9857L17.6624 16.392L17.664 16.3889L17.7405 16.2779C17.753 16.2154 17.7577 16.1404 17.7608 16.0686V15.9592C17.7624 15.917 17.7671 15.8732 17.778 15.8311C17.803 15.7436 17.8655 15.6654 17.9405 15.6186C18.0015 15.5842 18.0624 15.5592 18.1296 15.5482C18.1351 15.5463 18.1409 15.5453 18.1468 15.5451H18.1483C18.1702 15.5467 18.1874 15.5639 18.1905 15.5873V15.5873Z" fill="#4A2F27"/>
<path d="M15.814 16.3969C15.814 16.3969 16.3968 15.8234 17.1796 15.8844C17.1796 15.8844 16.8483 15.8687 16.9062 16.4437C16.9062 16.4437 16.6749 16.2109 16.3515 16.8172C16.3499 16.8187 16.164 16.3234 15.814 16.3969Z" fill="url(#paint10_linear_4359_2834)"/>
<path d="M17.2045 15.9922C17.1576 15.9828 17.0951 15.9891 17.0561 16.0125C17.0154 16.0359 16.9904 16.0813 16.9811 16.1406C16.9717 16.2016 16.9686 16.2766 16.9623 16.3438L16.9545 16.4469C16.9498 16.4813 16.9529 16.5141 16.942 16.5594C16.9295 16.6031 16.8998 16.6359 16.8795 16.6594L16.8139 16.7406L16.6811 16.9016L16.417 17.225L16.6498 16.8781L16.767 16.7047L16.8248 16.6172C16.8451 16.5859 16.8623 16.5641 16.8654 16.5391C16.8701 16.5172 16.8654 16.4797 16.8654 16.4438L16.8639 16.3391C16.8639 16.2672 16.8592 16.2016 16.8623 16.125C16.8654 16.0469 16.8998 15.9531 16.9764 15.8969C17.0545 15.8422 17.1373 15.8281 17.2279 15.8344L17.2045 15.9922V15.9922Z" fill="#4A2F27"/>
<path d="M16.8689 16.5217C16.833 16.5045 16.7768 16.4935 16.7346 16.5029C16.6893 16.5092 16.6486 16.5373 16.6158 16.5763L16.3783 16.8701L16.3221 16.9404L16.2939 16.856C16.2377 16.6842 16.1174 16.5138 15.9439 16.4373C15.7689 16.3576 15.5596 16.3888 15.3799 16.4654C15.5533 16.3763 15.7627 16.3232 15.9611 16.3935C16.058 16.4279 16.1455 16.4888 16.2158 16.5638C16.2861 16.6404 16.3424 16.7263 16.383 16.8263L16.2986 16.8123L16.5127 16.4998C16.5549 16.4404 16.6205 16.3842 16.7002 16.3654C16.7799 16.3451 16.8549 16.3498 16.9346 16.3795L16.8689 16.5217V16.5217Z" fill="#4A2F27"/>
<path d="M1.8124 15.5922C1.8124 15.5672 1.8249 15.5422 1.84678 15.5281C1.86709 15.514 1.89365 15.5094 1.91865 15.5187C1.92803 15.5219 2.12959 15.5937 2.22178 15.789C2.22646 15.7984 2.22959 15.8094 2.22959 15.8203L2.24365 16.2C2.2624 16.2265 2.29053 16.264 2.32178 16.3078L2.3749 15.8328L2.3624 15.1922C2.3624 15.1703 2.37021 15.1484 2.3874 15.1328C2.40303 15.1172 2.42646 15.1094 2.44678 15.1109C2.45146 15.1109 2.50928 15.1156 2.57959 15.139H2.59678C2.60146 15.139 2.60615 15.1406 2.6124 15.1406C2.62334 15.1406 2.63271 15.1422 2.64365 15.1437C2.65615 15.1453 2.66709 15.1469 2.67803 15.15C2.6874 15.1515 2.69521 15.1547 2.70459 15.1562C2.71553 15.1594 2.7249 15.1625 2.73584 15.1672C2.74365 15.1703 2.75146 15.1734 2.75928 15.1781C2.76865 15.1828 2.77646 15.1875 2.78584 15.1937C2.79365 15.1984 2.7999 15.2031 2.80771 15.2078L2.83115 15.2265C2.83896 15.2328 2.84521 15.239 2.85146 15.2453L2.87021 15.264C2.87803 15.2719 2.88428 15.2797 2.89053 15.2875C2.89521 15.2937 2.8999 15.3 2.90459 15.3047C2.9124 15.314 2.92021 15.325 2.92646 15.3344C2.92959 15.3375 2.93115 15.3422 2.93428 15.3453C3.02959 15.4844 3.10146 15.6515 3.24521 15.7062C3.27021 15.7156 3.29678 15.7234 3.3249 15.7297C3.58584 15.7844 3.92646 15.6828 4.12334 15.9094L4.12178 15.9125C4.12803 15.9187 4.13584 15.925 4.14209 15.9328C4.19521 15.9969 4.40615 15.8765 4.40615 15.8765L4.7999 16.1531L4.84365 16.1109L4.98115 15.9812L5.1624 16.025L4.39521 16.7578L3.72959 17.2062C3.71396 17.2187 3.69365 17.225 3.67334 17.2219L3.50771 17.2047C3.36821 17.2801 3.20588 17.3018 3.05146 17.2656C2.92178 17.2359 2.80615 17.1656 2.72021 17.064L2.6999 17.0406L2.66709 17.0531C2.65928 17.0562 2.65146 17.0578 2.64365 17.0594C2.49053 17.0703 2.30771 16.9875 2.1999 16.8562L1.82334 16.3828C1.81239 16.3684 1.80637 16.3509 1.80615 16.3328L1.8124 15.5922V15.5922Z" fill="url(#paint11_linear_4359_2834)"/>
<path d="M1.81104 15.5295V15.5404L1.8126 15.6436C1.86885 15.642 1.93604 15.6561 1.98916 15.6842C2.04229 15.7123 2.08291 15.7561 2.10479 15.8123C2.11416 15.8404 2.12041 15.8732 2.12354 15.9061L2.13447 16.0201C2.14541 16.0967 2.15479 16.1686 2.18135 16.2514L2.18291 16.2576L2.1876 16.2639L2.27979 16.3732L2.63447 16.9279L2.33916 16.3342L2.3376 16.3311L2.26104 16.2201C2.24854 16.1576 2.24385 16.0826 2.24072 16.0107V15.9014C2.23916 15.8592 2.23447 15.8154 2.22354 15.7732C2.19854 15.6857 2.13604 15.6076 2.05947 15.5607C1.99854 15.5264 1.9376 15.5014 1.87041 15.4904C1.86488 15.4885 1.85908 15.4874 1.85322 15.4873H1.85166C1.82979 15.4889 1.8126 15.5061 1.81104 15.5295V15.5295Z" fill="#4A2F27"/>
<path d="M4.18594 16.3393C4.18594 16.3393 3.60313 15.7659 2.82031 15.8268C2.82031 15.8268 3.15156 15.8112 3.09375 16.3862C3.09375 16.3862 3.325 16.1534 3.64844 16.7596C3.64844 16.7612 3.83594 16.2659 4.18594 16.3393Z" fill="url(#paint12_linear_4359_2834)"/>
<path d="M2.79541 15.9326C2.84229 15.9233 2.90479 15.9295 2.94385 15.9529C2.98447 15.9764 3.00947 16.0217 3.01885 16.0811C3.02822 16.142 3.03135 16.217 3.0376 16.2842L3.04541 16.3873C3.0501 16.4217 3.04697 16.4545 3.05791 16.4998C3.07041 16.5436 3.1001 16.5764 3.12041 16.5998L3.18604 16.6811L3.31885 16.842L3.58291 17.1654L3.3501 16.8186L3.23291 16.6451L3.1751 16.5576C3.15479 16.5264 3.1376 16.5045 3.13447 16.4795C3.12979 16.4576 3.13447 16.4201 3.13447 16.3842L3.13604 16.2795C3.13604 16.2076 3.14072 16.142 3.1376 16.0654C3.13447 15.9873 3.1001 15.8936 3.02354 15.8373C2.94541 15.7826 2.8626 15.7686 2.77197 15.7748L2.79541 15.9326V15.9326Z" fill="#4A2F27"/>
<path d="M3.12949 16.4625C3.16543 16.4453 3.22168 16.4343 3.26387 16.4437C3.30918 16.45 3.3498 16.4781 3.38262 16.5172L3.62012 16.8109L3.67637 16.8812L3.70449 16.7969C3.76074 16.625 3.88105 16.4547 4.05449 16.3781C4.22949 16.2984 4.43887 16.3297 4.61855 16.4062C4.44512 16.3172 4.23574 16.264 4.0373 16.3344C3.94043 16.3687 3.85293 16.4297 3.78262 16.5047C3.7123 16.5812 3.65605 16.6672 3.61387 16.7672L3.69824 16.7531L3.48418 16.4406C3.44199 16.3812 3.37637 16.325 3.29668 16.3062C3.21699 16.2859 3.14199 16.2906 3.0623 16.3203L3.12949 16.4625ZM2.3623 15.1453V15.1734L2.36543 15.2765C2.4498 15.2734 2.54824 15.289 2.61387 15.3328C2.68418 15.375 2.7123 15.4437 2.7123 15.5437L2.73105 16.1531L2.74199 16.4593C2.73574 16.514 2.76855 16.5797 2.80293 16.6125L2.89824 16.7312L3.27949 17.2094L2.93105 16.7078L2.84199 16.5812C2.80918 16.539 2.79668 16.5078 2.80137 16.4578L2.81074 16.1515L2.83105 15.539C2.83418 15.4906 2.83105 15.4219 2.80918 15.364C2.78887 15.3078 2.70293 15.1312 2.40449 15.1078C2.38262 15.1094 2.36543 15.1234 2.3623 15.1453V15.1453Z" fill="#4A2F27"/>
<path d="M12.6343 6.25935C12.5405 6.08748 12.6609 5.91404 12.8655 5.69685C13.1905 5.35466 13.5452 4.55935 13.2155 3.7531C13.2171 3.74841 13.1515 3.61248 13.153 3.60779L13.0171 3.60154C12.9734 3.59529 11.4874 3.59216 9.99992 3.59216C8.51242 3.59216 7.02648 3.59529 6.98273 3.60154C6.98273 3.60154 6.78273 3.74841 6.7843 3.7531C6.45617 4.56091 6.8093 5.35466 7.1343 5.69685C7.33898 5.91248 7.4593 6.08748 7.36555 6.25935C7.27492 6.42654 7.00148 6.44998 7.00148 6.44998C7.00148 6.44998 7.06398 6.62029 7.21555 6.71248C7.35617 6.79685 7.52648 6.81716 7.6468 6.82029C7.6468 6.82029 8.11086 7.46248 9.32492 7.46248H10.6749C11.8874 7.46248 12.353 6.82029 12.353 6.82029C12.4718 6.81716 12.6437 6.79685 12.7827 6.71248C12.9343 6.62029 12.9968 6.44998 12.9968 6.44998C12.9968 6.44998 12.7249 6.42654 12.6343 6.25935V6.25935Z" fill="#232020"/>
<path d="M9.99854 7.46252V6.75002L12.1548 6.57971L12.3501 6.82034C12.3501 6.82034 11.886 7.46252 10.672 7.46252H9.99854V7.46252Z" fill="url(#paint13_radial_4359_2834)"/>
<path d="M12.347 6.50938C12.0235 6.01875 12.7407 5.83594 12.7407 5.83594C12.6157 5.99063 12.5595 6.12656 12.6329 6.25938C12.7235 6.42656 12.9954 6.45 12.9954 6.45C12.9954 6.45 12.6267 6.77969 12.347 6.50938V6.50938Z" fill="url(#paint14_radial_4359_2834)"/>
<path d="M13.2171 3.7531C13.5374 4.53435 13.1999 5.33904 12.8843 5.6781C12.8405 5.72498 12.6577 5.90466 12.6155 6.04998C12.6155 6.04998 11.8952 5.04529 11.6796 4.45623C11.6358 4.33748 11.5968 4.21404 11.5921 4.08748C11.5874 3.99216 11.603 3.87966 11.6577 3.79841C11.7249 3.69998 13.1796 3.67029 13.1796 3.67029C13.178 3.67185 13.2171 3.7531 13.2171 3.7531V3.7531Z" fill="url(#paint15_radial_4359_2834)"/>
<path d="M6.78458 3.75332C6.46427 4.53457 6.80177 5.33926 7.1174 5.67832C7.16115 5.7252 7.34396 5.90488 7.38615 6.0502C7.38615 6.0502 8.10646 5.04551 8.32208 4.45645C8.36583 4.3377 8.4049 4.21426 8.40958 4.0877C8.41427 3.99238 8.39865 3.87988 8.34396 3.79863C8.27677 3.7002 8.19865 3.7252 8.08458 3.7252C7.8674 3.7252 6.91583 3.66895 6.8424 3.66895C6.84396 3.67207 6.78458 3.75332 6.78458 3.75332V3.75332Z" fill="url(#paint16_radial_4359_2834)"/>
<path d="M10.003 7.46252V6.75002L7.84678 6.57971L7.6499 6.82034C7.6499 6.82034 8.11397 7.46252 9.32803 7.46252H10.003V7.46252Z" fill="url(#paint17_radial_4359_2834)"/>
<path d="M7.65488 6.50938C7.97832 6.01875 7.26113 5.83594 7.26113 5.83594C7.38613 5.99063 7.44238 6.12656 7.36895 6.25938C7.27832 6.42656 7.00488 6.45 7.00488 6.45C7.00488 6.45 7.37676 6.77969 7.65488 6.50938V6.50938Z" fill="url(#paint18_radial_4359_2834)"/>
<path d="M9.9999 6.98457H9.25303V7.7752C9.25303 8.13301 9.55615 8.42207 9.93115 8.42207H10.0671C10.4421 8.42207 10.7452 8.13301 10.7452 7.7752V6.98457H9.9999ZM12.053 4.05176H7.94678C7.50459 4.05176 7.14209 4.4377 7.14209 4.90957C7.14209 5.38145 7.50459 5.76738 7.94678 5.76738H12.053C12.4952 5.76738 12.8577 5.38145 12.8577 4.90957C12.8577 4.4377 12.4952 4.05176 12.053 4.05176V4.05176Z" fill="#3C2B24"/>
<path d="M10.0002 1.09534C8.69238 1.09534 7.48145 2.49377 7.48145 4.50627C7.48145 6.50784 8.72832 7.4969 10.0002 7.4969C11.2721 7.4969 12.5189 6.50784 12.5189 4.50627C12.5189 2.49221 11.308 1.09534 10.0002 1.09534V1.09534Z" fill="#70534A"/>
<path d="M9.3111 3.93904C9.24079 3.84529 9.07673 3.70935 8.75798 3.70935C8.44079 3.70935 8.27673 3.84529 8.20485 3.93904C8.1736 3.98123 8.18142 4.0281 8.20329 4.05779C8.2236 4.08435 8.28298 4.10935 8.3486 4.08748C8.41423 4.0656 8.54235 3.99841 8.75798 3.99685C8.9736 3.99841 9.10173 4.06404 9.16735 4.08748C9.23298 4.10935 9.29235 4.08435 9.31267 4.05779C9.33454 4.0281 9.34235 3.98123 9.3111 3.93904ZM11.7939 3.93904C11.7236 3.84529 11.5595 3.70935 11.2408 3.70935C10.922 3.70935 10.7595 3.84529 10.6877 3.93904C10.6564 3.98123 10.6642 4.0281 10.6861 4.05779C10.7064 4.08435 10.7658 4.10935 10.8314 4.08748C10.897 4.0656 11.0252 3.99841 11.2408 3.99685C11.4564 3.99841 11.5845 4.06404 11.6502 4.08748C11.7158 4.10935 11.7752 4.08435 11.7955 4.05779C11.8174 4.0281 11.8252 3.98123 11.7939 3.93904Z" fill="#1A1717"/>
<path d="M10.2907 5.37637C10.2829 5.37324 10.275 5.37168 10.2672 5.37012H9.73599C9.72817 5.37168 9.72036 5.37324 9.71255 5.37637C9.66411 5.39512 9.63755 5.44512 9.66099 5.49824C9.68442 5.55137 9.78911 5.6998 10.0032 5.6998C10.2157 5.6998 10.3219 5.5498 10.3454 5.49824C10.3498 5.48665 10.3519 5.4743 10.3516 5.46189C10.3512 5.44948 10.3484 5.43726 10.3433 5.42594C10.3383 5.41461 10.331 5.4044 10.322 5.3959C10.3129 5.38739 10.3023 5.38075 10.2907 5.37637Z" fill="#33251F"/>
<path d="M10.625 5.98281C10.389 6.12344 9.61402 6.12344 9.37652 5.98281C9.24059 5.90156 9.10152 6.025 9.15777 6.14844C9.21246 6.27031 9.6359 6.55156 10.0015 6.55156C10.3671 6.55156 10.7843 6.27031 10.8406 6.14844C10.8968 6.02656 10.7609 5.90312 10.625 5.98281V5.98281ZM8.77496 4.79375C8.62027 4.79375 8.48121 4.75625 8.3859 4.69687C8.34527 4.67187 8.32027 4.68594 8.32809 4.73437C8.35621 4.92031 8.54527 5.06562 8.77496 5.06562C9.00465 5.06562 9.19371 4.92187 9.22184 4.73437C9.22965 4.68594 9.20465 4.67031 9.16402 4.69687C9.06715 4.75625 8.92965 4.79375 8.77496 4.79375V4.79375ZM11.225 4.79375C11.0703 4.79375 10.9312 4.75625 10.8359 4.69687C10.7953 4.67187 10.7703 4.68594 10.7781 4.73437C10.8062 4.92031 10.9953 5.06562 11.225 5.06562C11.4546 5.06562 11.6437 4.92187 11.6718 4.73437C11.6796 4.68594 11.6546 4.67031 11.614 4.69687C11.5171 4.75625 11.3796 4.79375 11.225 4.79375V4.79375Z" fill="#1A1717"/>
<path d="M13.0376 2.12814C12.8532 1.85002 12.4407 1.47502 12.0704 1.45158C12.011 1.09533 11.6297 0.793766 11.261 0.676579C10.2626 0.359391 9.61255 0.714079 9.26255 0.904704C9.18911 0.943766 8.72193 1.2047 8.3938 1.0172C8.18911 0.900016 8.19224 0.584391 8.19224 0.584391C8.19224 0.584391 7.54849 0.829704 7.7688 1.51252C7.54849 1.52189 7.25786 1.61408 7.10474 1.92502C6.92193 2.29377 6.98755 2.60314 7.03911 2.75158C6.84849 2.91252 6.60942 3.25627 6.77349 3.70314C6.89692 4.03908 7.39067 4.19377 7.39067 4.19377C7.3563 4.79845 7.4688 5.17033 7.52817 5.32033C7.53911 5.34689 7.57661 5.34377 7.58286 5.3172C7.65786 5.0172 7.91255 3.97345 7.88755 3.7922C7.88755 3.7922 8.7438 3.62189 9.56099 3.02189C9.72674 2.89871 9.90732 2.79687 10.0985 2.71877C11.1235 2.31095 11.3391 3.00627 11.3391 3.00627C11.3391 3.00627 12.05 2.87033 12.2641 3.85627C12.3438 4.22658 12.4001 4.81877 12.4454 5.23283C12.4485 5.26252 12.4891 5.26877 12.5001 5.24064C12.5719 5.07658 12.7157 4.75002 12.75 4.4172C12.7625 4.30002 13.0782 4.14533 13.2125 3.6422C13.3938 2.97345 13.1719 2.3297 13.0376 2.12814V2.12814Z" fill="#232020"/>
<path d="M12.7468 4.42188C12.7593 4.30469 13.0749 4.15 13.2093 3.64687C13.2233 3.59375 13.2358 3.53906 13.2468 3.48437C13.3562 2.87344 13.1593 2.3125 13.0358 2.12812C12.8655 1.87031 12.4999 1.53281 12.153 1.4625C12.124 1.45791 12.0948 1.45479 12.0655 1.45312C12.0655 1.45312 12.0905 1.61562 12.0249 1.74531C11.9405 1.9125 11.7671 1.95312 11.7671 1.95312C12.6733 2.85625 12.6093 3.6125 12.7468 4.42188V4.42188Z" fill="url(#paint19_radial_4359_2834)"/>
<path d="M9.48108 0.790601C9.39826 0.831226 9.32483 0.870288 9.26233 0.904663C9.18889 0.943726 8.7217 1.20466 8.39358 1.01716C8.19201 0.903101 8.19201 0.596851 8.19201 0.584351C8.09983 0.703101 7.81858 1.54841 8.63889 1.60466C8.99358 1.6281 9.21076 1.32029 9.34045 1.05935C9.38889 0.965601 9.46233 0.828101 9.48108 0.790601Z" fill="url(#paint20_radial_4359_2834)"/>
<path d="M11.1577 0.64531C11.7109 0.79531 11.9796 1.07656 12.0687 1.45156C12.0952 1.56094 12.1265 2.58906 10.164 1.42187C9.4343 0.987498 9.63273 0.715623 9.71867 0.684373C10.0546 0.564061 10.539 0.478123 11.1577 0.64531Z" fill="url(#paint21_radial_4359_2834)"/>
<path d="M8.19082 0.585913C8.18926 0.585913 8.1877 0.587476 8.18614 0.587476C8.11582 0.617163 7.56426 0.871851 7.77051 1.51248L8.35801 1.60779C7.8377 1.08123 8.19395 0.584351 8.19395 0.584351L8.19082 0.585913V0.585913Z" fill="url(#paint22_radial_4359_2834)"/>
<path d="M8.13285 1.57185L7.77035 1.51404C7.75629 1.51404 7.70785 1.51873 7.68129 1.52185C7.4766 1.54998 7.23598 1.65623 7.10629 1.92654C6.96566 2.21716 6.97035 2.46873 7.00785 2.63435C7.01879 2.6906 7.04223 2.7531 7.04223 2.7531C7.04223 2.7531 7.22191 2.58279 7.65004 2.57185L8.13285 1.57185V1.57185Z" fill="url(#paint23_radial_4359_2834)"/>
<path d="M7.02351 2.76719C6.84383 2.92656 6.6032 3.27969 6.78133 3.71875C6.9157 4.05 7.39226 4.19375 7.39226 4.19375C7.39226 4.19531 7.48758 4.22344 7.53601 4.22344L7.64851 2.57031C7.42039 2.57031 7.20008 2.63906 7.05789 2.7375C7.05945 2.74062 7.02195 2.76406 7.02351 2.76719V2.76719Z" fill="url(#paint24_radial_4359_2834)"/>
<defs>
<linearGradient id="paint0_linear_4359_2834" x1="14.1181" y1="9.93551" x2="14.1181" y2="16.9452" gradientUnits="userSpaceOnUse">
<stop stop-color="#5C4037"/>
<stop offset="0.5" stop-color="#70534A"/>
</linearGradient>
<linearGradient id="paint1_linear_4359_2834" x1="5.81043" y1="9.93551" x2="5.81043" y2="16.9452" gradientUnits="userSpaceOnUse">
<stop stop-color="#5C4037"/>
<stop offset="0.5" stop-color="#70534A"/>
</linearGradient>
<linearGradient id="paint2_linear_4359_2834" x1="10.0004" y1="7.51013" x2="10.0004" y2="15.0808" gradientUnits="userSpaceOnUse">
<stop stop-color="#F78C1F"/>
<stop offset="1" stop-color="#ED6D23"/>
</linearGradient>
<linearGradient id="paint3_linear_4359_2834" x1="8.07321" y1="18.9719" x2="8.07321" y2="15.1767" gradientUnits="userSpaceOnUse">
<stop stop-color="#5C4037"/>
<stop offset="0.377" stop-color="#70534A"/>
</linearGradient>
<linearGradient id="paint4_linear_4359_2834" x1="4.13312" y1="16.8076" x2="4.91809" y2="17.7765" gradientUnits="userSpaceOnUse">
<stop stop-color="#5C4037"/>
<stop offset="0.5" stop-color="#70534A" stop-opacity="0"/>
</linearGradient>
<linearGradient id="paint5_linear_4359_2834" x1="5.60052" y1="17.4639" x2="17.501" y2="17.4639" gradientUnits="userSpaceOnUse">
<stop offset="0.778" stop-color="#70534A"/>
<stop offset="1" stop-color="#5C4037"/>
</linearGradient>
<linearGradient id="paint6_linear_4359_2834" x1="7.57906" y1="17.3458" x2="7.10234" y2="18.2403" gradientUnits="userSpaceOnUse">
<stop stop-color="#5C4037"/>
<stop offset="0.5" stop-color="#70534A" stop-opacity="0"/>
</linearGradient>
<linearGradient id="paint7_linear_4359_2834" x1="17.2541" y1="18.5926" x2="6.24271" y2="16.2489" gradientUnits="userSpaceOnUse">
<stop stop-color="#5C4037"/>
<stop offset="0.338" stop-color="#70534A"/>
</linearGradient>
<linearGradient id="paint8_linear_4359_2834" x1="12.4719" y1="16.8723" x2="12.1851" y2="14.9894" gradientUnits="userSpaceOnUse">
<stop offset="0.078" stop-color="#5C4037"/>
<stop offset="0.693" stop-color="#70534A"/>
</linearGradient>
<linearGradient id="paint9_linear_4359_2834" x1="17.7091" y1="16.7583" x2="16.1024" y2="15.6527" gradientUnits="userSpaceOnUse">
<stop stop-color="#5C4037"/>
<stop offset="0.5" stop-color="#70534A"/>
</linearGradient>
<linearGradient id="paint10_linear_4359_2834" x1="16.7101" y1="16.4851" x2="16.4558" y2="16.0761" gradientUnits="userSpaceOnUse">
<stop stop-color="#5C4037"/>
<stop offset="1" stop-color="#70534A" stop-opacity="0"/>
</linearGradient>
<linearGradient id="paint11_linear_4359_2834" x1="2.1849" y1="16.5083" x2="4.48459" y2="15.609" gradientUnits="userSpaceOnUse">
<stop stop-color="#5C4037"/>
<stop offset="0.5" stop-color="#70534A"/>
</linearGradient>
<linearGradient id="paint12_linear_4359_2834" x1="3.26484" y1="16.379" x2="3.61313" y2="15.9477" gradientUnits="userSpaceOnUse">
<stop stop-color="#5C4037"/>
<stop offset="1" stop-color="#70534A" stop-opacity="0"/>
</linearGradient>
<radialGradient id="paint13_radial_4359_2834" cx="0" cy="0" r="1" gradientUnits="userSpaceOnUse" gradientTransform="translate(11.1007 6.433) scale(1.7675 0.868196)">
<stop offset="0.728" stop-color="#444140" stop-opacity="0"/>
<stop offset="1" stop-color="#444140"/>
</radialGradient>
<radialGradient id="paint14_radial_4359_2834" cx="0" cy="0" r="1" gradientUnits="userSpaceOnUse" gradientTransform="translate(12.8422 6.16989) rotate(154.924) scale(0.522317 0.387485)">
<stop offset="0.663" stop-color="#444140"/>
<stop offset="1" stop-color="#444140" stop-opacity="0"/>
</radialGradient>
<radialGradient id="paint15_radial_4359_2834" cx="0" cy="0" r="1" gradientUnits="userSpaceOnUse" gradientTransform="translate(11.4881 4.6928) rotate(-94.2783) scale(2.29434 1.91219)">
<stop offset="0.725" stop-color="#444140" stop-opacity="0"/>
<stop offset="1" stop-color="#444140"/>
</radialGradient>
<radialGradient id="paint16_radial_4359_2834" cx="0" cy="0" r="1" gradientUnits="userSpaceOnUse" gradientTransform="translate(8.51397 4.69304) rotate(-85.7217) scale(2.29434 1.91219)">
<stop offset="0.725" stop-color="#444140" stop-opacity="0"/>
<stop offset="1" stop-color="#444140"/>
</radialGradient>
<radialGradient id="paint17_radial_4359_2834" cx="0" cy="0" r="1" gradientUnits="userSpaceOnUse" gradientTransform="translate(8.901 6.433) rotate(180) scale(1.7675 0.868196)">
<stop offset="0.728" stop-color="#444140" stop-opacity="0"/>
<stop offset="1" stop-color="#444140"/>
</radialGradient>
<radialGradient id="paint18_radial_4359_2834" cx="0" cy="0" r="1" gradientUnits="userSpaceOnUse" gradientTransform="translate(7.1602 6.16995) rotate(25.0761) scale(0.522317 0.387485)">
<stop offset="0.663" stop-color="#444140"/>
<stop offset="1" stop-color="#444140" stop-opacity="0"/>
</radialGradient>
<radialGradient id="paint19_radial_4359_2834" cx="0" cy="0" r="1" gradientUnits="userSpaceOnUse" gradientTransform="translate(11.3734 3.48209) rotate(72.0851) scale(2.68918 1.99531)">
<stop offset="0.699" stop-color="#444140" stop-opacity="0"/>
<stop offset="1" stop-color="#444140"/>
</radialGradient>
<radialGradient id="paint20_radial_4359_2834" cx="0" cy="0" r="1" gradientUnits="userSpaceOnUse" gradientTransform="translate(8.75179 0.550271) rotate(28.2026) scale(0.70517 0.836127)">
<stop offset="0.58" stop-color="#444140"/>
<stop offset="1" stop-color="#444140" stop-opacity="0"/>
</radialGradient>
<radialGradient id="paint21_radial_4359_2834" cx="0" cy="0" r="1" gradientUnits="userSpaceOnUse" gradientTransform="translate(10.328 1.83043) rotate(-157.19) scale(2.20529 1.23938)">
<stop offset="0.699" stop-color="#444140" stop-opacity="0"/>
<stop offset="1" stop-color="#444140"/>
</radialGradient>
<radialGradient id="paint22_radial_4359_2834" cx="0" cy="0" r="1" gradientUnits="userSpaceOnUse" gradientTransform="translate(8.46895 1.19329) scale(0.647188 0.791704)">
<stop offset="0.702" stop-color="#444140" stop-opacity="0"/>
<stop offset="1" stop-color="#444140"/>
</radialGradient>
<radialGradient id="paint23_radial_4359_2834" cx="0" cy="0" r="1" gradientUnits="userSpaceOnUse" gradientTransform="translate(8.37942 2.33609) rotate(-164.942) scale(1.21395 1.13604)">
<stop offset="0.66" stop-color="#444140" stop-opacity="0"/>
<stop offset="1" stop-color="#444140"/>
</radialGradient>
<radialGradient id="paint24_radial_4359_2834" cx="0" cy="0" r="1" gradientUnits="userSpaceOnUse" gradientTransform="translate(8.09231 3.50775) rotate(7.83355) scale(1.27442 1.79076)">
<stop offset="0.598" stop-color="#444140" stop-opacity="0"/>
<stop offset="1" stop-color="#444140"/>
</radialGradient>
</defs>
</svg>
