<svg width="20" height="20" viewBox="0 0 20 20" fill="none" xmlns="http://www.w3.org/2000/svg">
<path d="M2.36241 1.75801C2.36241 1.75801 2.13741 1.18613 2.40303 0.718947C2.66866 0.25176 3.24834 0.22051 3.51397 0.228322C3.77959 0.236135 3.91709 0.25176 4.01241 0.187697C4.10772 0.123635 4.13272 -0.013865 4.28584 0.0908225C4.43897 0.19551 4.46241 0.38926 4.47959 0.50176C4.49522 0.61426 4.46397 0.856447 4.46397 0.856447C4.46397 0.856447 4.75303 0.975197 5.03428 0.887697C5.31553 0.798635 5.45459 0.647072 5.65616 0.704885C5.85772 0.761135 5.72491 1.2752 5.53584 1.51738C5.31084 1.80801 5.10303 1.90957 4.98272 2.0627C4.86241 2.21582 4.83584 2.31582 4.66709 2.3877C4.49522 2.45801 2.36241 1.75801 2.36241 1.75801V1.75801Z" fill="#FFE365"/>
<path d="M2.74064 1.06562C2.83908 1.17656 3.02189 1.05781 3.23908 0.912495C3.45627 0.767183 3.70627 0.670308 3.65002 0.53437C3.59377 0.39687 3.20783 0.429682 2.99846 0.557807C2.84221 0.654682 2.61096 0.920308 2.74064 1.06562Z" fill="white"/>
<path d="M1.65306 2.69217C1.65306 2.69217 1.27494 2.84374 1.26713 3.61717C1.26244 4.11092 1.70931 4.93124 3.18275 5.01092C4.82181 5.09999 5.24369 4.34217 5.29213 3.73124C5.34056 3.11874 4.98588 2.53124 4.49525 2.2828C4.00463 2.03436 2.48275 2.15467 2.48275 2.15467L1.65306 2.69217V2.69217Z" fill="#474C4F"/>
<path d="M1.428 2.74842C1.428 2.74842 1.35769 2.55467 1.32019 2.44217C1.29988 2.38123 1.21394 2.16404 1.31082 2.04998C1.40769 1.93748 1.70457 2.14842 1.87957 2.03904C2.06707 1.92029 1.91707 1.50467 2.1405 1.37967C2.37332 1.24842 2.53269 1.75311 2.86863 1.71717C3.2405 1.67811 3.23582 1.17342 3.50144 1.16561C3.76707 1.15779 3.76082 1.72654 4.05144 1.78123C4.30144 1.82811 4.56394 1.48279 4.78582 1.65311C4.95925 1.78592 4.78425 2.10154 4.94519 2.26248C5.10613 2.42342 5.378 2.28279 5.47332 2.39686C5.59363 2.54217 5.24207 3.01092 5.24207 3.01092L3.98894 2.09529L2.18582 2.18436L1.428 2.74842V2.74842Z" fill="#42A18E"/>
<path d="M1.26416 3.62636C1.26416 3.62636 1.32823 3.25136 1.6876 2.86699C2.01416 2.51855 2.49385 2.19511 3.32041 2.24199C4.12666 2.28886 4.68291 2.65449 4.98291 3.03886C5.25479 3.38886 5.29229 3.72949 5.29229 3.72949C5.29229 3.72949 5.7001 1.88105 3.29698 1.79824C0.957915 1.72011 1.26416 3.62636 1.26416 3.62636V3.62636Z" fill="#ADD4C1"/>
<path d="M9.5797 15.4783C9.5797 15.4783 9.72345 15.0643 9.8422 14.8815C10.0359 14.583 10.2359 14.4736 10.2359 14.4736L10.3094 11.5877L8.91095 10.3783C8.91095 10.3783 6.40001 9.19239 6.44845 9.08145C6.4922 8.97676 6.69376 9.04239 6.90626 9.13926C7.0672 9.21114 9.51095 10.1486 9.51095 10.1486L10.2828 9.43145C10.2828 9.43145 8.75001 6.33614 8.80001 6.30489C8.84376 6.27833 8.92032 6.25958 9.01407 6.38614C9.07657 6.47051 10.8813 9.32051 10.8813 9.32051L11.8281 9.19708C11.8281 9.19708 12.325 5.96114 12.4359 5.96583C12.6063 5.97364 12.5031 6.90801 12.4609 7.54551C12.425 8.08458 12.2516 9.6627 12.2516 9.6627L12.9219 9.89551C12.9219 9.89551 15.1203 7.60333 15.1641 7.63145C15.2078 7.66114 15.275 7.73614 15.1438 7.9252C15.0125 8.11426 13.4797 10.2799 13.5484 10.3549C13.6016 10.4158 13.6766 10.5611 13.7563 10.6815C13.8438 10.8127 14.2344 10.9736 14.2344 10.9736L16.7406 9.92364C16.7406 9.92364 16.8547 10.094 16.5781 10.2252C16.3016 10.3565 14.2281 11.4721 14.2281 11.4721C14.2281 11.4721 14.4625 11.8752 14.4219 12.5002C14.3813 13.1268 14.2406 13.3783 14.2406 13.3783C14.2406 13.3783 14.8875 14.0846 14.9375 14.6611C14.9875 15.2361 14.8906 15.8393 14.8906 15.8393L14.9047 15.9971L16.8797 16.8408C16.8797 16.8408 17.1344 17.0111 17.2141 17.1283C17.2938 17.2455 17.6813 17.8252 17.9266 18.2064C18.1719 18.5877 18.4953 19.2596 18.4531 19.3033C18.4109 19.3471 18.3359 19.344 18.2297 19.344H11.9484L8.80782 18.8299L9.5797 15.4783V15.4783Z" fill="#25836E"/>
<path d="M15.9938 17.575C15.8844 17.1922 15.7251 16.7672 15.7344 16.6672C15.7438 16.5672 16.0766 16.3797 16.0766 16.3797C16.0766 16.3797 15.5579 15.9422 15.3751 15.8797C15.1922 15.8156 14.8829 15.8063 14.8829 15.8063C14.8829 15.8063 14.8922 15.5875 14.6469 15.3063C14.4016 15.025 14.1469 14.4234 14.1469 14.4234L13.911 13.8766L13.6657 15.2781C13.6657 15.2781 13.6954 15.4328 13.6922 15.5328C13.686 15.7406 13.5469 15.7875 13.5469 15.7875C13.5469 15.7875 12.2954 15.8422 12.211 15.7953C12.1157 15.7422 11.9438 15.7125 11.9626 15.4422C11.9735 15.2875 12.1188 15.1266 12.2313 14.8484C12.3094 14.6563 12.2501 14.3344 12.0672 14.1703C11.8844 14.0063 11.6532 13.8594 11.6157 13.6406C11.5797 13.4219 11.6891 13.2484 11.9438 12.9766C12.1985 12.7031 12.2797 12.4172 12.211 12.1031C12.1719 11.925 12.1672 11.7922 12.2313 11.6969C12.3235 11.5625 12.4626 11.6641 12.6172 11.8641C12.7704 12.0641 13.0485 12.4578 13.2766 12.5047C13.5047 12.5516 13.7297 12.3828 13.7235 11.9578C13.7157 11.5125 13.6594 11.0281 13.2844 10.4734C13.1891 10.3328 13.3985 10.0828 13.3985 10.0828C13.3985 10.0828 15.1704 7.71251 15.1813 7.66876C15.1907 7.62501 15.0594 7.57813 14.9876 7.64219C14.9219 7.70157 13.2235 9.41563 12.9438 9.69688C12.7032 9.4922 12.4219 9.30782 12.1001 9.18595C12.0938 9.18282 12.0891 9.18126 12.0891 9.18126L12.4485 5.97188C12.4485 5.97188 12.336 5.88282 12.2313 6.17969C12.1391 6.44376 11.6657 8.57969 11.561 9.05313C11.2969 9.02032 11.0126 9.03126 10.7079 9.10157C10.636 9.11876 10.5688 9.13751 10.5032 9.15782L8.79693 6.29844C8.79693 6.29844 8.70006 6.32188 8.83756 6.65157C8.95943 6.94532 9.74537 8.99376 9.91412 9.43438C9.58131 9.65938 9.36256 9.95157 9.21881 10.2484C9.19381 10.3031 9.17975 10.3422 9.17975 10.3422L6.44693 9.07813C6.44693 9.07813 6.37037 9.19845 6.53912 9.30313C6.69225 9.39845 8.66881 10.5797 9.02662 10.7984C8.91568 11.2813 8.95318 11.7641 8.95318 11.7641L8.96256 11.9109L9.13131 12.9453L9.386 14.0984C9.386 14.0984 9.50162 14.2859 9.69537 14.3344C9.88756 14.3828 10.0235 14.3656 10.0235 14.3656C10.0235 14.3656 10.1735 14.5594 10.2563 14.7391C10.3344 14.9109 10.4282 15.175 10.2938 15.3297C10.1594 15.4844 9.7485 15.4641 9.7485 15.4641C9.7485 15.4641 9.28443 15.0422 9.24381 15.0203C9.20318 15 8.18287 14.65 8.18287 14.65L8.19381 14.4031C8.19381 14.4031 8.13131 13.9188 7.98756 13.6609C7.84381 13.4031 7.57506 13.2078 7.57506 13.2078C7.57506 13.2078 7.54381 12.7547 7.26568 12.5891C6.98756 12.4234 6.91568 12.3734 6.91568 12.3734C6.91568 12.3734 6.88443 11.6625 6.60631 11.0859C6.32818 10.5094 5.98756 9.98282 5.54537 8.71563C5.10162 7.44844 4.96881 6.93282 4.886 6.44844C4.80318 5.96407 4.60475 5.62969 4.42193 5.34532C4.236 5.05626 3.986 4.70001 3.986 4.70001C3.986 4.70001 4.23287 4.47813 4.25787 4.03594C4.27975 3.65938 3.98443 3.11407 3.22818 3.08751C2.47037 3.06094 2.14381 3.55782 2.13131 4.02969C2.12037 4.41876 2.42975 4.65782 2.42975 4.65782C2.42975 4.65782 2.01568 5.50626 2.02506 5.67188C2.036 5.83751 2.161 5.96719 2.21256 6.01876C2.26412 6.07032 2.50006 6.28907 2.50006 6.28907L2.46568 7.90938C2.46568 7.90938 2.58756 8.06407 2.9235 8.04063C3.23131 8.01876 3.39693 7.58126 3.39693 7.58126C3.39693 7.58126 3.45006 8.45001 3.55318 9.35626C3.65631 10.2625 3.95475 11.4406 3.95475 11.4406L5.18131 13.9656L4.90318 16.2531L5.30162 18.5719C5.30162 18.5719 5.25943 19.2063 5.31881 19.3172C5.35006 19.3766 5.436 19.3703 5.50787 19.3703C5.57975 19.3703 12.4719 19.3469 12.4719 19.3469C12.4719 19.3469 12.3454 19.0922 12.0641 19.0281C11.7813 18.9641 11.5813 19.0547 11.4813 18.9094C11.3813 18.7641 11.7172 18.3906 11.7719 18.3359C11.8266 18.2813 14.1016 15.8688 14.1016 15.8688C14.1016 15.8688 14.4297 15.8047 14.5297 15.9969C14.6297 16.1875 14.4204 16.6891 14.511 17.1891C14.6016 17.6891 14.8751 19.3469 14.8751 19.3469H16.5766C16.5766 19.3469 16.1032 17.9578 15.9938 17.575V17.575Z" fill="#42A18E"/>
<path d="M8.98146 11.7471C8.98146 11.7471 7.00802 12.5143 7.05959 12.658C7.11115 12.8018 9.10959 12.4064 9.10959 12.4064L8.98146 11.7471ZM9.13146 12.9471C9.09865 12.9205 7.70959 14.158 7.77209 14.2299C7.85334 14.3236 9.33771 13.6221 9.33771 13.6221L9.13146 12.9471V12.9471Z" fill="#42A18E"/>
<path d="M2.88416 4.03763C2.84041 3.98607 2.68728 3.9345 2.70916 3.81107C2.73103 3.68607 2.87009 3.59232 3.16228 3.60638C3.45447 3.62044 3.75603 3.87513 3.90134 4.10325C3.96384 4.20013 3.98103 4.52669 3.84353 4.59388C3.70291 4.65794 2.88416 4.03763 2.88416 4.03763V4.03763Z" fill="#25836E"/>
<path d="M3.44071 5.01721C3.4704 5.1344 3.44228 5.49065 3.49228 5.75627C3.55165 6.0719 3.67509 6.22502 3.83603 6.21721C4.18759 6.20315 4.0204 4.98128 3.96884 4.83596C3.91728 4.68909 3.66103 4.32034 3.48446 4.1594C3.4079 4.08909 2.86728 3.86409 2.7954 3.92503C2.70946 4.00003 2.74696 4.18596 3.0954 4.48909C3.33915 4.70002 3.44071 5.01721 3.44071 5.01721V5.01721ZM2.88446 4.60003C2.89853 4.76878 2.73134 4.79065 2.73134 4.79065C2.73134 4.79065 2.80478 4.88596 2.76728 4.99534C2.73134 5.10471 2.51103 5.15627 2.51103 5.15627C2.51103 5.15627 2.60321 5.21096 2.57509 5.2969C2.52978 5.44221 2.37353 5.42659 2.23915 5.52346C2.1454 5.59221 2.03759 5.75315 2.03759 5.75315C2.03759 5.75315 1.86571 5.56878 1.93915 5.20784C1.98915 4.96096 2.07665 4.5844 2.15946 4.51252C2.38603 4.31409 2.86571 4.39534 2.88446 4.60003V4.60003ZM2.3204 6.14534C2.3204 6.14534 2.35009 5.80784 2.57665 5.67659C2.84071 5.52346 2.94228 5.6844 2.97978 5.72034C3.01728 5.75627 2.96571 7.36096 2.95009 7.46409C2.93603 7.56721 2.71884 8.03596 2.52196 7.95471C2.32353 7.87346 2.29853 7.2219 2.30634 6.81877C2.31259 6.41565 2.3204 6.14534 2.3204 6.14534ZM16.897 19.3438C16.9267 19.3735 17.0001 19.3672 17.0548 19.3438C17.1095 19.3203 17.2798 18.4953 17.2532 17.8141C17.2298 17.1953 17.1813 17.1 17.1813 17.1C17.1813 17.1 16.9204 16.7594 16.5157 16.4094C16.1642 16.1063 15.3626 15.8406 15.3595 15.8735C15.3517 15.961 15.8517 16.2875 16.1657 17C16.4501 17.6453 16.6751 18.4078 16.7313 18.661C16.786 18.9156 16.8579 19.3047 16.897 19.3438V19.3438ZM14.0735 13.4282C14.0813 13.4672 13.9954 13.6828 14.0173 13.9172C14.0407 14.1781 14.1876 14.4657 14.1798 14.4891C14.172 14.5125 14.0767 14.5438 13.9813 14.7907C13.886 15.036 13.9642 15.4313 13.8813 15.436C13.6235 15.45 13.1845 14.7922 13.2251 14.111C13.2876 13.0797 14.0735 13.4282 14.0735 13.4282V13.4282ZM13.697 12.0219C13.7579 12.0032 13.7923 12.2766 13.661 12.3657C13.5313 12.4563 13.2485 12.3922 13.1298 12.2406C12.9376 11.9969 11.9063 9.71096 10.0954 10.6985C9.45946 11.0453 9.29228 11.6578 9.28134 12.3438C9.26884 13.1735 9.50165 14.0828 9.47509 14.1328C9.42509 14.2235 9.33915 14.0375 9.27353 13.8516C9.20321 13.6563 9.02978 13.0297 9.02821 12.2438C9.02665 11.5047 9.25165 10.7141 10.0345 10.3375C11.9673 9.40628 13.1579 11.5391 13.2392 11.7188C13.3204 11.9 13.4657 12.0922 13.697 12.0219V12.0219ZM3.98603 6.9594C3.82509 7.02034 3.84696 9.50159 3.78915 10.7266C3.78915 10.7313 3.85946 11.1828 4.02821 11.786C4.22196 12.475 4.94228 14.5125 4.91728 14.6828C4.89071 14.8531 4.45321 15.8328 4.37509 16.0688C4.29696 16.3031 4.20321 16.5594 4.2954 16.8578C4.34071 17.0063 4.42821 17.1 4.42821 17.1C4.42821 17.1 4.15478 17.7391 4.21884 18.0656C4.28446 18.3922 4.5829 18.5375 4.89228 18.6141C5.09071 18.6641 5.45946 18.5875 5.4079 18.3797C5.35634 18.1703 5.02196 17.3297 5.10009 16.9C5.18915 16.411 5.29071 16.0297 5.42196 15.6906C5.55321 15.3516 6.32353 13.4719 6.50634 13.2094C6.68915 12.9485 7.06884 12.9844 7.09384 12.8813C7.1204 12.7766 6.31259 12.2844 5.88134 11.9188C5.45009 11.5531 5.07821 11.125 5.07821 11.0672C5.07509 10.9438 5.13134 9.02346 5.05321 8.77502C4.97509 8.52659 4.7579 8.01565 4.49696 7.57815C4.2704 7.20315 4.15634 6.89378 3.98603 6.9594V6.9594Z" fill="#ADD4C1"/>
<path d="M6.80938 14.3672C6.74688 14.3188 6.45 14.45 6.21719 15.2141C6.01875 15.8672 5.79687 17.0547 6.10469 17.0438C6.25781 17.0391 6.52344 16.3672 6.76406 16.0094C6.95469 15.725 7.18438 15.425 7.16875 15.2969C7.15313 15.1688 6.77813 15.2375 6.78594 15.0422C6.79844 14.7625 6.87813 14.4203 6.80938 14.3672V14.3672ZM13.325 18.1672C12.9609 17.9 12.7875 17.8563 12.7875 17.8563C12.7875 17.8563 13.0906 17.3859 13.4016 17.0156C13.7125 16.6438 14.4391 15.9328 14.4172 15.8484C14.3937 15.7656 13.8875 15.6672 12.8344 15.6891C11.7812 15.7125 11.0234 15.7578 10.8734 15.7266C10.7219 15.6969 10.3578 15.3859 10.0406 15.3406C9.72188 15.2953 9.58594 15.2656 9.58594 15.2656C9.58594 15.2656 9.46406 15.0766 8.93438 14.8188C8.55625 14.6359 8.29844 14.5922 8.29844 14.5922C8.29844 14.5922 8.25781 14.3984 8.19844 14.3391C8.16875 14.3094 7.94375 14.575 7.79688 14.8297C7.65 15.0844 7.57187 15.35 7.51875 15.4266C7.46562 15.5031 7.34687 15.5688 6.86875 16.3422C6.39062 17.1156 5.94688 18.1016 5.73438 18.6813C5.52188 19.2594 5.50781 19.3719 5.50781 19.3719L6.00625 19.3672C6.00625 19.3672 6.07656 18.8 6.425 17.9563C6.77344 17.1109 7.15156 16.5625 7.19219 16.5859C7.23281 16.6094 6.96406 17.7781 6.81094 18.1688C6.65781 18.5578 6.275 19.3688 6.275 19.3688H7.37656C7.37656 19.3688 8.23594 18.3813 8.9625 17.7141C9.68906 17.0469 10.525 16.5375 10.9156 16.3531C11.3047 16.1703 11.6516 16.0797 11.6562 16.15C11.6609 16.2203 10.5156 16.9125 10.0188 17.3375C9.52344 17.7625 8.02031 19.3656 8.02031 19.3656L9.53125 19.3625C9.53125 19.3625 9.89688 18.5828 10.1625 18.1469C10.4281 17.7094 10.7703 17.2266 10.8297 17.2203C10.8891 17.2141 10.6578 18.0219 10.4437 18.5313C10.2141 19.0766 10.0359 19.3625 10.0359 19.3625L10.9187 19.3578C10.9187 19.3578 11.2609 18.3828 11.4906 17.7625C11.7203 17.1422 11.8859 16.5531 11.9391 16.5063C11.9922 16.4594 12.5359 16.3109 12.8609 16.1984C13.1859 16.0859 13.4813 15.9391 13.5344 15.9922C13.5875 16.0453 12.5313 17.2859 12.2438 17.6594C11.9234 18.0734 11.3484 18.6953 11.4469 18.7781C11.5453 18.8609 11.7719 18.5734 12.1969 18.6109C12.6219 18.6484 13.3172 19.3516 13.3172 19.3516L14.4438 19.3531C14.4438 19.3484 13.7656 18.4906 13.325 18.1672V18.1672ZM8.49844 15.6297C8.99531 15.0031 9.22344 15.0656 9.22344 15.0656C9.22344 15.0656 9.27969 15.4 8.83438 15.8797C8.43594 16.3078 7.90156 16.7875 7.85937 16.7172C7.81875 16.6516 8.10469 16.1266 8.49844 15.6297ZM8.875 17.3969C8.66562 17.5656 7.55312 18.2797 7.48594 18.1734C7.43125 18.0875 8.2125 17.1641 8.64375 16.8844C9.075 16.6047 10.6547 16.2219 10.6906 16.2953C10.7203 16.3609 9.10937 17.2094 8.875 17.3969V17.3969ZM11.6188 11.85C11.2734 11.8672 11.1391 12.0938 10.9781 12.0703C10.8703 12.0547 10.4906 11.6828 10.5187 11.5016C10.5453 11.3328 10.7578 11.25 11.0875 11.25C11.3344 11.25 11.4359 11.3219 11.5656 11.3984C11.6562 11.4531 11.6828 11.2828 11.6109 11.2109C11.475 11.075 11.2812 11.0109 10.9687 10.9953C10.6578 10.9813 10.5156 11.0656 10.2203 11.0219C10.1297 11.2094 10.0328 11.2594 9.89688 11.4234C9.76875 11.5766 9.69375 11.6641 9.57969 11.9156C9.48906 12.1156 9.47812 12.4047 9.59219 12.375C9.70625 12.3453 9.71875 12.0656 9.77031 11.9484C9.88281 11.6938 9.98594 11.6813 10.0891 11.7156C10.1469 11.7344 10.1844 11.9094 10.1406 12.0266C10.1203 12.0797 10.0531 12.125 9.98594 12.2406C9.87812 12.4234 9.92188 12.5141 9.85625 12.6938C9.81719 12.8 9.675 12.9813 9.69531 13.1656C9.72812 13.4766 9.8 13.5297 9.85625 13.6891C9.91563 13.8547 9.95312 14.0516 10.0703 14.0906C10.1953 14.1328 10.2844 13.9031 10.5359 13.8063C10.8984 13.6656 11.0641 13.7359 11.2344 13.6266C11.4641 13.4797 11.5984 13.1359 11.7656 12.9781C12.0313 12.7266 12.2922 12.4922 12.2766 12.2531C12.2609 11.9656 11.9641 11.8328 11.6188 11.85V11.85ZM10.6422 13.325C10.4672 13.4141 10.2531 13.5359 10.1766 13.4031C10.0859 13.2453 10.1437 13.0016 10.1437 13.0016C10.1437 13.0016 10.1312 12.8219 10.1312 12.7297C10.1312 12.5563 10.1484 12.3359 10.2547 12.3156C10.3578 12.2969 10.7266 12.3609 10.7719 12.4641C10.8406 12.6203 10.7641 12.7203 10.7641 12.7203C10.7641 12.7203 10.9984 12.7422 11.0234 12.9359C11.0516 13.1422 10.8781 13.2047 10.6422 13.325V13.325Z" fill="#ADD4C1"/>
<path d="M10.7201 12.8471C10.6513 12.8283 10.592 12.8736 10.4998 12.9314C10.4232 12.9799 10.356 13.0314 10.3357 13.0846C10.2998 13.1814 10.4123 13.2674 10.6295 13.1439C10.8201 13.033 10.8123 12.8721 10.7201 12.8471Z" fill="#ADD4C1"/>
<path d="M13.4643 11.5313C13.4846 11.5625 13.5002 11.5875 13.5096 11.6063C13.6283 11.836 13.8455 12.0094 13.9127 11.9313C13.9611 11.875 13.8893 11.6344 13.794 11.3938L13.4643 11.5313ZM13.169 10.3641C12.7486 9.88596 12.0299 9.33909 11.0408 9.38284C9.48458 9.45159 9.07365 10.9219 9.23771 10.9641C9.35646 10.9953 9.53458 9.97346 11.0565 9.92815C11.7361 9.90784 12.3627 10.3313 12.8143 10.7625L13.169 10.3641V10.3641ZM13.5393 10.8547C13.5018 10.7969 13.444 10.711 13.369 10.6125L12.9986 10.9531C13.1283 11.0922 13.2393 11.225 13.3236 11.336L13.6736 11.1188C13.619 10.9969 13.569 10.8985 13.5393 10.8547V10.8547Z" fill="#484A4E"/>
<path d="M14.0221 11.1328L16.7361 9.92502C16.7361 9.92502 16.6861 9.80002 16.533 9.84221C16.383 9.88284 13.7533 10.6828 13.7533 10.6828C13.7533 10.6828 13.8346 10.8032 13.8893 10.8953C13.9424 10.9891 14.0221 11.1328 14.0221 11.1328V11.1328ZM10.3674 9.30471L10.5424 10.1188L10.8346 10.0407L10.7549 9.24065L10.3674 9.30471ZM11.508 9.18127L11.3643 10.0719L11.6408 10.1188L11.8939 9.23284L11.508 9.18127ZM9.80645 9.75471L9.95645 10.3406L9.71895 10.475L9.45801 9.97659L9.80645 9.75471ZM12.583 9.57346L12.1158 10.3719L12.3299 10.5063L12.883 9.80315L12.583 9.57346Z" fill="#42A18E"/>
</svg>
