<svg width="20" height="20" viewBox="0 0 20 20" fill="none" xmlns="http://www.w3.org/2000/svg">
<path d="M18.8782 1.95783C18.8782 1.95783 18.8094 1.83127 18.5204 1.88283C18.2016 1.93908 17.5188 2.45627 17.3016 3.73283C17.0844 5.0094 16.8704 8.95471 17.0188 9.21252C17.2922 9.69221 17.8532 10.075 17.8657 10.3453C17.875 10.5485 17.8125 15.2453 17.7688 15.5813C17.725 15.9156 17.4844 16.8297 17.4532 17.0625C17.4235 17.2906 17.5579 17.4688 17.7 17.4813C17.9329 17.5031 18.6329 17.5094 18.6329 17.5094L18.8782 1.95783V1.95783ZM3.38129 7.64846C3.38129 7.64846 3.31098 4.5094 3.30473 4.36252C3.29848 4.24221 3.2266 4.08127 3.04067 4.09846C2.93285 4.1094 2.89692 4.22658 2.89692 4.33752C2.89692 4.52971 2.8766 6.95158 2.87973 7.13283C2.88285 7.39533 2.58442 7.33752 2.59067 7.14533C2.59692 6.95315 2.58442 4.48596 2.57504 4.31877C2.56723 4.19221 2.50317 4.10315 2.39848 4.10315C2.29535 4.10315 2.20942 4.17658 2.19223 4.31252C2.15317 4.60158 2.16254 6.98752 2.15629 7.16252C2.14848 7.37815 1.89067 7.37033 1.89067 7.13908C1.89067 6.90783 1.88442 4.4969 1.88442 4.30471C1.88442 4.20315 1.8516 4.07971 1.7141 4.08596C1.58129 4.09221 1.54067 4.20471 1.53442 4.28908C1.52192 4.46877 1.42973 6.94065 1.42192 7.10158C1.40629 7.35471 1.14535 7.36408 1.14535 7.08908C1.14535 6.81252 1.20942 4.52502 1.21567 4.33283C1.22035 4.21252 1.17348 4.07502 1.04848 4.08127C0.92348 4.08752 0.851605 4.1469 0.803167 4.33908C0.753167 4.54065 0.700042 5.7094 0.645355 6.3844C0.61723 6.73752 0.451605 8.24065 0.62973 8.63596C0.887542 9.20471 1.39223 9.30783 1.39223 9.30783C1.39223 9.30783 1.30317 14.886 1.25317 15.2516C1.18129 15.7797 0.884417 16.5328 0.915667 16.9172C0.932855 17.1297 1.06723 17.25 1.2891 17.261C1.51098 17.2719 1.95473 17.3297 2.07973 17.2953C2.13442 17.2813 2.15629 13.8281 2.15629 13.8281L2.21098 8.40315L3.38129 7.64846V7.64846Z" fill="#9C9C9C"/>
<path d="M0.956163 7.97339L3.37179 8.26245C3.37179 8.26245 3.36554 8.71714 3.1671 8.97026C2.9171 9.28745 2.62804 9.32339 2.62804 9.32339C2.62804 9.32339 2.59523 15.0937 2.64679 15.4968C2.69991 15.8984 3.04054 16.8843 2.93116 17.0953C2.83429 17.2812 2.59835 17.3281 2.08741 17.3109C1.54991 17.2937 1.39679 17.3062 1.37648 16.9421C1.35616 16.5781 1.68273 15.9093 1.69835 15.4453C1.71398 14.9812 1.77179 9.08433 1.77179 9.08433C1.77179 9.08433 1.18741 9.01558 0.970225 8.51558C0.803038 8.12495 0.956163 7.97339 0.956163 7.97339ZM18.503 9.7187L17.7171 9.54839C17.7171 9.54839 18.2452 9.99214 18.2546 10.3343C18.2655 10.6765 18.2843 15.5078 18.2327 15.7984C18.1812 16.089 17.7671 17.1984 17.9562 17.3984C18.0858 17.5343 18.5124 17.5062 18.7499 17.5062C18.9874 17.5062 19.1843 17.4953 19.289 17.3515C19.3921 17.2062 19.3452 16.8187 19.2905 16.5281C19.228 16.1906 19.1546 15.8859 19.1546 15.7375C19.1546 15.4687 18.978 9.20308 18.978 9.20308L18.503 9.7187V9.7187Z" fill="#C8C8C8"/>
<path d="M18.7953 1.92659C18.5781 1.93284 18.0562 2.16253 17.7781 3.1719C17.5609 3.9594 17.5093 4.90472 17.4562 6.58128C17.3921 8.59847 17.4765 9.23284 17.539 9.2844C17.6015 9.33597 18.5749 9.74065 18.5749 9.74065L18.9781 9.20159C18.9781 9.20159 18.9156 2.66722 18.9156 2.39847C18.9156 2.12972 18.9546 1.9219 18.7953 1.92659V1.92659ZM0.889008 7.66409C0.889008 7.66409 0.882758 8.12972 0.889008 8.17347C0.895258 8.21722 1.87963 8.30003 2.26713 8.30628C2.65463 8.31253 3.37495 8.26722 3.37495 8.26722C3.37495 8.26722 3.38745 8.11097 3.38745 7.93128C3.38745 7.77503 3.38276 7.64534 3.38276 7.64534L0.889008 7.66409V7.66409Z" fill="#E0E0E0"/>
<path d="M1.11101 8.61245C1.42351 8.68589 2.10319 8.39839 2.00319 8.28589C1.89538 8.16401 0.901631 8.06557 0.889131 8.15932C0.876631 8.25151 0.945381 8.57339 1.11101 8.61245ZM2.58913 16.8984C2.67038 16.7484 2.60788 16.2968 2.57038 16.0593C2.53288 15.8218 2.50007 15.6374 2.39851 15.6515C2.31413 15.664 2.31413 15.7578 2.31413 15.9562C2.31413 16.1531 2.32976 16.4734 2.25476 16.5453C2.17976 16.6171 1.90632 16.7703 1.93444 16.9187C1.96257 17.0656 2.15632 17.0593 2.29851 17.0531C2.38757 17.0484 2.52351 17.0203 2.58913 16.8984ZM18.9251 16.2531C18.8329 16.2468 18.8266 16.4093 18.8266 16.5828C18.8266 16.7546 18.7751 16.8828 18.6985 16.9343C18.6219 16.9859 18.4204 17.0937 18.4329 17.1937C18.4454 17.2921 18.5454 17.3156 18.8298 17.3031C19.1141 17.2906 19.1079 17.089 19.0985 16.8843C19.0891 16.6796 19.0594 16.2624 18.9251 16.2531V16.2531ZM17.5376 9.22964C17.461 9.26245 17.6954 9.55307 17.961 9.7812C18.236 10.0171 18.3516 10.0906 18.6329 10.0749C18.9141 10.0593 19.0579 9.29526 18.8829 9.22807C18.7063 9.16089 18.6563 9.44057 18.4282 9.47964C18.2016 9.52026 17.6782 9.1687 17.5376 9.22964V9.22964Z" fill="#FDFDFD"/>
<path d="M4.21703 7.8938L15.9467 7.50317C15.9467 7.50317 17.8264 10.9438 15.2905 14.4125C12.8139 17.8016 7.60922 17.411 5.29359 14.6329C2.69828 11.5172 4.21703 7.8938 4.21703 7.8938V7.8938Z" fill="#D4D4D4"/>
<path d="M9.99195 3.73286C6.2482 3.75942 4.00914 6.32817 3.95445 9.71567C3.89977 13.1313 6.52164 16.2985 10.292 16.2985C14.2263 16.2985 16.4388 13.1032 16.4654 9.74223C16.4904 6.76255 13.8701 3.70473 9.99195 3.73286V3.73286Z" fill="#F6F6F6"/>
<path d="M5.76074 9.8187L6.1123 8.82964C6.1123 8.82964 7.07637 5.96089 10.1311 5.97651C12.9779 5.99214 14.0326 8.69526 14.0326 8.69526L14.3561 9.7437L14.5279 9.15308L14.1217 7.7437L12.7467 6.14526L10.4295 5.42651L8.49512 5.69839L6.91231 6.70308L5.85762 8.33433L5.76074 9.8187V9.8187Z" fill="#D5D5D5"/>
<path d="M10.1031 14.4469C7.60153 14.4469 5.67809 12.5938 5.50778 10.0016C5.42653 8.76563 5.85621 7.58282 6.71871 6.67344C7.59528 5.74532 8.82653 5.21876 10.1031 5.23282C11.4453 5.24532 12.5984 5.72969 13.4406 6.63282C14.3 7.55469 14.7468 8.82344 14.6672 10.1109C14.5156 12.5703 12.6437 14.3922 10.2156 14.4469C10.1765 14.4453 10.139 14.4469 10.1031 14.4469ZM10.0609 5.62188C8.90934 5.62188 7.79528 6.10157 7.00153 6.94063C6.21559 7.77188 5.8234 8.85001 5.89684 9.97501C6.05465 12.3891 7.86246 14.1031 10.2047 14.0531C12.425 14.0047 14.1359 12.3359 14.275 10.0844C14.3468 8.92032 13.9265 7.72813 13.1531 6.89532C12.3859 6.07188 11.3297 5.63126 10.0984 5.62032C10.0859 5.62188 10.0734 5.62188 10.0609 5.62188V5.62188Z" fill="white"/>
</svg>
