<svg width="20" height="20" viewBox="0 0 20 20" fill="none" xmlns="http://www.w3.org/2000/svg">
<path d="M6.75293 5.1127L6.87793 14.933L13.4045 14.8908L13.2795 4.75488L6.75293 5.1127Z" fill="white"/>
<path d="M6.66875 5.89707L8.25313 4.98145L11.9156 5.07051L6.64844 8.67988L6.66875 5.89707Z" fill="#D80D1A"/>
<path d="M6.75332 10.5046L13.3627 5.99365L13.3205 9.01553L6.73145 13.6108L6.75332 10.5046Z" fill="#1D86FA"/>
<path d="M7.80176 14.8907L13.3424 10.9673L13.258 13.8626L11.1799 15.3532L7.80176 14.8907Z" fill="#D80D1A"/>
<path d="M6.33301 5.07012L6.45957 15.0795L7.06738 14.8482L6.94238 4.83887L6.33301 5.07012ZM13.0064 4.90137L13.0689 14.8904L13.6736 14.8217L13.5939 4.88105L13.0064 4.90137Z" fill="#A1D2D6"/>
<path d="M6.25782 5.1701C6.35782 5.28103 13.4406 5.1951 13.5641 5.1326C13.6875 5.0701 14.3156 4.54978 14.2672 3.71853C14.2188 2.89822 13.6516 2.63885 13.6516 2.63885C13.6516 2.63885 13.5422 1.81697 12.5969 1.18728C11.9266 0.740409 11.0578 0.610721 9.96719 0.620096C8.76407 0.631034 7.63438 0.704471 6.91563 1.42322C6.225 2.11385 6.19688 2.78728 6.19688 2.78728C6.19688 2.78728 5.58594 2.97478 5.58594 3.89353C5.58438 4.79978 6.25782 5.1701 6.25782 5.1701ZM6.36875 14.7592C6.26563 14.8451 6.24532 15.3795 6.24532 15.3795C6.24532 15.3795 5.66563 15.692 5.74844 16.3717C5.82344 16.9795 6.33125 17.2154 6.33125 17.2154C6.33125 17.2154 6.56875 18.2435 7.36094 18.8029C8.20469 19.3982 9.03594 19.4232 10.2266 19.4232C11.5172 19.4232 12.3969 19.3232 13.0922 18.667C13.8891 17.9123 13.9484 17.1295 13.9484 17.1295C13.9484 17.1295 14.4078 16.856 14.3953 16.2357C14.3828 15.6154 13.875 15.3795 13.875 15.3795C13.875 15.3795 13.7688 14.8842 13.6766 14.7592C13.6297 14.6951 11.7766 14.7123 9.95469 14.7217C8.19688 14.7295 6.44844 14.692 6.36875 14.7592V14.7592Z" fill="#C8C8C8"/>
<path d="M9.62041 18.8158C9.60791 19.0643 10.922 19.058 11.8907 18.8408C12.9954 18.5924 13.3548 17.6502 13.2923 17.5752C13.2298 17.5002 12.1142 17.5252 12.0517 17.5877C11.9892 17.6502 11.7048 18.233 11.2204 18.4314C10.736 18.6299 9.62979 18.6268 9.62041 18.8158ZM5.7876 16.5361L14.3735 16.4971C14.3735 16.4971 14.3454 16.6783 14.2282 16.8549C14.1142 17.0252 13.9501 17.1283 13.9501 17.1283L6.3376 17.2174C6.3376 17.2174 6.10947 17.0939 6.01104 16.9721C5.79385 16.7033 5.7876 16.5361 5.7876 16.5361Z" fill="#858585"/>
<path d="M5.7501 16.1094L14.3657 15.9985C14.3657 15.9985 14.3376 15.7719 14.1845 15.6016C14.0563 15.4578 13.8751 15.3781 13.8751 15.3781L6.13447 15.4531C6.13447 15.4531 5.97822 15.5688 5.88604 15.7016C5.7751 15.8625 5.7501 16.1094 5.7501 16.1094ZM5.61572 3.5719C5.61572 3.5719 7.3376 3.2344 9.85635 3.1969C12.3751 3.1594 14.1892 3.30784 14.1892 3.30784C14.1892 3.30784 14.1001 3.01096 13.9626 2.86252C13.8251 2.71409 13.6532 2.63909 13.6532 2.63909C13.6532 2.63909 11.2923 2.55315 9.86416 2.54065C8.13916 2.52659 6.19697 2.78752 6.19697 2.78752C6.19697 2.78752 5.98916 2.8469 5.84854 3.02971C5.64854 3.28752 5.61572 3.5719 5.61572 3.5719V3.5719Z" fill="#E1E0E0"/>
<path d="M5.5874 4.05624C5.5874 4.05624 6.92803 3.79374 9.91709 3.75624C12.9062 3.71874 14.2655 3.93593 14.2655 3.93593C14.2655 3.93593 14.278 4.11718 14.2187 4.29062C14.153 4.48437 14.0499 4.61249 14.0499 4.61249C14.0499 4.61249 11.4796 4.44062 9.91709 4.45312C8.35459 4.46562 5.80459 4.71249 5.80459 4.71249C5.80459 4.71249 5.69678 4.52656 5.65928 4.41562C5.62334 4.29999 5.5874 4.05624 5.5874 4.05624V4.05624Z" fill="#858585"/>
<path d="M9.4626 3.03882C9.4626 3.17164 8.58291 3.24976 7.64854 3.30601C7.1251 3.33726 6.20166 3.59507 6.20166 3.24976C6.20166 2.90445 6.53604 2.83882 7.67041 2.81539C8.80479 2.79195 9.4626 2.8607 9.4626 3.03882ZM9.52979 0.981012C9.55947 1.06539 9.08447 1.22632 8.71729 1.61539C8.45791 1.89039 8.37197 2.14976 8.19385 2.21695C8.01572 2.28414 7.05947 2.3732 7.04697 2.1732C7.03135 1.89507 7.23135 1.45445 7.70322 1.19351C8.4501 0.779449 9.47354 0.824762 9.52979 0.981012V0.981012Z" fill="white"/>
</svg>
