<svg width="20" height="20" viewBox="0 0 20 20" fill="none" xmlns="http://www.w3.org/2000/svg">
<path d="M13.7282 0.584356C13.7282 0.584356 13.6438 0.429669 13.2907 0.492169C12.9016 0.559356 12.0688 1.19217 11.8032 2.74842C11.5375 4.30467 11.2782 9.11873 11.4579 9.43436C11.7907 10.0187 12.475 10.4859 12.4907 10.8172C12.5016 11.064 12.4266 16.7969 12.3719 17.2047C12.3172 17.6125 12.025 18.7281 11.9875 19.0109C11.95 19.2906 12.1157 19.5062 12.2891 19.5234C12.5735 19.55 13.4266 19.5578 13.4266 19.5578L13.7282 0.584356ZM8.50785 7.52654C8.50785 7.52654 8.31098 2.72498 8.29691 2.54061C8.2891 2.42811 8.23285 2.26561 8.09223 2.27186C8.0016 2.27498 7.94691 2.37342 7.94691 2.51248C7.94691 2.75154 7.86254 6.79998 7.8641 7.02654C7.86879 7.35311 7.49691 7.28279 7.50473 7.04217C7.51254 6.80311 7.47816 2.76561 7.4641 2.55779C7.45316 2.40154 7.42035 2.29998 7.29066 2.29998C7.16254 2.29998 7.11098 2.39686 7.0891 2.56561C7.04066 2.92498 7.0016 6.83904 6.99379 7.05467C6.98441 7.32342 6.63129 7.32029 6.63129 7.03279C6.63129 6.74529 6.65004 2.78904 6.65004 2.54842C6.65004 2.42186 6.58129 2.30623 6.45941 2.30936C6.35629 2.31248 6.28285 2.42811 6.27504 2.53279C6.25941 2.75623 6.11879 6.78904 6.10785 6.98904C6.09066 7.30467 5.70473 7.31248 5.70473 6.96873C5.70473 6.62498 5.84223 2.79529 5.85004 2.55623C5.85473 2.40623 5.77191 2.29842 5.70473 2.29842C5.54848 2.29842 5.50941 2.46248 5.49066 2.57967C5.45004 2.83592 5.16254 5.09373 5.09379 5.93436C5.02504 6.77498 4.89691 8.29686 5.14848 8.81404C5.45473 9.44061 6.07191 9.58436 6.07191 9.58436C6.07191 9.58436 5.96879 16.5562 5.90629 17.0125C5.81723 17.6687 5.39691 18.8031 5.43754 19.064C5.47816 19.325 5.6266 19.4781 5.9016 19.4922C6.1766 19.5062 6.72973 19.5781 6.88598 19.5359C6.95316 19.5172 6.98129 15.2203 6.98129 15.2203L7.05004 8.46561L8.50785 7.52654V7.52654Z" fill="#9C9C9C"/>
<path d="M5.48763 7.93127L8.49544 8.29221C8.49544 8.29221 8.43451 8.89377 8.18607 9.2094C7.87513 9.60471 7.48138 9.63596 7.48138 9.63596C7.48138 9.63596 7.52669 16.7953 7.59232 17.2969C7.65794 17.7969 8.08294 19.025 7.94701 19.286C7.82669 19.5188 7.53294 19.575 6.89701 19.5547C6.22826 19.5328 6.03763 19.5485 6.01107 19.0953C5.98451 18.6422 6.39232 17.8094 6.41107 17.2328C6.42982 16.6563 6.50326 9.31409 6.50326 9.31409C6.50326 9.31409 5.77513 9.22815 5.50638 8.60627C5.29701 8.12034 5.48763 7.93127 5.48763 7.93127V7.93127ZM13.2704 10.0531L12.3126 9.84534C12.3126 9.84534 12.9564 10.386 12.9689 10.8031C12.9814 11.2203 13.0064 17.1157 12.9423 17.4688C12.8783 17.8219 12.3736 19.1766 12.6048 19.4219C12.7626 19.5875 13.2829 19.5532 13.5736 19.5532C13.8642 19.5532 14.1048 19.5406 14.2298 19.3641C14.3564 19.1875 14.2986 18.7141 14.2314 18.3594C14.1548 17.9469 14.0658 17.5766 14.0658 17.3938C14.0658 17.0656 13.8517 9.4219 13.8517 9.4219L13.2704 10.0531V10.0531Z" fill="#C8C8C8"/>
<path d="M13.6279 0.54528C13.3623 0.553092 12.7263 0.834343 12.3857 2.06403C12.1201 3.02497 12.0591 4.17809 11.9935 6.22497C11.9154 8.68747 12.0185 9.45934 12.0951 9.52184C12.1716 9.58434 13.3591 10.0781 13.3591 10.0781L13.8513 9.42184C13.8513 9.42184 13.7748 1.44997 13.7748 1.12028C13.7748 0.790592 13.8216 0.53903 13.6279 0.54528V0.54528ZM5.40289 7.54528C5.40289 7.54528 5.39507 8.12497 5.40289 8.17965C5.4107 8.23434 6.63726 8.33747 7.11851 8.34528C7.59976 8.35309 8.4982 8.29684 8.4982 8.29684C8.4982 8.29684 8.51382 8.10309 8.51382 7.87966C8.51382 7.68591 8.50757 7.52341 8.50757 7.52341L5.40289 7.54528Z" fill="#E0E0E0"/>
<path d="M5.67972 8.72659C6.06879 8.81722 6.91566 8.45941 6.79066 8.32034C6.65629 8.16878 5.41879 8.04691 5.40316 8.16253C5.38754 8.27816 5.47347 8.67816 5.67972 8.72659ZM7.51879 19.0422C7.61879 18.8563 7.54222 18.2938 7.49535 17.9969C7.44847 17.7 7.40941 17.4703 7.28129 17.4891C7.1766 17.5047 7.1766 17.6219 7.1766 17.8672C7.1766 18.1125 7.19535 18.511 7.10316 18.6C7.00941 18.6891 6.67035 18.8813 6.70472 19.0641C6.7391 19.2469 6.98129 19.2391 7.15785 19.2313C7.27035 19.2297 7.43754 19.1953 7.51879 19.0422V19.0422ZM13.786 18.025C13.6735 18.0172 13.6657 18.2157 13.6657 18.4266C13.6657 18.6375 13.6032 18.7938 13.5094 18.8563C13.4157 18.9188 13.1703 19.0516 13.186 19.1719C13.2016 19.2922 13.3219 19.3203 13.6703 19.3047C14.0172 19.2891 14.0094 19.0438 13.9985 18.7938C13.9844 18.5438 13.95 18.036 13.786 18.025V18.025ZM12.0938 9.45628C12 9.49691 12.286 9.85003 12.611 10.1297C12.9469 10.4188 13.0875 10.5078 13.4297 10.4891C13.7735 10.4703 13.9485 9.53909 13.7344 9.45628C13.5203 9.37503 13.4578 9.71566 13.1797 9.76253C12.9016 9.80941 12.2641 9.38128 12.0938 9.45628V9.45628Z" fill="#FDFDFD"/>
</svg>
