<svg width="20" height="20" viewBox="0 0 20 20" fill="none" xmlns="http://www.w3.org/2000/svg">
<path d="M9.97328 0.634384C9.70297 0.607821 1.25922 5.56563 1.02328 5.69376C0.640472 5.90001 0.651409 6.41251 1.07328 6.46251C1.49516 6.51251 2.13891 6.51251 2.13891 6.51251L9.77641 7.20626L17.6858 6.53751C17.6858 6.53751 18.2811 6.55313 18.4795 6.53751C18.8014 6.51251 19.0983 6.18751 18.628 5.71876C18.0764 5.16876 10.2217 0.659384 9.97328 0.634384V0.634384ZM1.46703 18.0063C1.46703 18.0063 1.46235 17.4109 1.46703 17.2047C1.47172 17.0219 1.59672 17.0313 1.82953 17.025C2.06547 17.0188 2.19985 17.025 2.19985 17.025L10.2764 14.6375L17.6014 17.025C17.6014 17.025 17.928 17.0359 18.1108 17.0359C18.292 17.0359 18.4311 17.0594 18.4311 17.2594V17.9875H19.0311C19.1577 17.9875 19.1764 18.0781 19.1764 18.2781V19.1516C19.1764 19.2781 19.103 19.3516 18.8858 19.3516H1.0686C0.887347 19.3516 0.777972 19.2781 0.777972 19.0969V18.2234C0.777972 18.0422 0.868597 18.0234 1.03266 18.0234C1.19672 18.0234 1.46703 18.0063 1.46703 18.0063V18.0063Z" fill="#97AEC0"/>
<path d="M0.776595 18.3921L19.175 18.3843C19.175 18.3843 19.1797 18.2343 19.1766 18.1203C19.1735 17.9765 19.0625 17.9843 18.9688 17.9828C18.7547 17.9781 18.4297 17.9781 18.4297 17.9781L18.4282 17.7906L1.46566 17.7874L1.46722 18.0062C1.46722 18.0062 1.16097 18.014 0.89847 18.0187C0.815658 18.0203 0.778158 18.0968 0.77347 18.1843C0.768783 18.2812 0.776595 18.3921 0.776595 18.3921V18.3921ZM1.89691 6.50776V7.76714L17.8875 7.80776L17.8922 6.53745L10.0766 6.46558L1.89691 6.50776Z" fill="#647584"/>
<path d="M1.22008 6.05626C1.25446 6.15001 5.61071 6.12501 9.98258 6.11876C14.2545 6.11251 18.3466 6.18126 18.3763 6.10939C18.4154 6.01407 16.4451 4.73439 14.3154 3.48126C12.1857 2.22814 10.056 0.995324 9.96071 1.01876C9.77164 1.06564 1.15602 5.88282 1.22008 6.05626V6.05626Z" fill="#CDDFEE"/>
<path d="M9.97034 1.99067C9.90159 1.97348 4.05628 5.17192 4.08753 5.25004C4.10315 5.29067 7.12971 5.26098 10.0594 5.25629C12.8297 5.25161 15.611 5.27973 15.6328 5.24067C15.6813 5.16098 10.0344 2.00629 9.97034 1.99067V1.99067Z" fill="#97AEC0"/>
<path d="M1.89697 7.65002L1.90479 8.39065L2.4001 8.67659C2.4001 8.67659 2.35322 9.08752 2.4626 9.35627C2.57197 9.62502 2.68291 9.68752 2.7626 9.75159C2.84229 9.81565 2.84229 9.89377 2.84229 9.89377L2.81885 15.8891C2.81885 15.8891 2.41572 16.2563 2.29072 16.4938C2.16416 16.7313 2.19541 17.0313 2.19541 17.0313H17.6048C17.6048 17.0313 17.6517 16.7156 17.5735 16.4938C17.4938 16.2735 17.1626 16.1781 17.1626 16.1781V9.75002C17.1626 9.75002 17.4938 9.51252 17.5423 9.26096C17.5892 9.00784 17.5579 8.5344 17.5579 8.5344L17.8954 8.36409L17.8923 7.67034L1.89697 7.65002V7.65002Z" fill="#CDDFEE"/>
<path d="M3.85794 6.73901L2.63294 6.74058L2.62825 7.37183L3.85794 7.37651V6.73901ZM5.67356 6.71558L4.49075 6.73745V7.37964L5.67356 7.36245V6.71558ZM7.36262 6.73276L6.26419 6.73433V7.38433L7.36262 7.38745V6.73276ZM11.8329 6.72651L8.26887 6.73276V7.38901L11.8189 7.39995L11.8329 6.72651ZM13.7298 6.72495L12.5876 6.72651L12.5611 7.40151L13.7048 7.40464L13.7298 6.72495ZM15.6314 6.72183L14.4704 6.72339L14.4579 7.40776L15.6204 7.41089L15.6314 6.72183ZM16.2798 6.72026L16.2564 7.41245L17.3251 7.41558V6.7187L16.2798 6.72026ZM2.55325 9.53901L17.372 9.55464C17.372 9.55464 17.3689 9.69839 17.2626 9.79683C17.1736 9.87808 17.1626 9.97026 17.1626 9.97026L2.84075 9.99214C2.84075 9.99214 2.81262 9.8937 2.70794 9.77183C2.63606 9.68745 2.55325 9.53901 2.55325 9.53901V9.53901ZM1.90169 8.32495C1.90169 8.32495 1.86575 8.52026 1.99231 8.62808C2.11887 8.73589 2.22669 8.74214 2.56262 8.73276C2.89856 8.72339 17.4892 8.72495 17.6579 8.70776C17.8267 8.69058 17.8861 8.55933 17.8892 8.50464C17.8923 8.46245 17.8939 8.31714 17.8939 8.31714L1.90169 8.32495V8.32495ZM2.81419 15.7781C2.81419 15.7781 2.71419 15.889 2.65325 15.9687C2.59231 16.0484 2.497 16.2109 2.497 16.2109L17.3408 16.2515C17.3408 16.2515 17.2376 16.1218 17.1986 16.0328C17.1564 15.9375 17.1611 15.8359 17.1611 15.8359L2.81419 15.7781V15.7781Z" fill="#97AEC0"/>
<path d="M5.27344 8.72349C5.27344 8.72349 5.27812 9.22036 5.18125 9.42817C5.08437 9.63286 4.95312 9.7563 4.95312 9.7563L4.96562 15.9438C4.96562 15.9438 5.27031 16.2672 5.33906 16.461C5.40781 16.6547 5.39688 17.0313 5.39688 17.0313H6.42969C6.42969 17.0313 6.40312 16.5579 6.54062 16.3375C6.67812 16.1172 6.85781 15.9375 6.85781 15.9375L6.84375 9.78442C6.84375 9.78442 6.67812 9.53599 6.62344 9.32974C6.56719 9.12349 6.5625 8.72661 6.5625 8.72661L5.27344 8.72349V8.72349ZM9.325 8.72505C9.325 8.72505 9.33906 9.19224 9.24219 9.41255C9.14531 9.63286 9.02188 9.7813 9.02188 9.7813L8.96563 15.786C8.96563 15.786 9.29687 16.0891 9.39375 16.2969C9.49062 16.5032 9.47812 17.0297 9.47812 17.0297L10.6016 17.0313C10.6016 17.0313 10.5938 16.5032 10.6766 16.2954C10.7594 16.0875 11.0359 15.8813 11.0359 15.8813L11.0094 9.80942C11.0094 9.80942 10.7875 9.65942 10.7187 9.37036C10.65 9.0813 10.6641 8.7188 10.6641 8.7188L9.325 8.72505V8.72505ZM13.4781 8.72192L14.7094 8.71411C14.7094 8.71411 14.6906 9.06724 14.7875 9.37036C14.8844 9.67349 15.1047 9.85005 15.1047 9.85005L15.0922 15.8954C15.0922 15.8954 14.8984 16.0063 14.7609 16.2547C14.6234 16.5032 14.6453 17.0297 14.6453 17.0297H13.5531C13.5531 17.0297 13.6047 16.4922 13.4922 16.2407C13.4297 16.1 13.1469 15.8688 13.1469 15.8688L13.1641 9.84224C13.1641 9.84224 13.3953 9.55005 13.4359 9.3438C13.4781 9.13755 13.4781 8.72192 13.4781 8.72192Z" fill="#54636E"/>
</svg>
