<svg width="20" height="20" viewBox="0 0 20 20" fill="none" xmlns="http://www.w3.org/2000/svg">
<path d="M15.9342 3.78886C15.9342 3.78886 16.9295 3.01542 17.4826 2.4623C18.1639 1.78105 18.367 1.06698 18.1295 0.982609C17.892 0.898234 16.9717 1.06698 16.9717 1.06698L14.2154 2.41073L13.517 3.44823L15.9342 3.78886ZM4.43106 3.43105C4.43106 3.43105 3.85294 3.22636 3.20606 2.52948C2.57481 1.84823 2.38888 1.38886 2.47481 1.13417C2.55919 0.879484 5.70763 1.81542 5.70763 1.81542L7.80138 2.75136L8.34513 3.8748L4.43106 3.43105V3.43105Z" fill="#69A246"/>
<path d="M10.472 3.48267C10.472 3.48267 11.136 2.15611 12.2079 1.59361C13.2798 1.03111 14.4032 0.912356 16.122 0.845169C17.8407 0.777981 18.1298 0.981106 18.1298 0.981106C18.1298 0.981106 16.836 1.59361 15.5938 2.17173C14.3517 2.74986 13.347 3.51548 13.347 3.51548L10.6938 5.52486L7.08603 2.83579C7.08603 2.83579 5.82666 2.20611 4.78916 1.81548C3.75166 1.42486 2.4751 1.13423 2.4751 1.13423C2.4751 1.13423 2.72666 0.812356 5.09541 0.929544C7.47822 1.04829 8.3626 1.64361 9.07666 2.07017C9.79072 2.49673 10.472 3.48267 10.472 3.48267V3.48267Z" fill="#82B032"/>
<path d="M10.6592 3.85782C11.0498 3.82345 11.9061 2.63595 14.2451 2.82501C16.5842 3.01251 20.1529 5.66876 19.192 10.65C18.6701 13.3594 17.2607 15.1063 14.6561 17C12.8154 18.3375 10.942 19.1875 10.0764 19.2C9.29668 19.2125 8.22168 17.5063 8.22168 17.5063L10.6592 3.85782V3.85782Z" fill="url(#paint0_radial_4359_3026)"/>
<path d="M10.6592 3.85782C11.0498 3.82345 11.9061 2.63595 14.2451 2.82501C16.4389 3.00157 19.7123 5.34688 19.3217 9.74376C19.2951 10.0375 18.9951 11.2984 18.4029 11.3609C15.5154 11.6703 14.1342 8.13595 13.3904 7.2047C11.9686 5.42813 10.6592 3.85782 10.6592 3.85782V3.85782Z" fill="url(#paint1_radial_4359_3026)"/>
<path d="M10.5518 3.88893C10.9424 3.85456 11.9064 2.63581 14.2455 2.82331C16.0221 2.9655 18.5049 4.53112 19.1799 7.45612C19.3377 8.14362 18.433 8.93112 17.8439 9.03268C16.0439 9.34362 13.8908 6.72956 13.1455 5.79831C12.1346 4.53425 11.3111 4.25768 10.8846 4.11393C10.7127 4.05456 10.5518 3.88893 10.5518 3.88893V3.88893Z" fill="url(#paint2_radial_4359_3026)"/>
<path d="M13.809 10.4594L13.4668 14.0594L11.9778 17.4422L10.7356 18.9625C10.7356 18.9625 10.3809 19.1844 10.0778 19.1985C9.77308 19.211 7.50745 18.5594 5.49026 17.1938C3.47308 15.8282 1.87151 14.1922 1.1762 12.3532C0.307451 10.0563 0.276201 6.57973 2.35589 4.65629C4.43558 2.73285 6.48401 2.45317 8.22151 2.82504C9.95901 3.19692 10.4871 3.78754 10.8293 4.06723C11.1715 4.34692 12.6293 6.11567 12.6293 6.11567L13.7778 9.0641L13.809 10.4594Z" fill="url(#paint3_radial_4359_3026)"/>
<path d="M8.87973 14.875C5.09848 15.3438 1.86098 13.0766 1.16566 11.2375C0.684413 9.96722 0.471913 9.45003 0.718788 7.91878C0.918788 6.6844 1.38285 5.57659 2.35473 4.65628C4.29379 2.82034 6.50629 2.40784 8.31566 2.82659C10.0469 3.22659 10.486 3.78753 10.8266 4.06722C11.1672 4.3469 12.6266 6.11565 12.6266 6.11565L13.775 9.06409C13.7782 9.06409 14.0125 14.2391 8.87973 14.875V14.875Z" fill="url(#paint4_radial_4359_3026)"/>
<path d="M10.6112 18.9764C10.6784 18.9951 11.3268 18.6826 11.7346 18.1748C12.8299 16.8076 14.2206 14.9076 14.4674 11.3873C14.8377 6.10605 11.4096 4.16074 11.2018 4.06699C10.994 3.9748 10.6924 3.9748 10.9237 4.22949C11.1549 4.48418 13.7268 7.35605 13.3784 11.2717C13.0674 14.7748 11.6877 17.4561 11.2002 18.0592C10.7159 18.6607 10.4159 18.9201 10.6112 18.9764V18.9764Z" fill="url(#paint5_radial_4359_3026)"/>
<path d="M4.42344 7.95959C4.42344 7.95959 3.92969 9.15178 2.93594 8.36584C2.39531 7.93772 2.43125 6.83303 2.95781 5.91115C3.60156 4.7799 4.81563 4.00178 6.43594 3.78147C7.88281 3.58459 8.86563 3.99553 9.04531 4.84865C9.26406 5.8799 8.34688 5.83771 8.34688 5.83771C5.77344 5.75646 4.8 7.10334 4.42344 7.95959V7.95959Z" fill="url(#paint6_radial_4359_3026)"/>
<path d="M3.69099 9.05782C3.59099 7.92813 4.30036 6.65313 5.4863 5.93126C6.70505 5.18907 8.22224 5.09219 9.39099 5.67188L3.69099 9.05782Z" fill="url(#paint7_radial_4359_3026)"/>
<path d="M4.42344 7.95959C4.42344 7.95959 3.92969 9.15178 2.93594 8.36584C2.39531 7.93772 2.43125 6.83303 2.95781 5.91115C3.60156 4.7799 4.81563 4.00178 6.43594 3.78147C7.88281 3.58459 8.86563 3.99553 9.04531 4.84865C9.26406 5.8799 8.34688 5.83771 8.34688 5.83771C5.77344 5.75646 4.8 7.10334 4.42344 7.95959V7.95959Z" fill="url(#paint8_radial_4359_3026)"/>
<defs>
<radialGradient id="paint0_radial_4359_3026" cx="0" cy="0" r="1" gradientUnits="userSpaceOnUse" gradientTransform="translate(12.3526 2.64204) scale(13.8764)">
<stop offset="0.719" stop-color="#FE622B"/>
<stop offset="0.78" stop-color="#FB582C"/>
<stop offset="0.886" stop-color="#F23D2F"/>
<stop offset="1" stop-color="#E71932"/>
</radialGradient>
<radialGradient id="paint1_radial_4359_3026" cx="0" cy="0" r="1" gradientUnits="userSpaceOnUse" gradientTransform="translate(16.0878 5.28463) rotate(143.814) scale(4.42965 9.64509)">
<stop offset="0.371" stop-color="#FF9759"/>
<stop offset="0.747" stop-color="#FF9759" stop-opacity="0"/>
</radialGradient>
<radialGradient id="paint2_radial_4359_3026" cx="0" cy="0" r="1" gradientUnits="userSpaceOnUse" gradientTransform="translate(8.36441 2.41893) scale(7.92172)">
<stop offset="0.481" stop-color="#FF9759"/>
<stop offset="1" stop-color="#FF9759" stop-opacity="0"/>
</radialGradient>
<radialGradient id="paint3_radial_4359_3026" cx="0" cy="0" r="1" gradientUnits="userSpaceOnUse" gradientTransform="translate(8.62636 4.54442) scale(12.0111)">
<stop offset="0.701" stop-color="#FE622B"/>
<stop offset="0.766" stop-color="#FD5D2B"/>
<stop offset="0.84" stop-color="#F8502D"/>
<stop offset="0.917" stop-color="#F1392F"/>
<stop offset="0.998" stop-color="#E71A32"/>
<stop offset="0.999" stop-color="#E71932"/>
</radialGradient>
<radialGradient id="paint4_radial_4359_3026" cx="0" cy="0" r="1" gradientUnits="userSpaceOnUse" gradientTransform="translate(6.98151 2.86972) rotate(88.9858) scale(11.4186 9.09442)">
<stop offset="0.638" stop-color="#FF9759"/>
<stop offset="1" stop-color="#FF9759" stop-opacity="0"/>
</radialGradient>
<radialGradient id="paint5_radial_4359_3026" cx="0" cy="0" r="1" gradientUnits="userSpaceOnUse" gradientTransform="translate(12.1796 2.72199) scale(13.3977)">
<stop offset="0.499" stop-color="#F34124"/>
<stop offset="0.999" stop-color="#D10D22"/>
</radialGradient>
<radialGradient id="paint6_radial_4359_3026" cx="0" cy="0" r="1" gradientUnits="userSpaceOnUse" gradientTransform="translate(5.22403 5.56509) rotate(-28.2103) scale(3.64524 1.8527)">
<stop offset="0.345" stop-color="#FEBD92"/>
<stop offset="1" stop-color="#FEBD92" stop-opacity="0"/>
</radialGradient>
<radialGradient id="paint7_radial_4359_3026" cx="0" cy="0" r="1" gradientUnits="userSpaceOnUse" gradientTransform="translate(6.81445 7.974) rotate(-30.8811) scale(3.49678 2.3884)">
<stop offset="0.799" stop-color="#FF9759"/>
<stop offset="1" stop-color="#FF9759" stop-opacity="0"/>
</radialGradient>
<radialGradient id="paint8_radial_4359_3026" cx="0" cy="0" r="1" gradientUnits="userSpaceOnUse" gradientTransform="translate(5.56191 6.1851) rotate(-29.6646) scale(3.48063 2.02926)">
<stop offset="0.745" stop-color="#FF9759" stop-opacity="0"/>
<stop offset="0.974" stop-color="#FF9759"/>
</radialGradient>
</defs>
</svg>
