<svg width="20" height="20" viewBox="0 0 20 20" fill="none" xmlns="http://www.w3.org/2000/svg">
<path d="M6.96399 11.539L3.09992 11.1937C3.09992 11.1937 3.08586 11.639 3.08586 12.0594C3.08586 12.5437 3.18117 12.939 3.18117 12.939C3.18117 12.939 0.826487 13.5187 0.628049 15.3219C0.429612 17.125 3.9718 19.4359 9.29524 19.3687C14.6187 19.3015 17.8734 17.2344 18.0499 15.3437C18.2265 13.4531 15.2124 13.0125 15.2124 13.0125L15.3437 12C15.3437 12 18.489 11.8234 18.6437 10.2625C18.7984 8.70155 17.2796 8.8328 17.2796 8.8328C17.2796 8.8328 17.7859 9.36092 17.764 9.77811C17.7421 10.1953 17.4562 10.6578 16.7296 10.8562C16.003 11.0547 14.9702 11.164 14.9702 11.164L6.96399 11.539V11.539Z" fill="#BBCED3"/>
<path d="M15.8939 8.17344L15.1674 8.65781L15.2549 8.9875C15.2549 8.9875 16.6846 8.85625 17.2564 9.075C17.8283 9.29531 18.3783 10.2188 18.3783 10.2188L19.0596 9.29531L16.6611 7.95312L15.8939 8.17344V8.17344ZM6.28143 14.875C6.28143 14.875 4.45174 14.4094 4.28768 14.8016C4.17049 15.0797 4.95174 15.9234 5.50486 16.3562C6.04705 16.7812 7.40799 17.5734 9.15643 17.5734C11.0627 17.5734 12.2799 16.8703 12.9986 16.3266C13.6111 15.8641 14.2299 14.8594 14.0846 14.6984C13.9361 14.5375 6.28143 14.875 6.28143 14.875V14.875Z" fill="#6AA5AC"/>
<path d="M3.28264 13.5031C3.28264 13.5031 1.2842 14.1078 1.32483 15.3437C1.36858 16.6922 3.96389 18.6141 9.3467 18.6C14.728 18.5859 17.2514 16.3266 17.3826 15.125C17.5139 13.9219 15.0811 13.5406 15.0811 13.5406C15.0811 13.5406 14.4061 17.4125 9.33108 17.5C4.4467 17.5844 3.28264 13.5031 3.28264 13.5031V13.5031ZM15.0951 7.48436C15.0951 7.48436 16.4076 7.37343 17.1045 7.45468C17.9842 7.5578 19.3623 8.21718 19.3342 9.78593C19.3061 11.3547 17.867 12.0875 16.9873 12.3812C16.3483 12.5937 14.7436 12.6594 14.7436 12.6594L14.9045 11.6922C14.9045 11.6922 16.253 11.6922 16.928 11.4422C17.603 11.1922 18.2623 10.6203 18.2764 9.7703C18.2936 8.79843 17.1623 8.50936 16.3264 8.52343C15.4905 8.53749 14.6983 8.72811 14.6983 8.72811L15.0951 7.48436V7.48436Z" fill="#E0E0E0"/>
<path d="M9.14072 4.54373C5.11572 4.64529 2.91572 6.39216 2.85009 7.64529C2.78447 8.89841 3.11572 12.3781 3.57666 13.5406C4.08291 14.8172 5.53447 16.9937 9.47197 16.8406C13.4095 16.6875 14.5313 14.4875 14.861 13.1234C15.1017 12.1281 15.6095 8.39998 15.4767 7.44841C15.3438 6.50154 13.5188 4.43435 9.14072 4.54373V4.54373Z" fill="#E0E0E0"/>
<path d="M15.0955 14.1266C15.108 14.325 15.6658 14.4485 15.5361 15.0656C15.3893 15.7547 14.7299 15.8719 14.7439 16.136C14.7611 16.4469 16.4158 16.2094 16.4893 15.1391C16.5611 14.0688 15.0799 13.9078 15.0955 14.1266V14.1266ZM3.21738 14.3328C3.39238 14.486 3.05801 14.6891 2.93926 15.0078C2.7627 15.4766 3.45176 16.211 4.2877 16.6203C4.87676 16.9094 5.74395 17.1672 5.7252 17.4422C5.69551 17.8531 1.80957 16.7985 1.80957 15.4188C1.80957 14.2438 2.98145 14.1266 3.21738 14.3328V14.3328ZM3.67207 9.8297C3.44238 10.0922 3.51582 11.9344 3.92207 13.1C4.27363 14.1125 4.67051 14.7125 5.06582 14.7281C5.46113 14.7422 4.81582 13.086 4.84551 12.0156C4.8752 10.9453 4.84551 10.6516 4.6252 10.4031C4.40488 10.1531 3.87676 9.59533 3.67207 9.8297V9.8297Z" fill="white"/>
<path d="M9.25791 5.63591C6.57509 5.67341 3.75947 6.77966 3.81728 8.21716C3.87666 9.65466 6.67666 10.4172 9.37509 10.4312C12.0735 10.4453 14.522 9.33123 14.5376 8.14373C14.5517 6.95623 12.411 5.59216 9.25791 5.63591V5.63591Z" fill="#6D4B41"/>
<path d="M4.49219 7.92349C4.49219 8.39224 5.15156 8.57505 5.59219 8.59849C6.15 8.62818 6.55938 8.45162 6.60469 8.17349C6.64844 7.89537 6.38438 7.64537 6.75156 7.42505C7.11875 7.20474 7.56406 7.3313 8.11563 7.49849C8.74688 7.68912 9.74375 8.34849 10.2859 8.08443C10.8281 7.82037 10.2422 7.36568 10.4906 7.18911C10.7391 7.01255 11.2969 7.01255 12.075 7.29224C12.8516 7.57036 13.5563 8.05474 13.8203 7.85005C14.0844 7.64537 13.1969 6.69693 11.1516 6.33912C9.30313 6.01724 7.25625 6.22818 6.16563 6.61724C5.1375 6.98599 4.49219 7.51411 4.49219 7.92349V7.92349Z" fill="#B59075"/>
<path d="M11.003 8.58432C10.0936 8.93588 8.56864 7.98276 7.70301 8.08588C7.24832 8.14057 7.11707 8.65776 7.54207 8.83432C7.96707 9.01088 8.03426 8.68276 8.56864 8.87807C9.26864 9.13588 10.7233 9.41713 11.2233 9.22963C11.914 8.97026 11.8249 8.61401 12.089 8.57026C12.5265 8.49682 12.964 8.97338 13.203 8.70151C13.4233 8.45151 13.1999 8.15776 12.4702 7.89526C11.8983 7.69057 11.4546 7.63901 11.3264 7.80776C11.1796 7.99682 11.4483 8.41088 11.003 8.58432V8.58432Z" fill="#B59074"/>
<path opacity="0.4" d="M12.9531 0.548445C12.8187 0.896883 13.525 1.20782 13.0703 1.85313C12.6921 2.38907 9.57027 1.70782 8.27495 3.3047C7.14527 4.69845 8.07027 6.1797 8.33433 6.6047C8.59839 7.0297 9.18433 7.7047 9.62495 7.58751C10.0656 7.47032 9.39058 5.87188 10.6218 5.06563C11.8531 4.25938 13.5906 4.24845 14.3609 3.24688C14.9468 2.48438 14.5812 1.3547 14.0234 0.78282C13.6187 0.365633 13.1 0.165633 12.9531 0.548445V0.548445Z" fill="#B8CED4"/>
</svg>
