<svg width="20" height="20" viewBox="0 0 20 20" fill="none" xmlns="http://www.w3.org/2000/svg">
<path opacity="0.5" d="M3.21099 3.28281L6.47974 4.02969L12.8313 4.21719L16.7313 3.58594L17.7704 2.525L17.9157 3.19844L11.186 9.92969L10.786 10.675L10.7688 14.9687C10.7688 14.9687 10.9141 15.9875 11.3329 16.1875C11.7516 16.3875 13.2438 16.5703 13.8438 17.025C14.4438 17.4797 14.1719 17.9172 14.1719 17.9172L13.0985 18.7172L10.061 19.1906L6.71412 18.8453C6.71412 18.8453 5.46256 18.0734 5.46256 17.8C5.46256 17.8 5.41256 17.2734 6.05943 16.8984C6.62974 16.5672 8.08599 16.5 8.42506 16.2437C9.09849 15.7344 9.13443 15.1891 9.13443 15.1891L9.18912 10.6781L8.26099 9.60469C8.26099 9.60469 3.93131 5.58437 3.33131 4.92969C2.73131 4.275 2.45787 3.91094 2.20318 3.52812C1.57974 2.59375 2.15006 1.96875 2.15006 1.96875L3.21099 3.28281V3.28281Z" fill="white"/>
<path opacity="0.7" d="M2.74537 1.85308L5.54693 1.14214L10.3126 0.996826L15.2251 1.57964L17.7719 2.52495L17.9172 3.19839L11.186 9.92964L10.786 10.675L10.7688 14.9687C10.7688 14.9687 10.9141 15.9875 11.3329 16.1875C11.7516 16.3875 13.2438 16.5703 13.8438 17.025C14.4438 17.4796 14.1719 17.9171 14.1719 17.9171L13.0985 18.7171L10.061 19.1906L6.71412 18.8453C6.71412 18.8453 5.46256 18.0734 5.46256 17.8C5.46256 17.8 5.41256 17.2734 6.05943 16.8984C6.62974 16.5671 8.08599 16.5 8.42506 16.2437C9.09849 15.7343 9.13443 15.189 9.13443 15.189L9.18912 10.6781L8.26099 9.60464C8.26099 9.60464 3.93131 5.58433 3.33131 4.92964C2.73131 4.27495 2.45787 3.91089 2.20318 3.52808C1.57974 2.5937 2.15006 1.9687 2.15006 1.9687L2.74537 1.85308V1.85308Z" fill="#E0E0E0"/>
<path d="M3.88916 4.11252C3.88916 4.11252 5.72978 3.16564 10.0313 3.22189C14.3329 3.27814 16.022 4.46877 16.022 4.46877L13.5938 6.14845L7.06729 5.84377L3.88916 4.11252Z" fill="#FEF9E5"/>
<path d="M10.1407 5.16565C6.1438 5.07034 3.82349 4.11877 3.82349 4.11877L8.5813 8.81877C8.5813 8.81877 9.14536 9.52815 9.8688 9.52815C10.5922 9.52815 10.8641 9.21877 11.1125 9.02815C11.3594 8.83752 16.0282 4.47034 16.0282 4.47034C16.0282 4.47034 13.5282 5.24534 10.1407 5.16565V5.16565Z" fill="#E5DDA0"/>
<path d="M17.5828 3.26093L17.3343 3.6078C17.3343 3.6078 11.9171 8.86093 10.8812 9.83593C10.4562 10.2359 10.3109 10.5391 10.3281 11.0125C10.3437 11.4469 10.0484 13.6531 10.0484 13.6531L10.339 16.0891C10.339 16.0891 10.4781 16.4859 10.7968 16.725C11.1156 16.9641 11.8906 17.0625 11.8906 17.0625C11.8906 17.0625 11.275 16.7 11.0562 16.1328C10.8375 15.5656 10.8671 15.3328 10.8671 14.9953V10.8516C10.8671 10.5734 11.2046 10.2062 11.4437 9.97655C11.6828 9.74843 17.2859 4.24374 17.5046 4.00468C17.9281 3.54218 18.0609 3.23593 18.0796 2.99687C18.1 2.7578 18.0281 2.43437 17.9375 2.59374C17.8484 2.75468 17.5828 3.26093 17.5828 3.26093V3.26093ZM7.85465 16.9437C7.85465 16.9437 8.55934 16.5656 8.7484 16.0281C8.93746 15.4906 8.99684 15.1453 9.00621 14.4391C9.01559 13.7328 9.00621 11.0406 9.00621 10.7234C9.00621 10.3406 8.53121 9.9578 8.31715 9.66405C8.27965 9.61249 8.59996 9.71718 8.91402 9.9078C9.29684 10.1406 9.67809 10.3594 9.64215 10.925C9.60621 11.475 9.67652 12.8281 9.67652 12.8281L9.65152 15.275C9.65152 15.275 9.66246 16.2609 9.05465 16.6C8.53121 16.8906 7.85465 16.9437 7.85465 16.9437V16.9437ZM5.45934 17.7328C5.44059 17.7844 5.42965 18.2953 5.81715 18.5437C6.09527 18.7219 6.95777 19.4094 9.82184 19.4187C13.1406 19.4281 14.0609 18.4016 14.1734 18.1172C14.3031 17.7891 14.2281 17.4656 14.2 17.4734C14.1796 17.4797 14.114 17.65 14.025 17.7484C13.9359 17.8484 13.3 18.6031 11.5703 18.8016C9.84059 19 8.06246 18.9016 6.92027 18.5625C5.77809 18.2234 5.46871 17.7078 5.45934 17.7328V17.7328Z" fill="#9E9E9E"/>
<path d="M5.90619 17.4703C5.82026 17.6109 5.87026 17.8437 6.21401 18.0562C6.71088 18.3641 7.83432 18.6219 8.44994 18.5922C9.06557 18.5625 9.07651 18.1656 8.52026 18.075C7.96401 17.9859 7.18901 17.9156 6.51244 17.5484C6.33276 17.4531 6.04526 17.2422 5.90619 17.4703ZM9.34526 17.4016C9.36713 17.6813 9.79213 17.6203 10.0015 17.6203C10.2109 17.6203 10.489 17.6 10.4781 17.3719C10.4687 17.1438 10.0906 17.1641 9.93119 17.1734C9.74213 17.1828 9.32494 17.1422 9.34526 17.4016ZM9.97026 10.5656C9.64526 10.5703 9.50932 10.7047 9.50619 11.7766C9.50307 12.6703 9.46401 15.9313 9.41401 16.1109C9.36401 16.2906 9.22494 16.6469 9.25463 16.8172C9.28432 16.9859 9.48276 17.0563 9.89057 17.0563C10.2984 17.0563 10.5062 16.8672 10.5171 16.6297C10.5265 16.3906 10.4374 16.2922 10.4078 16.1031C10.3781 15.9141 10.3828 12.7109 10.3828 11.8266C10.3828 11.1344 10.3906 10.5578 9.97026 10.5656V10.5656ZM3.62651 3.95469C3.42963 4.15156 5.52494 6.175 6.32963 6.97969C7.13432 7.78437 9.03901 9.50156 9.21401 9.31406C9.38901 9.12656 7.25307 7.17031 6.53119 6.45625C5.41713 5.35625 3.82807 3.75312 3.62651 3.95469V3.95469Z" fill="white"/>
<path d="M1.99684 2.35933C1.97341 1.98745 2.29841 0.57183 10.1875 0.66558C17.9593 0.757767 18.0765 2.52183 18.0531 2.84683C18.0297 3.17183 17.3578 2.70777 17.3578 2.70777C17.3578 2.70777 15.8187 1.32027 10.1125 1.29839C4.40466 1.27495 2.88122 1.94214 2.83434 2.29058C2.78747 2.63902 2.74216 2.91714 2.74216 2.91714L1.99684 2.35933V2.35933Z" fill="#BFBFBF"/>
<path d="M11.9906 5.12819C13.514 3.90944 16.6812 1.38287 16.9296 1.18756C17.2718 0.918811 18.264 0.293811 18.35 0.379748C18.4359 0.465686 17.7625 1.32194 17.3218 1.73912C17.0515 1.99381 14.8656 3.78912 13.3656 5.00475C12.4156 5.77506 11.4125 5.59069 11.9906 5.12819Z" fill="#F8C977"/>
<path d="M10.9438 6.01094L11.9907 5.12656C11.9907 5.12656 12.336 5.1125 12.6626 5.08594C12.9438 5.0625 13.3626 5.00781 13.3626 5.00781L11.422 6.62188L10.9438 6.01094V6.01094Z" fill="#E3C08F"/>
<path d="M11.7155 5.92505C11.2484 5.3563 10.2077 5.41099 9.58585 5.97349C8.93741 6.56099 8.82648 7.42974 9.32804 8.00474C9.8296 8.57974 10.6374 8.64068 11.3968 7.96724C12.1562 7.29536 12.0577 6.34067 11.7155 5.92505Z" fill="#919F50"/>
<path d="M9.57343 6.79372C9.7453 7.00153 9.98905 6.91559 10.1859 6.75622C10.3781 6.59997 10.4984 6.36715 10.3578 6.19372C10.1984 5.9984 9.94218 6.09528 9.7703 6.23122C9.59843 6.36715 9.42812 6.61872 9.57343 6.79372V6.79372Z" fill="#E8DE9F"/>
<path d="M9.28599 7.25625C9.06724 7.39531 9.2688 7.77031 9.39067 7.92812C9.47817 8.04062 9.7313 8.32969 9.9313 8.16406C10.1313 7.99844 9.9313 7.68437 9.79224 7.475C9.70474 7.34531 9.51099 7.1125 9.28599 7.25625V7.25625Z" fill="#EF3E24"/>
<path d="M10.0155 4.58904C13.2858 4.64216 16.814 4.37185 17.7249 3.46716C18.5296 2.66873 17.6562 2.07029 17.6562 2.07029L17.3562 2.70466L16.8874 3.24529L15.5124 3.65623L14.1062 3.86091L11.2155 4.01873L8.18272 3.93904L5.87647 3.5781L4.09054 3.21404L2.89054 2.58279L2.59054 2.02966C2.59054 2.02966 2.00772 2.18123 1.99835 2.31091C1.98272 2.52029 2.08897 2.73904 2.2421 2.92966C2.53429 3.29373 4.12179 4.49529 10.0155 4.58904V4.58904Z" fill="#BFBFBF"/>
<path d="M11.2844 4.09686C10.911 4.09686 10.5157 4.09217 10.0985 4.0828C4.87819 3.96873 3.20788 3.22655 2.7235 2.62342C2.53288 2.38592 2.55788 2.20311 2.56413 2.16873C2.58132 2.08436 2.66413 2.02967 2.7485 2.04686C2.83132 2.06248 2.88444 2.14061 2.87194 2.22342C2.87194 2.2328 2.8735 2.32655 2.99694 2.46405C3.39382 2.90311 4.84538 3.65623 10.1032 3.7703C15.5391 3.88905 16.8469 3.16561 17.1563 2.84842C17.2688 2.73436 17.2657 2.6578 17.2657 2.6578C17.2485 2.57342 17.3048 2.4953 17.3891 2.47967C17.4735 2.46248 17.5563 2.52342 17.5735 2.6078C17.5798 2.63905 17.6016 2.80623 17.4282 3.01405C17.0063 3.5203 15.5766 4.09686 11.2844 4.09686Z" fill="#FEFEFE"/>
</svg>
