<svg width="119" height="33" viewBox="0 0 119 33" fill="none" xmlns="http://www.w3.org/2000/svg">
<path d="M48.9661 10.8818L48.8828 2.38413C48.8828 1.62263 49.2297 1.24881 49.9234 1.24188H50.2702C50.9986 1.24188 51.3559 1.58802 51.3628 2.36336L51.4391 10.0303L55.5355 9.9922C56.2985 9.9922 56.6905 10.3383 56.6974 11.0306V11.0998C56.6974 11.7921 56.3194 12.1832 55.5597 12.1902L50.2772 12.2421C49.4725 12.2455 48.9765 11.7575 48.9661 10.8818Z" fill="#633AA3"/>
<path d="M62.7201 7.19559H62.9907C62.9914 7.11549 62.9844 7.03552 62.9699 6.95675C62.9282 5.99449 62.3282 5.47875 61.2807 5.48914C60.8596 5.46377 60.4407 5.5667 60.0796 5.78429C59.7184 6.00188 59.4321 6.32385 59.2585 6.70754C59.2585 6.74215 57.7219 6.87368 57.7115 5.77643C57.7158 5.57112 57.7619 5.36883 57.8472 5.18195C57.9325 4.99507 58.0551 4.82752 58.2075 4.68956C58.759 4.11152 59.8239 3.71 61.4125 3.69615C64.0382 3.66846 65.3181 4.85571 65.3423 7.07098L65.3909 11.9342C65.3909 12.0519 64.9539 12.2111 64.496 12.2146C64.229 12.2386 63.9614 12.1753 63.7336 12.0342C63.5058 11.8931 63.3303 11.6818 63.2335 11.4323C63.1709 11.251 63.1245 11.0645 63.0947 10.875C62.782 11.3374 62.3566 11.7129 61.8584 11.966C61.3602 12.2191 60.8057 12.3416 60.247 12.3219C58.5128 12.3219 57.4722 11.4046 57.4479 9.98544C57.4271 8.144 59.2134 7.28212 62.7201 7.19559ZM63.0011 8.39322H62.5432C60.6667 8.47975 59.6713 8.84666 59.6782 9.77776C59.6782 10.4043 60.1811 10.7885 60.9754 10.7781C62.1617 10.7781 63.0011 10.0339 63.008 8.98511L63.0011 8.39322Z" fill="#633AA3"/>
<path d="M65.8068 4.44679C65.7721 4.3118 66.3895 3.73029 67.1006 3.72337C67.6764 3.72337 68.1411 3.98297 68.4672 4.94177L70.1772 9.78767L71.8559 4.94177C72.1508 3.97605 72.6364 3.69914 73.1462 3.69568C73.8746 3.69568 74.4886 4.25642 74.44 4.38795L71.5472 11.5183C71.3495 12.0099 70.7564 12.1518 70.2153 12.1587C69.6742 12.1656 69.0811 12.0514 68.873 11.5633L65.8068 4.44679Z" fill="#633AA3"/>
<path d="M78.8705 3.52327C81.3227 3.49904 83.0015 5.18818 83.0327 7.60421V7.75651C83.0327 8.16149 82.9044 8.38302 82.4639 8.38648L76.7408 8.44532L76.7963 8.71531C76.9181 9.24031 77.222 9.70543 77.6542 10.0285C78.0865 10.3515 78.6192 10.5116 79.1583 10.4806C80.3931 10.4806 81.1007 9.92332 81.4649 9.25874C81.4823 9.22413 82.6338 9.31412 82.6442 10.2625C82.6442 10.7194 82.3321 11.1936 81.7424 11.5536C80.9395 12.0061 80.028 12.2312 79.1063 12.2044C76.4147 12.232 74.6388 10.5775 74.5972 7.95727C74.5868 5.42355 76.3627 3.55788 78.8705 3.52327ZM78.8705 5.16395C78.3329 5.16781 77.8165 5.37376 77.4243 5.74074C77.0322 6.10771 76.793 6.60873 76.7546 7.14385L80.8198 7.10231C80.7227 5.90468 79.9873 5.15011 78.8705 5.16395Z" fill="#633AA3"/>
<path d="M92.3131 6.7878L92.3513 10.758C92.3513 11.6199 91.9038 11.8933 91.3107 11.9002H91.054C90.4297 11.9002 89.9857 11.6545 89.9788 10.7787L89.9406 7.17893C89.9406 6.08168 89.3649 5.41018 88.4006 5.42056C88.0278 5.41725 87.6615 5.5183 87.3433 5.71225C87.0251 5.9062 86.7677 6.18528 86.6004 6.51781L86.6421 10.8099C86.6421 11.6718 86.2154 11.9452 85.6015 11.9521H85.3483C84.7031 11.9521 84.2626 11.7099 84.2522 10.8307L84.1829 3.83526C84.1829 3.75219 84.6025 3.56181 85.0777 3.55835C85.7194 3.55835 86.368 3.86641 86.5137 4.9429C86.7938 4.47689 87.1912 4.09211 87.6664 3.82676C88.1416 3.56141 88.6781 3.42473 89.2226 3.43028C91.3558 3.39913 92.2923 4.91174 92.3131 6.7878Z" fill="#633AA3"/>
<path d="M93.4756 7.71108C93.4513 5.09083 94.9914 3.37054 97.291 3.34977C97.7942 3.32527 98.2958 3.42377 98.7522 3.63671C99.2086 3.84965 99.6059 4.17059 99.9098 4.57163L99.8681 0.283005C100.121 0.082035 100.44 -0.0178895 100.763 0.00263522C101.474 0.00263522 102.254 0.348771 102.272 1.896L102.359 10.6636C102.359 11.5255 101.946 11.8024 101.318 11.8059H101.072C100.531 11.8059 100.121 11.6293 100.031 10.989C100.014 10.8021 99.993 10.6152 99.993 10.4144C99.736 10.8999 99.3504 11.3057 98.8783 11.5877C98.4061 11.8697 97.8655 12.017 97.3153 12.0136C95.0781 12.0309 93.5034 10.2898 93.4756 7.71108ZM99.934 6.54807C99.7667 6.14175 99.4759 5.798 99.1026 5.56517C98.7293 5.33234 98.2922 5.22213 97.8529 5.25006C96.5661 5.25006 95.7128 6.20193 95.7267 7.67301C95.7406 9.14409 96.632 10.096 97.8668 10.096C98.1354 10.1068 98.4035 10.063 98.6546 9.96722C98.9058 9.87147 99.1348 9.72578 99.3279 9.539C99.5209 9.35221 99.6738 9.12823 99.7774 8.88065C99.881 8.63306 99.9331 8.36705 99.9306 8.09876L99.934 6.54807Z" fill="#633AA3"/>
<path d="M107.779 3.23958C110.232 3.21535 111.91 4.90449 111.942 7.32052V7.47282C111.942 7.8778 111.813 8.09932 111.373 8.10279L105.65 8.15817L105.702 8.42815C105.828 8.95487 106.138 9.41979 106.575 9.74042C107.013 10.061 107.55 10.2166 108.092 10.1796C109.326 10.1796 110.034 9.61886 110.398 8.95774C110.415 8.92313 111.567 9.01312 111.577 9.95808C111.577 10.415 111.265 10.8926 110.676 11.2526C109.873 11.7051 108.961 11.9302 108.04 11.9034C105.348 11.9311 103.572 10.2731 103.53 7.65627C103.513 5.13986 105.289 3.26381 107.779 3.23958ZM107.779 4.8768C107.242 4.88152 106.727 5.08786 106.335 5.45475C105.944 5.82164 105.705 6.32216 105.667 6.8567L109.739 6.81862C109.645 5.63484 108.91 4.86641 107.776 4.8768H107.779Z" fill="#633AA3"/>
<path d="M119 4.51294C119 5.45789 118.285 5.80402 118.251 5.76941C117.949 5.51086 117.563 5.37062 117.165 5.37481C116.013 5.37481 115.514 6.41322 115.531 8.06083L115.556 10.5288C115.556 11.3907 115.129 11.6641 114.515 11.671H114.262C113.617 11.671 113.176 11.4287 113.166 10.5495L113.096 3.5576C113.096 3.47107 113.499 3.28415 113.991 3.27723C114.276 3.26358 114.558 3.34215 114.794 3.50122C115.03 3.66029 115.208 3.89133 115.302 4.15988C115.36 4.34772 115.401 4.53988 115.427 4.73446C115.739 3.75144 116.426 3.15262 117.46 3.14224C118.41 3.13185 118.993 3.66836 119 4.51294Z" fill="#633AA3"/>
<path d="M49.1156 25.9254L49.0393 17.767C49.0393 16.8878 49.5145 16.3825 50.3296 16.3825L54.0513 16.3444C56.5244 16.3201 57.8667 17.2893 57.891 19.1135C57.891 20.3284 57.232 21.0795 55.966 21.4464C57.5927 21.7926 58.3489 22.831 58.3627 24.1255C58.3836 26.2369 57.0378 27.2407 53.9577 27.2788L50.4371 27.3134C49.622 27.3065 49.126 26.8046 49.1156 25.9254ZM53.5484 20.9999C54.7 20.9999 55.3555 20.4253 55.3486 19.5115C55.3416 18.5977 54.7242 18.127 53.5207 18.127L51.4916 18.1477L51.5193 21.0034L53.5484 20.9999ZM53.7288 25.4581C55.2202 25.4581 55.8099 24.9978 55.8099 23.9005C55.8099 22.9037 55.137 22.4364 53.6976 22.4502L51.5297 22.471L51.5609 25.4789L53.7288 25.4581Z" fill="#633AA3"/>
<path d="M63.64 18.7364C66.2449 18.7122 68.0416 20.4671 68.0659 23.0354C68.0901 25.6037 66.3316 27.3794 63.692 27.4036C61.0525 27.4279 59.2904 25.673 59.2627 23.0908C59.2384 20.5571 61.0143 18.7641 63.64 18.7364ZM63.64 20.5951C62.3046 20.5951 61.3473 21.6336 61.3612 23.07C61.375 24.5065 62.3532 25.5414 63.6886 25.531C65.0239 25.5207 65.9639 24.458 65.95 23.0562C65.9362 21.6543 64.9962 20.5848 63.64 20.5951Z" fill="#633AA3"/>
<path d="M73.214 18.642C75.8188 18.6178 77.6155 20.3727 77.6398 22.941C77.6641 25.5094 75.9056 27.285 73.266 27.3093C70.6264 27.3335 68.8644 25.5786 68.8367 22.993C68.8124 20.4592 70.5883 18.6697 73.214 18.642ZM73.214 20.5008C71.8786 20.5008 70.9213 21.5392 70.9351 22.9722C70.949 24.4052 71.9271 25.4471 73.2625 25.4332C74.5979 25.4194 75.5379 24.3637 75.524 22.9618C75.5101 21.508 74.5528 20.4869 73.214 20.5181V20.5008Z" fill="#633AA3"/>
<path d="M78.7546 15.5474C79.0119 15.344 79.336 15.244 79.6634 15.267C80.3571 15.267 81.141 15.6132 81.1549 17.1604L81.2069 22.2486L83.4823 19.3895C83.6202 19.1631 83.8121 18.9742 84.0408 18.8395C84.2695 18.7049 84.528 18.6286 84.7934 18.6176C85.5564 18.6176 86.1392 19.3099 86.0698 19.4137L83.4441 22.6674L86.5034 26.2326C86.5554 26.3676 85.9519 27.0495 85.1888 27.0564C84.9193 27.0563 84.6542 26.9875 84.4188 26.8567C84.1833 26.7259 83.9851 26.5373 83.843 26.3088L81.2173 23.287L81.2416 25.9211C81.2416 26.783 80.815 27.0599 80.201 27.0634H79.9478C79.32 27.0634 78.8622 26.8211 78.8518 25.9419L78.7546 15.5474Z" fill="#633AA3"/>
<path d="M21.3017 13.8954V16.5006C21.3017 16.5006 19.2539 12.6686 10.7733 12.7517C2.2927 12.8348 0.083245 9.6053 0.083245 9.6053L0.0173427 2.76912L0 0.927673C0 0.927673 1.984 4.02213 10.253 3.94252C18.522 3.86291 20.8945 7.05774 20.8945 7.05774L21.3017 13.8954Z" fill="#BA9072"/>
<path d="M21.0463 22.595L21.0637 24.4365C21.0637 24.4365 19.3537 21.3697 10.887 21.4528C2.42026 21.5359 0.169182 18.3064 0.169182 18.3064L0.10328 11.4702L0.0859375 9.62878C0.0859375 9.62878 2.06994 12.7232 10.3389 12.6436C18.6079 12.564 20.9804 15.7589 20.9804 15.7589L21.0463 22.595Z" fill="#906145"/>
<path d="M22.6068 32.5659L21.1308 33.0001C21.1308 33.0001 19.4243 29.9195 10.9437 30.0025C2.46311 30.0856 0.257115 26.8562 0.257115 26.8562L0.187744 20.02V18.1785C0.187744 18.1785 2.15441 21.273 10.4269 21.2107C18.6993 21.1484 21.0649 24.3259 21.0649 24.3259L22.6068 32.5659Z" fill="#593A2A"/>
<path d="M40.6457 1.4151L20.8923 6.85636L20.979 15.5963L40.7324 10.155L40.6457 1.4151Z" fill="#633AA3"/>
<path d="M21.1509 32.9997L40.9008 27.5584L40.8141 18.815L21.0642 24.2563L21.1509 32.9997Z" fill="#633AA3"/>
<path d="M20.9783 15.5545L21.065 24.2979L40.8148 18.8567L40.7281 10.1133L20.9783 15.5545Z" fill="#EBEDFC"/>
</svg>
