<svg width="158" height="44" viewBox="0 0 158 44" fill="none" xmlns="http://www.w3.org/2000/svg">
<path d="M65.0165 14.509L64.906 3.17877C64.906 2.16343 65.3665 1.66499 66.2876 1.65576H66.7481C67.7152 1.65576 68.1895 2.11728 68.1987 3.15108L68.3 13.3737L73.7388 13.3229C74.7519 13.3229 75.2723 13.7845 75.2815 14.7075V14.7998C75.2815 15.7228 74.7795 16.2443 73.771 16.2536L66.7573 16.3228C65.6889 16.3274 65.0303 15.6767 65.0165 14.509Z" fill="#633AA3"/>
<path d="M83.2758 9.59383H83.635C83.6359 9.48703 83.6267 9.3804 83.6073 9.27538C83.5521 7.99236 82.7554 7.3047 81.3646 7.31854C80.8055 7.28471 80.2494 7.42196 79.7699 7.71208C79.2904 8.0022 78.9103 8.43151 78.6798 8.94308C78.6798 8.98924 76.6397 9.16461 76.6259 7.7016C76.6315 7.42786 76.6928 7.15814 76.806 6.90896C76.9192 6.65978 77.082 6.43638 77.2844 6.25243C78.0166 5.4817 79.4304 4.94634 81.5396 4.92788C85.0257 4.89096 86.7251 6.47396 86.7573 9.42768L86.8218 15.912C86.8218 16.0689 86.2415 16.2812 85.6336 16.2858C85.2791 16.3179 84.9238 16.2335 84.6214 16.0453C84.319 15.8572 84.0859 15.5755 83.9573 15.2428C83.8743 15.001 83.8127 14.7524 83.7731 14.4998C83.3579 15.1163 82.7931 15.6169 82.1317 15.9544C81.4702 16.2919 80.734 16.4552 79.9923 16.4289C77.6897 16.4289 76.3081 15.2059 76.2759 13.3137C76.2482 10.8584 78.6199 9.7092 83.2758 9.59383ZM83.6488 11.1907H83.0409C80.5495 11.3061 79.2278 11.7953 79.237 13.0367C79.237 13.8721 79.9048 14.3844 80.9594 14.3705C82.5343 14.3705 83.6488 13.3783 83.658 11.9799L83.6488 11.1907Z" fill="#633AA3"/>
<path d="M87.3686 5.92947C87.3225 5.74948 88.1422 4.97413 89.0863 4.9649C89.8507 4.9649 90.4678 5.31104 90.9007 6.58944L93.1711 13.0507L95.4 6.58944C95.7914 5.30181 96.4362 4.93259 97.1131 4.92798C98.0802 4.92798 98.8953 5.67564 98.8309 5.85101L94.9901 15.3583C94.7276 16.0136 93.9401 16.2029 93.2217 16.2121C92.5033 16.2213 91.7158 16.069 91.4395 15.4183L87.3686 5.92947Z" fill="#633AA3"/>
<path d="M104.718 4.69712C107.974 4.66481 110.203 6.91702 110.244 10.1384V10.3415C110.244 10.8815 110.074 11.1768 109.489 11.1815L101.89 11.2599L101.964 11.6199C102.126 12.3199 102.529 12.9401 103.103 13.3708C103.677 13.8015 104.384 14.015 105.1 13.9736C106.74 13.9736 107.679 13.2306 108.163 12.3445C108.186 12.2983 109.714 12.4183 109.728 13.6829C109.728 14.2921 109.314 14.9244 108.531 15.4043C107.465 16.0077 106.255 16.3077 105.031 16.272C101.457 16.3089 99.0995 14.1029 99.0442 10.6092C99.0304 7.23085 101.388 4.74327 104.718 4.69712ZM104.718 6.88472C104.004 6.88986 103.318 7.16447 102.798 7.65377C102.277 8.14307 101.96 8.8111 101.909 9.5246L107.306 9.46922C107.177 7.87237 106.201 6.86626 104.718 6.88472Z" fill="#633AA3"/>
<path d="M122.568 9.04926L122.618 14.3429C122.618 15.492 122.024 15.8566 121.237 15.8659H120.896C120.067 15.8659 119.477 15.5382 119.468 14.3706L119.418 9.57077C119.418 8.10776 118.653 7.21241 117.373 7.22626C116.878 7.22184 116.391 7.35658 115.969 7.61518C115.547 7.87378 115.205 8.24589 114.983 8.68927L115.038 14.4121C115.038 15.5613 114.472 15.9259 113.656 15.9351H113.32C112.464 15.9351 111.879 15.612 111.865 14.4398L111.773 5.11251C111.773 5.00174 112.33 4.74791 112.961 4.74329C113.813 4.74329 114.674 5.15404 114.868 6.58936C115.24 5.96801 115.767 5.45497 116.398 5.10117C117.029 4.74737 117.741 4.56512 118.464 4.57253C121.296 4.53099 122.54 6.54783 122.568 9.04926Z" fill="#633AA3"/>
<path d="M124.105 10.2815C124.073 6.78783 126.117 4.49408 129.171 4.46639C129.839 4.43373 130.505 4.56507 131.111 4.84899C131.717 5.13291 132.244 5.56082 132.647 6.09555L132.592 0.377343C132.928 0.109381 133.352 -0.0238529 133.78 0.00351365C134.724 0.00351365 135.761 0.465032 135.784 2.52802L135.899 14.2183C135.899 15.3674 135.351 15.7367 134.517 15.7413H134.19C133.472 15.7413 132.928 15.5059 132.809 14.6521C132.786 14.4029 132.758 14.1537 132.758 13.886C132.417 14.5333 131.905 15.0744 131.278 15.4504C130.651 15.8264 129.933 16.0227 129.203 16.0182C126.232 16.0413 124.142 13.7198 124.105 10.2815ZM132.68 8.73082C132.458 8.18906 132.071 7.73073 131.576 7.42028C131.08 7.10984 130.5 6.9629 129.917 7.00013C128.208 7.00013 127.075 8.2693 127.094 10.2308C127.112 12.1922 128.296 13.4614 129.935 13.4614C130.292 13.4758 130.648 13.4174 130.981 13.2897C131.315 13.1621 131.619 12.9678 131.875 12.7188C132.131 12.4697 132.334 12.1711 132.472 11.841C132.609 11.5108 132.679 11.1561 132.675 10.7984L132.68 8.73082Z" fill="#633AA3"/>
<path d="M143.102 4.3187C146.358 4.2864 148.587 6.53861 148.628 9.76V9.96307C148.628 10.503 148.458 10.7984 147.873 10.803L140.274 10.8769L140.343 11.2369C140.512 11.9392 140.923 12.5591 141.503 12.9866C142.084 13.4141 142.797 13.6215 143.516 13.5721C145.156 13.5721 146.095 12.8245 146.579 11.943C146.602 11.8968 148.131 12.0168 148.145 13.2768C148.145 13.886 147.73 14.5229 146.947 15.0028C145.881 15.6062 144.671 15.9062 143.447 15.8705C139.874 15.9074 137.516 13.6968 137.461 10.2077C137.438 6.85244 139.795 4.35101 143.102 4.3187ZM143.102 6.50168C142.389 6.50798 141.705 6.7831 141.185 7.27229C140.665 7.76148 140.348 8.42885 140.297 9.14157L145.704 9.0908C145.58 7.51241 144.603 6.48784 143.097 6.50168H143.102Z" fill="#633AA3"/>
<path d="M158 6.01702C158 7.27696 157.051 7.73848 157.005 7.69233C156.604 7.34759 156.092 7.16061 155.564 7.1662C154.035 7.1662 153.372 8.55075 153.395 10.7476L153.427 14.0382C153.427 15.1874 152.861 15.552 152.045 15.5612H151.709C150.853 15.5612 150.268 15.2381 150.254 14.0659L150.162 4.74323C150.162 4.62785 150.696 4.37863 151.35 4.3694C151.728 4.3512 152.102 4.45596 152.415 4.66805C152.729 4.88015 152.966 5.18821 153.091 5.54627C153.167 5.79673 153.222 6.05294 153.257 6.31239C153.671 5.00168 154.583 4.20325 155.955 4.18941C157.217 4.17556 157.991 4.89091 158 6.01702Z" fill="#633AA3"/>
<path d="M65.2136 34.5666L65.1123 23.6886C65.1123 22.5164 65.7432 21.8426 66.8254 21.8426L71.7668 21.7918C75.0503 21.7595 76.8325 23.0517 76.8647 25.4839C76.8647 27.1039 75.9898 28.1054 74.3089 28.5946C76.4687 29.0561 77.4726 30.4406 77.4911 32.1667C77.5187 34.982 75.7319 36.3204 71.6425 36.3711L66.9682 36.4173C65.886 36.4081 65.2274 35.7389 65.2136 34.5666ZM71.0991 27.9992C72.628 27.9992 73.4984 27.2331 73.4891 26.0147C73.4799 24.7963 72.6602 24.1686 71.0622 24.1686L68.3682 24.1963L68.405 28.0038L71.0991 27.9992ZM71.3385 33.9436C73.3188 33.9436 74.1016 33.3297 74.1016 31.8667C74.1016 30.5376 73.2082 29.9145 71.2971 29.933L68.4188 29.9607L68.4603 33.9713L71.3385 33.9436Z" fill="#633AA3"/>
<path d="M84.4964 24.9809C87.9549 24.9486 90.3404 27.2885 90.3726 30.7129C90.4049 34.1374 88.07 36.505 84.5655 36.5373C81.0609 36.5696 78.7215 34.2297 78.6847 30.7868C78.6524 27.4084 81.0103 25.0178 84.4964 24.9809ZM84.4964 27.4592C82.7234 27.4592 81.4524 28.8438 81.4708 30.7591C81.4892 32.6744 82.7879 34.0543 84.5609 34.0405C86.3339 34.0266 87.5819 32.6098 87.5635 30.7406C87.545 28.8715 86.297 27.4454 84.4964 27.4592Z" fill="#633AA3"/>
<path d="M97.2056 24.8562C100.664 24.8239 103.05 27.1638 103.082 30.5883C103.114 34.0127 100.779 36.3803 97.2747 36.4126C93.7702 36.4449 91.4307 34.105 91.3939 30.6575C91.3616 27.2792 93.7195 24.8931 97.2056 24.8562ZM97.2056 27.3346C95.4326 27.3346 94.1616 28.7191 94.18 30.6298C94.1984 32.5405 95.4971 33.9297 97.2701 33.9112C99.0431 33.8927 100.291 32.4851 100.273 30.616C100.254 28.6776 98.9832 27.3161 97.2056 27.3577V27.3346Z" fill="#633AA3"/>
<path d="M104.561 20.7303C104.902 20.4592 105.332 20.3258 105.767 20.3565C106.688 20.3565 107.729 20.818 107.747 22.881L107.816 29.6653L110.837 25.8532C111.021 25.5513 111.275 25.2994 111.579 25.1198C111.883 24.9403 112.226 24.8387 112.578 24.824C113.591 24.824 114.365 25.747 114.273 25.8855L110.787 30.2238L114.849 34.9774C114.918 35.1574 114.116 36.0666 113.103 36.0758C112.745 36.0756 112.393 35.9839 112.081 35.8095C111.768 35.6351 111.505 35.3836 111.316 35.0789L107.83 31.0499L107.862 34.562C107.862 35.7112 107.296 36.0804 106.481 36.085H106.145C105.311 36.085 104.703 35.762 104.689 34.5897L104.561 20.7303Z" fill="#633AA3"/>
<path d="M28.2823 18.5261V21.9998C28.2823 21.9998 25.5634 16.8904 14.3037 17.0012C3.04403 17.1119 0.110525 12.806 0.110525 12.806L0.023026 3.69099L0 1.23572C0 1.23572 2.63417 5.36169 13.6129 5.25554C24.5917 5.14939 27.7417 9.4092 27.7417 9.4092L28.2823 18.5261Z" fill="#BA9072"/>
<path d="M27.9441 30.1268L27.9672 32.5821C27.9672 32.5821 25.6968 28.4931 14.4555 28.6038C3.21428 28.7146 0.225515 24.4086 0.225515 24.4086L0.138016 15.2937L0.11499 12.8384C0.11499 12.8384 2.74916 16.9644 13.7279 16.8582C24.7067 16.7521 27.8566 21.0119 27.8566 21.0119L27.9441 30.1268Z" fill="#906145"/>
<path d="M30.0152 43.4211L28.0554 44C28.0554 44 25.7896 39.8925 14.53 40.0032C3.27027 40.114 0.341371 35.808 0.341371 35.808L0.249268 26.6931V24.2378C0.249268 24.2378 2.86041 28.3638 13.8438 28.2807C24.8272 28.1976 27.9679 32.4344 27.9679 32.4344L30.0152 43.4211Z" fill="#593A2A"/>
<path d="M53.9643 1.88647L27.7378 9.14154L27.8529 20.7949L54.0795 13.5398L53.9643 1.88647Z" fill="#633AA3"/>
<path d="M28.0827 44L54.3046 36.7449L54.1895 25.087L27.9675 32.342L28.0827 44Z" fill="#633AA3"/>
<path d="M27.8528 20.7394L27.9679 32.3974L54.1899 25.1423L54.0747 13.4844L27.8528 20.7394Z" fill="#EBEDFC"/>
</svg>
